{"glyphs":{"0":{"ha":1058,"x_min":28,"x_max":1031,"o":"m 54 694 l 28 722 l 1031 722 l 1031 82 l 54 82 l 54 694 m 233 626 l 233 178 l 851 178 l 851 626 l 233 626 z "},"1":{"ha":261,"x_min":28,"x_max":233,"o":"m 53 694 l 28 722 l 233 722 l 233 82 l 53 82 l 53 694 z "},"2":{"ha":1025,"x_min":28,"x_max":997,"o":"m 54 424 l 28 450 l 54 450 l 54 451 l 792 451 l 792 628 l 104 628 q 76 622 92 628 q 54 599 60 617 l 54 724 l 997 724 l 971 696 l 971 354 l 233 354 l 233 179 l 971 179 l 971 82 l 104 82 q 76 76 92 82 q 54 54 60 71 l 54 424 z "},"3":{"ha":999,"x_min":28,"x_max":971,"o":"m 56 451 l 765 451 l 765 628 l 78 628 q 49 622 65 628 q 28 599 33 617 l 28 724 l 971 724 l 944 696 l 944 82 l 78 82 q 49 76 65 82 q 28 54 33 71 l 28 179 l 765 179 l 765 354 l 106 354 q 77 349 93 354 q 56 326 61 343 l 56 451 z "},"4":{"ha":972,"x_min":28,"x_max":944,"o":"m 918 82 l 738 82 l 738 311 l 78 311 q 50 306 65 311 q 28 282 35 300 l 28 722 l 235 722 l 210 694 l 210 407 l 738 407 l 738 722 l 944 722 l 918 694 l 918 82 z "},"5":{"ha":974,"x_min":28,"x_max":946,"o":"m 28 179 l 765 179 l 765 354 l 78 354 q 49 349 65 354 q 28 326 33 343 l 28 724 l 946 724 l 946 599 q 924 622 939 617 q 894 628 908 628 l 208 628 l 208 451 l 946 451 l 946 82 l 78 82 q 49 76 65 82 q 28 54 33 71 l 28 179 z "},"6":{"ha":975,"x_min":28,"x_max":947,"o":"m 947 599 q 925 622 940 617 q 896 628 910 628 l 210 628 l 210 451 l 947 451 l 947 82 l 78 82 q 50 76 65 82 q 28 54 35 71 l 28 724 l 947 724 l 947 599 m 210 179 l 765 179 l 765 354 l 210 354 l 210 179 z "},"7":{"ha":974,"x_min":28,"x_max":946,"o":"m 765 626 l 78 626 q 49 621 65 626 q 28 597 33 615 l 28 722 l 946 722 l 946 82 l 765 82 l 765 626 z "},"8":{"ha":974,"x_min":28,"x_max":946,"o":"m 28 724 l 946 724 l 946 82 l 78 82 q 49 76 65 82 q 28 54 33 71 l 28 724 m 208 451 l 765 451 l 765 628 l 208 628 l 208 451 m 208 179 l 765 179 l 765 354 l 208 354 l 208 179 z "},"9":{"ha":972,"x_min":28,"x_max":944,"o":"m 28 724 l 944 724 l 944 82 l 78 82 q 49 76 65 82 q 28 54 33 71 l 28 179 l 765 179 l 765 354 l 78 354 q 49 349 65 354 q 28 326 33 343 l 28 724 m 207 451 l 765 451 l 765 628 l 207 628 l 207 451 z "},"\u0002":{"ha":1389,"x_min":0,"x_max":0,"o":""}," ":{"ha":694,"x_min":0,"x_max":0,"o":""},"!":{"ha":238,"x_min":28,"x_max":210,"o":"m 28 917 l 210 917 l 210 306 l 28 306 l 28 917 m 28 231 l 210 231 l 210 82 l 28 82 l 28 231 z "},"#":{"ha":1092,"x_min":28,"x_max":1064,"o":"m 1064 226 l 833 226 l 801 82 l 607 82 l 639 226 l 331 226 l 299 82 l 104 82 l 136 226 l 28 226 l 28 322 l 157 322 l 239 689 l 28 689 l 28 786 l 261 786 l 290 917 l 483 917 l 454 786 l 763 786 l 792 917 l 988 917 l 958 786 l 1064 786 l 1064 689 l 936 689 l 854 322 l 1064 322 l 1064 226 m 351 322 l 660 322 l 742 689 l 433 689 l 351 322 z "},"$":{"ha":974,"x_min":28,"x_max":946,"o":"m 946 700 l 585 700 l 585 538 l 946 538 l 946 156 l 585 156 l 585 82 l 404 82 l 404 156 l 28 156 l 28 251 l 404 251 l 404 442 l 28 442 l 28 796 l 404 796 l 404 917 l 585 917 l 585 796 l 946 796 l 946 700 m 585 251 l 765 251 l 765 442 l 585 442 l 585 251 m 208 538 l 404 538 l 404 700 l 208 700 l 208 538 z "},"%":{"ha":749,"x_min":28,"x_max":721,"o":"m 688 917 l 256 82 l 60 82 l 493 917 l 688 917 m 28 917 l 333 917 l 333 738 l 28 738 l 28 917 m 415 260 l 721 260 l 721 82 l 415 82 l 415 260 m 526 206 l 526 135 l 610 135 l 610 206 l 526 206 m 139 861 l 139 792 l 222 792 l 222 861 l 139 861 z "},"&":{"ha":1175,"x_min":28,"x_max":1147,"o":"m 28 574 l 85 574 l 85 864 l 913 864 l 913 574 l 951 574 l 1013 376 l 1147 453 l 1147 317 l 1049 260 l 1106 82 l 924 82 l 896 172 l 738 82 l 28 82 l 28 574 m 208 478 l 208 178 l 665 178 l 860 289 l 801 478 l 208 478 m 267 767 l 267 574 l 732 574 l 732 767 l 267 767 z "},"(":{"ha":504,"x_min":28,"x_max":476,"o":"m 296 -22 q 296 832 28 403 l 476 832 q 476 -22 163 403 l 296 -22 l 296 -22 z "},")":{"ha":503,"x_min":28,"x_max":475,"o":"m 208 -22 l 28 -22 q 28 832 342 403 l 208 832 q 208 -22 475 403 z "},"+":{"ha":1151,"x_min":28,"x_max":1124,"o":"m 28 426 l 485 426 l 485 675 l 667 675 l 667 426 l 1124 426 l 1124 329 l 667 329 l 667 82 l 485 82 l 485 329 l 28 329 l 28 426 z "},"-":{"ha":1153,"x_min":28,"x_max":1125,"o":"m 28 426 l 1125 426 l 1125 329 l 28 329 l 28 426 z "},".":{"ha":238,"x_min":28,"x_max":210,"o":"m 28 231 l 210 231 l 210 82 l 28 82 l 28 231 z "},"/":{"ha":586,"x_min":28,"x_max":558,"o":"m 558 917 l 224 82 l 28 82 l 363 917 l 558 917 z "},":":{"ha":236,"x_min":28,"x_max":208,"o":"m 28 881 l 208 881 l 208 731 l 28 731 l 28 881 m 28 231 l 208 231 l 208 82 l 28 82 l 28 231 z "},";":{"ha":407,"x_min":75,"x_max":331,"o":"m 147 881 l 328 881 l 328 731 l 147 731 l 147 881 m 331 231 l 257 82 l 75 82 l 149 231 l 331 231 z "},"=":{"ha":1151,"x_min":28,"x_max":1124,"o":"m 28 649 l 1124 649 l 1124 553 l 28 553 l 28 649 m 28 300 l 1124 300 l 1124 203 l 28 203 l 28 300 z "},"?":{"ha":949,"x_min":28,"x_max":921,"o":"m 921 406 l 519 406 l 519 319 l 339 319 l 339 501 l 740 501 l 740 719 l 28 719 l 28 817 l 921 817 l 921 406 m 339 82 l 519 82 l 519 231 l 339 231 l 339 82 z "},"@":{"ha":1360,"x_min":28,"x_max":1332,"o":"m 28 914 l 1332 914 l 1332 283 l 910 283 l 856 363 l 807 283 l 338 283 l 338 703 l 1032 703 l 1032 382 l 1150 382 l 1150 817 l 208 817 l 208 178 l 1331 178 l 1331 82 l 28 82 l 28 914 m 519 606 l 519 382 l 851 382 l 851 606 l 519 606 z "},"A":{"ha":1132,"x_min":28,"x_max":1104,"o":"m 1104 82 l 925 82 l 810 318 l 324 318 l 207 82 l 28 82 l 339 694 l 313 722 l 785 722 l 1104 82 m 371 415 l 761 415 l 658 626 l 476 626 l 371 415 z "},"B":{"ha":1003,"x_min":28,"x_max":975,"o":"m 54 694 l 28 722 l 975 722 l 975 507 l 838 401 l 975 325 l 975 82 l 54 82 l 54 694 m 235 626 l 235 450 l 796 450 l 796 626 l 235 626 m 235 354 l 235 178 l 796 178 l 796 354 l 235 354 z "},"C":{"ha":999,"x_min":28,"x_max":971,"o":"m 971 54 q 949 76 965 71 q 921 82 933 82 l 53 82 l 53 696 l 28 724 l 971 724 l 971 599 q 949 622 965 617 q 921 628 933 628 l 233 628 l 233 179 l 971 179 l 971 54 z "},"D":{"ha":1060,"x_min":28,"x_max":1032,"o":"m 53 694 l 28 722 l 853 722 l 1032 631 l 1032 82 l 53 82 l 53 694 m 235 626 l 235 178 l 851 178 l 851 626 l 235 626 z "},"E":{"ha":999,"x_min":28,"x_max":971,"o":"m 943 326 q 922 349 936 343 q 893 354 907 354 l 233 354 l 233 179 l 971 179 l 971 54 q 949 76 965 71 q 921 82 933 82 l 54 82 l 54 696 l 28 724 l 971 724 l 971 599 q 949 622 965 617 q 921 628 933 628 l 233 628 l 233 451 l 943 451 l 943 326 z "},"F":{"ha":999,"x_min":28,"x_max":971,"o":"m 942 325 q 920 349 936 343 q 892 354 904 354 l 233 354 l 233 82 l 53 82 l 53 694 l 28 722 l 971 722 l 971 597 q 949 621 965 615 q 921 626 933 626 l 233 626 l 233 450 l 942 450 l 942 325 z "},"G":{"ha":1013,"x_min":28,"x_max":985,"o":"m 971 54 q 949 76 965 71 q 926 82 936 81 l 54 82 l 54 696 l 28 724 l 985 724 l 985 599 q 963 622 979 617 q 935 628 947 628 l 233 628 l 233 179 l 792 179 l 792 354 l 453 354 l 453 475 l 496 451 l 971 451 l 971 54 z "},"H":{"ha":1000,"x_min":28,"x_max":972,"o":"m 790 378 l 235 378 l 235 82 l 53 82 l 53 694 l 28 722 l 235 722 l 235 474 l 790 474 l 790 694 l 765 722 l 972 722 l 972 82 l 790 82 l 790 378 z "},"I":{"ha":263,"x_min":28,"x_max":235,"o":"m 53 694 l 28 722 l 235 722 l 235 82 l 53 82 l 53 694 z "},"J":{"ha":975,"x_min":28,"x_max":947,"o":"m 78 82 q 51 76 65 82 q 28 54 36 71 l 28 179 l 765 179 l 765 696 l 740 724 l 947 724 l 947 82 l 78 82 l 78 82 z "},"K":{"ha":993,"x_min":28,"x_max":965,"o":"m 53 694 l 28 722 l 235 722 l 235 454 l 946 722 l 946 571 q 928 597 939 589 q 896 600 917 606 l 564 478 l 965 82 l 750 82 l 411 422 l 235 357 l 235 82 l 53 82 l 53 694 z "},"L":{"ha":1000,"x_min":28,"x_max":972,"o":"m 54 696 l 28 724 l 236 724 l 236 179 l 972 179 l 972 54 q 950 76 965 71 q 922 82 935 82 l 54 82 l 54 696 z "},"M":{"ha":1185,"x_min":28,"x_max":1157,"o":"m 369 582 l 208 82 l 28 82 l 233 694 l 208 722 l 440 722 l 594 258 l 742 694 l 717 722 l 944 722 l 1157 82 l 1032 82 l 875 578 l 717 82 l 528 82 l 369 582 z "},"N":{"ha":999,"x_min":28,"x_max":971,"o":"m 790 82 l 790 626 l 233 626 l 233 82 l 53 82 l 53 696 l 28 724 l 971 724 l 971 82 l 790 82 z "},"O":{"ha":1060,"x_min":28,"x_max":1032,"o":"m 53 696 l 28 724 l 1032 724 l 1032 82 l 53 82 l 53 696 m 235 628 l 235 179 l 850 179 l 850 628 l 235 628 z "},"P":{"ha":1000,"x_min":28,"x_max":972,"o":"m 972 283 q 950 307 965 301 q 922 313 935 313 l 235 313 l 235 82 l 54 82 l 54 696 l 28 724 l 972 724 l 972 283 m 235 408 l 792 408 l 792 626 l 235 626 l 235 408 z "},"Q":{"ha":1169,"x_min":28,"x_max":1142,"o":"m 1142 96 q 1118 135 1133 125 q 1092 151 1103 144 l 1033 174 l 1033 82 l 54 82 l 54 696 l 28 724 l 1033 724 l 1033 285 l 1142 247 l 1142 96 m 235 628 l 235 179 l 851 179 l 851 246 l 707 303 l 707 400 l 851 349 l 851 628 l 235 628 z "},"R":{"ha":1015,"x_min":28,"x_max":988,"o":"m 53 696 l 28 724 l 972 724 l 972 340 q 949 363 964 357 q 921 369 935 369 l 732 369 l 988 82 l 779 82 l 536 369 l 235 369 l 235 82 l 53 82 l 53 696 m 235 465 l 790 465 l 790 626 l 235 626 l 235 465 z "},"S":{"ha":1000,"x_min":28,"x_max":972,"o":"m 53 696 l 28 724 l 972 724 l 972 599 q 950 622 965 617 q 922 626 935 626 l 235 626 l 235 465 l 972 465 l 972 54 q 950 76 965 71 q 922 81 935 81 l 53 81 l 53 203 l 97 179 l 790 179 l 790 368 l 53 368 l 53 696 z "},"T":{"ha":974,"x_min":28,"x_max":946,"o":"m 392 626 l 28 626 l 28 747 l 71 724 l 946 724 l 946 599 q 924 622 939 617 q 896 626 908 626 l 572 626 l 572 82 l 392 82 l 392 626 z "},"U":{"ha":1000,"x_min":28,"x_max":972,"o":"m 53 696 l 28 724 l 235 724 l 235 179 l 790 179 l 790 696 l 765 724 l 972 724 l 972 54 q 950 76 965 71 q 922 81 935 81 l 53 81 l 53 696 z "},"V":{"ha":982,"x_min":28,"x_max":954,"o":"m 65 690 l 28 724 l 244 724 l 535 147 l 833 724 l 954 724 l 625 82 l 368 82 l 65 690 z "},"W":{"ha":1221,"x_min":28,"x_max":1193,"o":"m 514 724 l 751 724 l 921 224 l 1068 724 l 1193 724 l 993 82 l 797 82 l 632 547 l 488 82 l 292 82 l 74 690 l 28 724 l 243 724 l 415 221 l 556 690 l 514 724 z "},"X":{"ha":981,"x_min":28,"x_max":953,"o":"m 219 82 l 36 82 l 390 399 l 94 690 l 28 724 l 303 724 l 517 513 l 753 724 l 939 724 l 604 425 l 953 82 l 713 82 l 478 313 l 219 82 z "},"Y":{"ha":951,"x_min":28,"x_max":924,"o":"m 394 385 l 94 689 l 28 724 l 288 724 l 499 508 l 738 724 l 924 724 l 575 406 l 575 82 l 394 82 l 394 385 z "},"Z":{"ha":997,"x_min":28,"x_max":969,"o":"m 969 54 q 948 76 964 71 q 919 81 932 81 l 28 81 l 28 179 l 675 626 l 51 626 l 51 747 l 94 724 l 969 724 l 969 628 l 329 179 l 969 179 l 969 54 z "},"[":{"ha":329,"x_min":28,"x_max":301,"o":"m 301 82 l 28 82 l 28 864 l 301 864 l 301 767 l 208 767 l 208 178 l 301 178 l 301 82 z "},"\\":{"ha":586,"x_min":28,"x_max":558,"o":"m 224 917 l 558 82 l 363 82 l 28 917 l 224 917 z "},"]":{"ha":329,"x_min":28,"x_max":301,"o":"m 28 864 l 301 864 l 301 82 l 28 82 l 28 178 l 122 178 l 122 767 l 28 767 l 28 864 z "},"_":{"ha":1153,"x_min":28,"x_max":1125,"o":"m 28 178 l 1125 178 l 1125 82 l 28 82 l 28 178 z "},"a":{"ha":1060,"x_min":28,"x_max":1032,"o":"m 53 471 l 28 497 l 963 497 l 963 189 l 1032 81 l 840 81 l 786 157 l 736 81 l 53 81 l 53 471 m 233 401 l 233 176 l 781 176 l 781 401 l 233 401 z "},"b":{"ha":1004,"x_min":28,"x_max":976,"o":"m 54 694 l 28 722 l 236 722 l 236 497 l 976 497 l 976 81 l 54 81 l 54 694 m 236 401 l 236 176 l 796 176 l 796 401 l 236 401 z "},"c":{"ha":989,"x_min":28,"x_max":961,"o":"m 53 472 l 28 499 l 961 499 l 961 374 q 940 397 956 392 q 911 403 924 403 l 235 403 l 235 178 l 961 178 l 961 54 q 940 76 956 71 q 911 81 924 81 l 53 81 l 53 472 z "},"d":{"ha":1026,"x_min":28,"x_max":999,"o":"m 817 694 l 792 722 l 999 722 l 999 81 l 50 81 l 50 469 l 28 497 l 817 497 l 817 694 m 231 176 l 817 176 l 817 401 l 231 401 l 231 176 z "},"e":{"ha":989,"x_min":28,"x_max":961,"o":"m 961 53 q 939 75 954 69 q 911 81 924 81 l 53 81 l 53 472 l 28 499 l 961 499 l 961 222 q 939 245 954 240 q 911 250 924 250 l 235 250 l 235 178 l 961 178 l 961 53 m 235 347 l 781 347 l 781 403 l 235 403 l 235 347 z "},"f":{"ha":929,"x_min":28,"x_max":901,"o":"m 901 325 q 880 348 896 343 q 851 353 864 353 l 358 353 l 358 81 l 176 81 l 176 353 l 28 353 l 28 450 l 176 450 l 176 694 l 151 722 l 901 722 l 901 597 q 880 620 896 615 q 851 625 864 625 l 358 625 l 358 450 l 901 450 l 901 325 z "},"g":{"ha":989,"x_min":28,"x_max":961,"o":"m 54 471 l 28 497 l 961 497 l 961 -219 q 940 -198 956 -203 q 911 -193 924 -193 l 54 -193 l 54 -72 l 99 -96 l 781 -96 l 781 81 l 54 81 l 54 471 m 235 176 l 781 176 l 781 401 l 235 401 l 235 176 z "},"h":{"ha":1000,"x_min":28,"x_max":972,"o":"m 53 694 l 28 722 l 235 722 l 235 474 l 972 474 l 972 81 l 790 81 l 790 376 l 235 376 l 235 81 l 53 81 l 53 694 z "},"i":{"ha":263,"x_min":28,"x_max":235,"o":"m 54 694 l 28 722 l 235 722 l 235 558 l 54 558 l 54 694 m 54 474 l 235 474 l 235 81 l 54 81 l 54 474 z "},"j":{"ha":485,"x_min":28,"x_max":457,"o":"m 78 -193 q 50 -198 65 -193 q 28 -219 35 -203 l 28 -96 l 275 -96 l 275 474 l 457 474 l 457 -193 l 78 -193 m 275 694 l 250 722 l 457 722 l 457 558 l 275 558 l 275 694 z "},"k":{"ha":993,"x_min":28,"x_max":965,"o":"m 54 694 l 28 722 l 235 722 l 235 400 l 947 624 l 947 472 q 928 498 940 490 q 897 500 917 506 l 624 418 l 965 81 l 751 81 l 463 371 l 235 303 l 235 81 l 54 81 l 54 694 z "},"l":{"ha":261,"x_min":28,"x_max":233,"o":"m 53 694 l 28 722 l 233 722 l 233 81 l 53 81 l 53 694 z "},"m":{"ha":1210,"x_min":28,"x_max":1182,"o":"m 1001 401 l 710 401 l 708 81 l 528 81 l 528 401 l 235 401 l 233 81 l 53 81 l 53 471 l 28 497 l 528 497 l 615 414 l 710 497 l 1182 497 l 1182 81 l 1001 81 l 1001 401 z "},"n":{"ha":1000,"x_min":28,"x_max":972,"o":"m 790 81 l 790 401 l 235 401 l 235 81 l 53 81 l 53 471 l 28 499 l 972 499 l 972 81 l 790 81 z "},"o":{"ha":1060,"x_min":28,"x_max":1032,"o":"m 54 471 l 28 499 l 1032 499 l 1032 82 l 54 82 l 54 471 m 235 401 l 235 178 l 851 178 l 851 401 l 235 401 z "},"p":{"ha":999,"x_min":28,"x_max":971,"o":"m 971 60 q 949 82 964 76 q 919 88 933 88 l 233 88 l 233 -190 l 53 -190 l 53 472 l 28 499 l 971 499 l 971 60 m 233 185 l 790 185 l 790 401 l 233 401 l 233 185 z "},"q":{"ha":1022,"x_min":28,"x_max":994,"o":"m 51 464 l 28 499 l 994 499 l 969 472 l 969 -190 l 789 -190 l 789 88 l 101 88 q 73 82 89 88 q 51 60 57 76 l 51 464 m 232 185 l 789 185 l 789 401 l 232 401 l 232 185 z "},"r":{"ha":824,"x_min":28,"x_max":796,"o":"m 54 471 l 28 499 l 235 499 l 235 386 l 796 499 l 796 354 q 774 376 789 371 q 746 382 758 382 l 235 288 l 235 81 l 54 81 l 54 471 z "},"s":{"ha":1000,"x_min":28,"x_max":972,"o":"m 53 542 l 28 568 l 972 568 l 972 443 q 950 467 965 461 q 922 472 935 472 l 235 472 l 235 381 l 972 381 l 972 54 q 950 76 965 71 q 922 82 935 82 l 53 82 l 53 203 l 97 179 l 790 179 l 790 283 l 53 283 l 53 542 z "},"t":{"ha":974,"x_min":28,"x_max":946,"o":"m 944 54 q 922 76 938 71 q 894 81 907 81 l 238 81 l 238 472 l 28 472 l 28 593 l 72 568 l 238 568 l 238 663 l 213 690 l 418 690 l 418 568 l 946 568 l 946 443 q 924 467 939 461 q 896 472 908 472 l 418 472 l 418 179 l 944 179 l 944 54 z "},"u":{"ha":1000,"x_min":28,"x_max":972,"o":"m 53 542 l 28 568 l 235 568 l 235 179 l 790 179 l 790 542 l 765 568 l 972 568 l 972 54 q 950 76 965 71 q 922 82 935 82 l 53 82 l 53 542 z "},"v":{"ha":983,"x_min":28,"x_max":956,"o":"m 67 533 l 28 568 l 253 568 l 536 142 l 826 568 l 956 568 l 626 81 l 368 81 l 67 533 z "},"w":{"ha":1222,"x_min":28,"x_max":1194,"o":"m 514 568 l 753 568 l 922 190 l 1069 568 l 1194 568 l 993 81 l 799 81 l 633 435 l 489 81 l 293 81 l 75 533 l 28 568 l 246 568 l 417 183 l 557 533 l 514 568 z "},"x":{"ha":953,"x_min":28,"x_max":925,"o":"m 590 336 l 925 81 l 699 81 l 468 253 l 219 81 l 36 81 l 379 318 l 93 533 l 28 568 l 289 568 l 503 404 l 739 568 l 925 568 l 590 336 z "},"y":{"ha":911,"x_min":28,"x_max":883,"o":"m 325 -190 l 147 -190 l 404 165 l 94 535 l 28 568 l 289 568 l 504 301 l 697 568 l 883 568 l 325 -190 z "},"z":{"ha":997,"x_min":28,"x_max":969,"o":"m 969 54 q 947 76 961 71 q 918 81 932 81 l 28 81 l 28 179 l 578 403 l 50 403 l 50 524 l 94 500 l 969 500 l 969 404 l 425 179 l 969 179 l 969 54 z "},"|":{"ha":236,"x_min":28,"x_max":208,"o":"m 208 82 l 28 82 l 28 917 l 208 917 l 208 82 z "},"~":{"ha":844,"x_min":28,"x_max":817,"o":"m 817 589 l 817 492 l 554 422 l 292 492 l 28 422 l 28 519 l 292 589 l 554 519 l 817 589 z "},"":{"ha":694,"x_min":0,"x_max":0,"o":""}," ":{"ha":694,"x_min":0,"x_max":0,"o":""},"©":{"ha":694,"x_min":0,"x_max":689,"o":"m 347 911 q 515 865 433 911 q 643 735 597 819 q 689 565 689 651 q 646 394 689 478 q 518 263 603 310 q 344 217 433 217 q 174 263 256 217 q 46 394 92 310 q 0 565 0 478 q 46 735 0 651 q 176 865 92 819 q 347 911 261 911 m 342 879 q 190 838 265 879 q 73 722 114 797 q 32 565 32 646 q 73 410 32 483 q 190 293 114 336 q 344 250 265 250 q 499 293 424 250 q 616 410 575 336 q 657 565 657 483 q 616 722 657 646 q 499 838 575 797 q 342 879 424 879 m 515 786 l 526 646 l 510 646 q 450 738 488 711 q 361 760 413 765 q 263 719 310 754 q 201 635 217 683 q 193 529 185 586 q 247 426 201 472 q 364 379 293 379 q 515 456 461 379 l 532 444 q 347 347 467 347 q 188 410 250 347 q 125 562 125 472 q 179 714 125 651 q 296 787 233 776 q 399 789 358 797 q 464 759 439 781 q 494 749 489 738 q 499 786 499 760 l 515 786 z "},"ª":{"ha":694,"x_min":-6,"x_max":379,"o":"m 233 906 q 215 1001 233 976 q 158 1022 196 1025 q 108 1001 119 1019 q 100 958 97 982 q 90 919 103 933 q 57 906 76 906 q 24 919 38 906 q 14 963 11 933 q 54 1023 17 993 q 165 1050 92 1053 q 272 1026 239 1047 q 315 980 304 1004 q 325 906 325 956 l 325 717 q 331 700 325 706 l 342 700 q 379 717 353 700 l 379 683 q 315 643 331 651 q 282 635 299 635 q 252 649 265 635 q 233 700 239 663 q 152 654 190 668 q 81 640 114 640 q 22 665 49 640 q -6 722 -6 689 q 11 784 -6 754 q 74 844 28 814 q 233 906 119 874 m 233 879 q 122 819 151 851 q 92 754 92 786 q 108 713 92 732 q 151 694 125 694 q 187 703 168 694 q 233 726 206 711 l 233 879 z "},"«":{"ha":694,"x_min":43,"x_max":651,"o":"m 347 97 l 304 97 l 43 418 l 304 738 l 347 738 l 179 418 l 347 97 m 651 97 l 613 97 l 347 418 l 613 738 l 651 738 l 489 418 l 651 97 z "},"¬":{"ha":694,"x_min":28,"x_max":694,"o":"m 694 700 l 694 424 l 640 424 l 640 646 l 28 646 l 28 700 l 694 700 z "},"­":{"ha":694,"x_min":54,"x_max":407,"o":"m 54 467 l 407 467 l 407 364 l 54 364 l 54 467 z "},"®":{"ha":694,"x_min":0,"x_max":694,"o":"m 358 911 q 526 868 444 911 q 651 738 608 825 q 692 556 694 651 q 646 383 689 461 q 518 260 603 304 q 347 217 433 217 q 174 263 261 217 q 43 394 86 310 q 0 562 0 478 q 46 735 0 646 q 182 868 92 825 q 358 911 272 911 m 353 879 q 195 838 276 879 q 73 724 114 797 q 30 567 32 651 q 71 404 28 483 q 190 288 114 325 q 347 250 265 250 q 508 288 429 250 q 622 404 586 325 q 657 562 657 483 q 622 719 657 640 q 508 838 586 797 q 353 879 429 879 m 151 781 l 342 781 q 451 746 413 781 q 489 670 489 711 q 461 605 489 629 q 375 558 433 581 l 483 418 q 515 369 500 386 l 543 369 l 543 353 l 444 353 l 304 549 l 271 549 l 271 401 q 285 374 271 379 q 331 369 299 369 l 331 353 l 146 353 l 146 369 q 182 372 174 369 q 196 389 190 375 q 201 433 201 400 l 201 694 q 199 740 201 726 q 188 757 196 754 q 151 760 179 760 l 151 781 m 271 575 q 353 583 331 575 q 391 616 375 592 q 407 670 407 640 q 380 727 407 700 q 325 754 353 754 l 271 754 l 271 575 z "},"¯":{"ha":694,"x_min":0,"x_max":694,"o":"m 0 1096 l 0 1156 l 694 1156 l 694 1096 l 0 1096 z "},"²":{"ha":694,"x_min":17,"x_max":390,"o":"m 347 553 l 17 553 l 17 575 q 239 786 179 706 q 271 881 271 835 q 241 955 271 928 q 171 982 211 982 q 103 963 131 982 q 60 900 76 944 l 28 900 q 82 1003 39 965 q 195 1042 125 1042 q 309 1003 265 1042 q 353 919 353 965 q 312 808 353 874 q 125 618 271 743 l 250 618 q 328 626 310 618 q 358 657 347 635 l 390 657 l 347 553 z "},"³":{"ha":694,"x_min":32,"x_max":353,"o":"m 38 939 q 98 1015 60 988 q 196 1042 136 1042 q 290 1012 256 1042 q 325 939 325 982 q 256 840 325 896 q 328 786 304 818 q 353 700 353 754 q 296 594 353 646 q 131 543 239 543 q 51 559 71 543 q 32 586 32 575 q 43 608 32 597 q 70 618 54 618 q 124 602 86 618 q 192 586 163 586 q 249 613 222 586 q 276 673 276 640 q 260 733 276 706 q 209 773 244 760 q 119 786 174 786 l 119 808 q 209 838 174 808 q 244 906 244 868 q 223 966 244 944 q 152 988 201 988 q 60 928 103 988 l 38 939 z "},"´":{"ha":694,"x_min":163,"x_max":385,"o":"m 385 1047 l 185 814 l 163 814 l 233 1047 l 385 1047 z "},"µ":{"ha":694,"x_min":92,"x_max":743,"o":"m 228 825 l 228 433 q 239 328 228 347 q 280 301 250 310 q 372 304 310 293 q 499 390 433 315 l 499 825 l 592 825 l 592 413 q 605 307 592 326 q 648 290 618 288 q 692 312 678 293 q 717 375 706 331 l 743 375 q 700 266 738 299 q 608 233 663 233 q 528 260 553 233 q 499 347 504 288 q 393 255 444 282 q 296 228 342 228 q 228 239 250 228 q 185 282 206 250 q 195 135 185 206 q 203 38 206 65 q 185 -10 201 11 q 147 -32 168 -32 q 108 -13 125 -32 q 92 33 92 6 q 108 125 92 60 q 131 231 125 190 q 136 364 136 271 l 136 825 l 228 825 z "},"¶":{"ha":694,"x_min":-11,"x_max":629,"o":"m 543 988 l 543 -196 l 493 -196 l 493 988 l 364 988 l 364 -196 l 315 -196 l 315 510 q 122 545 185 515 q 24 635 60 575 q -11 771 -11 694 q 22 890 -11 847 q 125 990 60 956 q 299 1025 190 1025 l 629 1025 l 629 988 l 543 988 z "},"·":{"ha":1389,"x_min":531,"x_max":857,"o":"m 613 358 q 531 494 531 396 q 613 635 532 592 q 776 632 694 678 q 851 491 857 586 q 770 358 846 396 q 613 358 694 321 z "},"¸":{"ha":694,"x_min":125,"x_max":336,"o":"m 288 114 l 250 60 q 315 24 293 49 q 336 -43 336 0 q 296 -122 336 -86 q 211 -157 256 -157 l 125 -157 l 125 -125 q 172 -131 147 -131 q 220 -106 196 -131 q 244 -57 244 -82 q 228 -19 244 -32 q 194 -6 211 -6 l 168 -6 l 244 114 l 288 114 z "},"¹":{"ha":694,"x_min":92,"x_max":325,"o":"m 233 1042 l 256 1042 l 256 640 q 258 594 256 603 q 272 581 261 586 q 325 575 282 575 l 325 553 l 103 553 l 103 575 q 157 581 146 575 q 171 594 168 586 q 174 640 174 603 l 174 896 q 171 958 174 944 q 152 974 168 971 q 103 965 136 976 l 92 982 l 233 1042 z "},"º":{"ha":694,"x_min":22,"x_max":413,"o":"m 222 1042 q 358 985 304 1042 q 413 846 413 928 q 353 700 413 760 q 211 640 293 640 q 76 694 129 640 q 22 836 22 749 q 76 985 22 928 q 222 1042 131 1042 m 201 1014 q 142 985 169 1014 q 114 885 114 956 q 163 711 114 782 q 233 672 190 674 q 295 702 271 672 q 319 797 319 732 q 271 971 319 906 q 201 1014 244 1014 z "},"»":{"ha":694,"x_min":43,"x_max":651,"o":"m 353 738 l 390 738 l 651 418 l 390 97 l 353 97 l 515 418 l 353 738 m 43 738 l 82 738 l 353 418 l 82 97 l 43 97 l 206 418 l 43 738 z "},"¼":{"ha":694,"x_min":38,"x_max":689,"o":"m 142 1042 l 157 1042 l 157 640 q 163 589 157 603 q 211 575 168 575 l 211 553 l 54 553 l 54 575 q 94 589 86 575 q 103 640 103 603 l 103 896 q 100 958 103 944 q 94 974 97 971 q 81 976 92 976 q 54 965 71 976 l 38 982 l 142 1042 m 592 1042 l 151 71 l 108 71 l 543 1042 l 592 1042 m 689 256 l 689 201 l 635 201 l 635 76 l 586 76 l 586 201 l 418 201 l 418 250 l 597 564 l 635 564 l 635 256 l 689 256 m 586 256 l 586 472 l 461 256 l 586 256 z "},"½":{"ha":694,"x_min":38,"x_max":694,"o":"m 136 1042 l 157 1042 l 157 640 q 163 589 157 603 q 201 575 168 575 l 201 553 l 43 553 l 43 575 q 89 586 81 575 q 97 640 97 597 l 97 896 q 94 958 97 944 q 78 974 92 971 q 43 965 65 976 l 38 982 l 136 1042 m 581 1042 l 136 71 l 92 71 l 538 1042 l 581 1042 m 663 76 l 424 76 l 424 97 q 562 290 521 211 q 603 410 603 369 q 581 477 603 450 q 531 504 558 504 q 485 485 504 504 q 456 424 467 467 l 433 424 q 469 526 439 489 q 549 564 499 564 q 635 526 603 564 q 667 442 667 489 q 635 331 667 396 q 493 142 603 265 l 586 142 q 649 149 635 142 q 667 179 663 157 l 694 179 l 663 76 z "},"¾":{"ha":694,"x_min":43,"x_max":694,"o":"m 592 1042 l 179 71 l 136 71 l 553 1042 l 592 1042 m 49 939 l 65 928 q 125 988 93 988 q 171 966 157 988 q 185 906 185 944 q 160 838 185 868 q 103 808 136 808 l 103 786 q 181 754 157 786 q 206 681 206 722 q 187 613 206 640 q 147 586 168 586 q 103 602 125 586 q 68 618 82 618 q 49 608 54 618 q 43 586 43 597 q 57 559 43 575 q 108 543 71 543 q 217 594 179 543 q 256 700 256 646 q 239 787 256 754 q 196 840 222 819 q 239 938 239 894 q 217 1012 239 982 q 155 1042 196 1042 q 90 1015 114 1042 q 49 939 65 988 m 694 256 l 694 201 l 646 201 l 646 76 l 592 76 l 592 201 l 439 201 l 439 250 l 608 564 l 646 564 l 646 256 l 694 256 m 592 256 l 592 472 l 478 256 l 592 256 z "},"¿":{"ha":694,"x_min":86,"x_max":564,"o":"m 319 831 q 371 808 351 831 q 390 759 390 786 q 372 708 390 732 q 323 683 353 683 q 274 708 293 683 q 256 759 256 732 q 274 808 256 786 q 319 831 292 831 m 342 629 q 326 507 336 553 q 260 353 315 461 q 206 171 206 244 q 247 54 206 97 q 350 11 288 11 q 448 33 413 11 q 483 81 483 54 q 461 138 483 108 q 439 190 439 168 q 456 228 439 211 q 494 244 472 244 q 540 217 515 244 q 564 133 564 190 q 501 22 564 76 q 328 -32 439 -32 q 151 25 217 -32 q 86 149 86 82 q 111 268 86 217 q 203 393 136 319 q 290 513 271 467 q 315 629 310 558 l 342 629 z "},"À":{"ha":694,"x_min":6,"x_max":663,"o":"m 331 1193 l 390 999 l 375 999 l 201 1193 l 331 1193 m 433 375 l 190 375 l 142 168 q 141 90 131 119 q 190 60 151 60 l 206 60 l 206 28 l 6 28 l 6 60 l 22 60 q 60 73 44 60 q 82 119 76 86 l 293 950 l 375 976 l 581 119 q 608 74 592 88 q 646 60 624 60 l 663 60 l 663 28 l 429 28 l 429 60 l 450 60 q 490 78 482 60 q 489 136 499 97 l 433 375 m 319 857 l 315 857 l 201 407 l 429 407 l 319 857 z "},"Á":{"ha":694,"x_min":6,"x_max":663,"o":"m 450 1193 l 276 999 l 261 999 l 319 1193 l 450 1193 m 433 375 l 190 375 l 142 168 q 141 90 131 119 q 190 60 151 60 l 206 60 l 206 28 l 6 28 l 6 60 l 22 60 q 60 73 44 60 q 82 119 76 86 l 293 950 l 375 976 l 581 119 q 608 74 592 88 q 646 60 624 60 l 663 60 l 663 28 l 429 28 l 429 60 l 450 60 q 490 78 482 60 q 489 136 499 97 l 433 375 m 319 857 l 315 857 l 201 407 l 429 407 l 319 857 z "},"Â":{"ha":694,"x_min":6,"x_max":663,"o":"m 390 1193 l 515 999 l 489 999 l 331 1118 l 185 999 l 157 999 l 293 1193 l 390 1193 m 433 375 l 190 375 l 142 168 q 141 90 131 119 q 190 60 151 60 l 206 60 l 206 28 l 6 28 l 6 60 l 22 60 q 60 73 44 60 q 82 119 76 86 l 293 950 l 375 976 l 581 119 q 608 74 592 88 q 646 60 624 60 l 663 60 l 663 28 l 429 28 l 429 60 l 450 60 q 490 78 482 60 q 489 136 499 97 l 433 375 m 319 857 l 315 857 l 201 407 l 429 407 l 319 857 z "},"Ã":{"ha":694,"x_min":6,"x_max":663,"o":"m 168 1053 q 195 1158 168 1129 q 255 1188 222 1188 q 312 1177 288 1188 q 388 1140 336 1167 q 461 1113 439 1113 q 494 1126 483 1113 q 515 1188 504 1139 l 526 1188 q 513 1109 526 1133 q 474 1069 499 1085 q 413 1053 450 1053 q 310 1090 375 1053 q 231 1128 244 1128 q 206 1115 217 1128 q 185 1053 196 1101 l 168 1053 m 433 375 l 190 375 l 142 168 q 141 90 131 119 q 190 60 151 60 l 206 60 l 206 28 l 6 28 l 6 60 l 22 60 q 60 73 44 60 q 82 119 76 86 l 293 950 l 375 976 l 581 119 q 608 74 592 88 q 646 60 624 60 l 663 60 l 663 28 l 429 28 l 429 60 l 450 60 q 490 78 482 60 q 489 136 499 97 l 433 375 m 319 857 l 315 857 l 201 407 l 429 407 l 319 857 z "},"Ä":{"ha":694,"x_min":6,"x_max":663,"o":"m 233 1193 q 288 1172 265 1193 q 310 1120 310 1150 q 288 1069 310 1090 q 235 1047 265 1047 q 184 1069 206 1047 q 163 1120 163 1090 q 184 1172 163 1150 q 233 1193 206 1193 m 456 1193 q 510 1172 488 1193 q 532 1120 532 1150 q 510 1069 532 1090 q 459 1047 489 1047 q 407 1069 429 1047 q 385 1120 385 1090 q 406 1172 385 1150 q 456 1193 428 1193 m 433 375 l 190 375 l 142 168 q 141 90 131 119 q 190 60 151 60 l 206 60 l 206 28 l 6 28 l 6 60 l 22 60 q 60 73 44 60 q 82 119 76 86 l 293 950 l 375 976 l 581 119 q 608 74 592 88 q 646 60 624 60 l 663 60 l 663 28 l 429 28 l 429 60 l 450 60 q 490 78 482 60 q 489 136 499 97 l 433 375 m 319 857 l 315 857 l 201 407 l 429 407 l 319 857 z "},"Å":{"ha":694,"x_min":6,"x_max":663,"o":"m 347 1193 q 420 1163 390 1193 q 450 1090 450 1133 q 420 1017 450 1047 q 347 988 390 988 q 274 1017 304 988 q 244 1090 244 1047 q 274 1163 244 1133 q 347 1193 304 1193 m 293 1144 q 271 1093 271 1122 q 293 1039 271 1064 q 345 1014 315 1014 q 397 1039 375 1014 q 418 1096 418 1064 q 394 1147 418 1128 q 342 1167 369 1167 q 293 1144 315 1167 m 433 375 l 190 375 l 142 168 q 141 90 131 119 q 190 60 151 60 l 206 60 l 206 28 l 6 28 l 6 60 l 22 60 q 60 73 44 60 q 82 119 76 86 l 293 950 l 375 976 l 581 119 q 608 74 592 88 q 646 60 624 60 l 663 60 l 663 28 l 429 28 l 429 60 l 450 60 q 490 78 482 60 q 489 136 499 97 l 433 375 m 319 857 l 315 857 l 201 407 l 429 407 l 319 857 z "},"Æ":{"ha":694,"x_min":6,"x_max":694,"o":"m 407 543 l 510 543 q 561 559 547 538 q 575 672 575 581 l 597 672 l 597 353 l 575 353 q 569 445 575 424 q 551 478 564 467 q 510 489 538 489 l 407 489 l 407 185 q 410 101 407 119 q 450 82 413 82 l 521 82 q 583 95 564 82 q 629 142 603 108 q 678 265 651 190 l 694 265 l 646 28 l 261 28 l 261 60 l 271 60 q 322 84 314 60 q 331 196 331 108 l 331 396 l 185 396 l 136 233 q 98 111 104 136 q 97 76 92 86 q 168 60 103 65 l 168 28 l 6 28 l 6 60 q 35 71 22 60 q 63 112 49 82 q 97 222 76 142 l 256 743 q 280 870 278 840 q 272 911 282 900 q 217 928 261 922 l 217 956 l 640 956 l 646 754 l 629 754 q 613 852 624 819 q 589 895 603 885 q 532 906 575 906 l 407 906 l 407 543 m 196 439 l 331 439 l 331 906 l 196 439 z "},"Ç":{"ha":694,"x_min":49,"x_max":683,"o":"m 663 663 l 646 663 q 556 849 614 793 q 420 906 499 906 q 282 865 342 906 q 195 724 222 825 q 168 497 168 624 q 195 280 168 369 q 285 144 222 190 q 423 97 347 97 q 548 138 499 97 q 663 288 597 179 l 683 271 q 550 97 618 151 q 415 43 493 50 l 407 22 q 453 -13 435 11 q 472 -81 472 -37 q 442 -160 472 -125 q 353 -196 413 -196 l 304 -196 l 304 -162 q 337 -168 315 -168 q 380 -144 358 -168 q 401 -95 401 -119 q 388 -57 401 -71 q 361 -43 375 -43 l 336 -43 l 383 43 q 119 206 208 46 q 49 483 49 319 q 95 722 49 614 q 223 893 142 831 q 394 956 304 956 q 529 926 483 956 q 586 896 575 896 q 605 912 597 896 q 624 956 613 928 l 646 956 l 663 663 z "},"È":{"ha":694,"x_min":32,"x_max":646,"o":"m 310 1193 l 379 993 l 358 993 l 157 1193 l 310 1193 m 38 922 l 38 956 l 569 956 l 629 771 l 603 760 q 510 882 560 842 q 401 922 461 922 l 250 922 q 215 911 228 922 q 201 879 201 900 l 201 543 l 358 543 q 437 570 413 543 q 461 651 461 597 l 461 683 l 493 683 l 493 364 l 461 364 l 461 385 q 437 477 461 444 q 358 510 413 510 l 201 510 l 201 103 q 215 70 201 81 q 250 60 228 60 l 390 60 q 529 106 472 60 q 618 250 586 151 l 646 239 l 586 28 l 32 28 l 32 60 l 65 60 q 103 71 93 60 q 114 103 114 82 l 114 879 q 103 912 114 901 q 65 922 92 922 l 38 922 z "},"É":{"ha":694,"x_min":32,"x_max":646,"o":"m 504 1193 l 304 993 l 282 993 l 353 1193 l 504 1193 m 38 922 l 38 956 l 569 956 l 629 771 l 603 760 q 510 882 560 842 q 401 922 461 922 l 250 922 q 215 911 228 922 q 201 879 201 900 l 201 543 l 358 543 q 437 570 413 543 q 461 651 461 597 l 461 683 l 493 683 l 493 364 l 461 364 l 461 385 q 437 477 461 444 q 358 510 413 510 l 201 510 l 201 103 q 215 70 201 81 q 250 60 228 60 l 390 60 q 529 106 472 60 q 618 250 586 151 l 646 239 l 586 28 l 32 28 l 32 60 l 65 60 q 103 71 93 60 q 114 103 114 82 l 114 879 q 103 912 114 901 q 65 922 92 922 l 38 922 z "},"Ê":{"ha":694,"x_min":32,"x_max":646,"o":"m 385 1193 l 504 993 l 478 993 l 315 1124 l 168 993 l 146 993 l 261 1193 l 385 1193 m 38 922 l 38 956 l 569 956 l 629 771 l 603 760 q 510 882 560 842 q 401 922 461 922 l 250 922 q 215 911 228 922 q 201 879 201 900 l 201 543 l 358 543 q 437 570 413 543 q 461 651 461 597 l 461 683 l 493 683 l 493 364 l 461 364 l 461 385 q 437 477 461 444 q 358 510 413 510 l 201 510 l 201 103 q 215 70 201 81 q 250 60 228 60 l 390 60 q 529 106 472 60 q 618 250 586 151 l 646 239 l 586 28 l 32 28 l 32 60 l 65 60 q 103 71 93 60 q 114 103 114 82 l 114 879 q 103 912 114 901 q 65 922 92 922 l 38 922 z "},"Ë":{"ha":694,"x_min":32,"x_max":646,"o":"m 433 1193 q 488 1172 465 1193 q 510 1120 510 1150 q 488 1069 510 1090 q 437 1047 467 1047 q 385 1069 407 1047 q 364 1120 364 1090 q 385 1172 364 1150 q 433 1193 406 1193 m 211 1193 q 265 1172 243 1193 q 288 1120 288 1150 q 266 1069 288 1090 q 215 1047 244 1047 q 163 1069 185 1047 q 142 1120 142 1090 q 163 1172 142 1150 q 211 1193 183 1193 m 38 922 l 38 956 l 569 956 l 629 771 l 603 760 q 510 882 560 842 q 401 922 461 922 l 250 922 q 215 911 228 922 q 201 879 201 900 l 201 543 l 358 543 q 437 570 413 543 q 461 651 461 597 l 461 683 l 493 683 l 493 364 l 461 364 l 461 385 q 437 477 461 444 q 358 510 413 510 l 201 510 l 201 103 q 215 70 201 81 q 250 60 228 60 l 390 60 q 529 106 472 60 q 618 250 586 151 l 646 239 l 586 28 l 32 28 l 32 60 l 65 60 q 103 71 93 60 q 114 103 114 82 l 114 879 q 103 912 114 901 q 65 922 92 922 l 38 922 z "},"Ì":{"ha":694,"x_min":125,"x_max":558,"o":"m 325 1193 l 390 993 l 369 993 l 174 1193 l 325 1193 m 125 922 l 125 956 l 558 956 l 558 922 l 433 922 q 398 911 411 922 q 385 879 385 900 l 385 103 q 399 69 385 81 q 433 60 411 60 l 558 60 l 558 28 l 125 28 l 125 60 l 250 60 q 288 71 278 60 q 299 103 299 82 l 299 879 q 288 912 299 901 q 250 922 276 922 l 125 922 z "},"Í":{"ha":694,"x_min":125,"x_max":558,"o":"m 299 988 l 276 988 l 347 1193 l 499 1193 l 299 988 m 125 922 l 125 956 l 558 956 l 558 922 l 433 922 q 398 911 411 922 q 385 879 385 900 l 385 103 q 399 69 385 81 q 433 60 411 60 l 558 60 l 558 28 l 125 28 l 125 60 l 250 60 q 288 71 278 60 q 299 103 299 82 l 299 879 q 288 912 299 901 q 250 922 276 922 l 125 922 z "},"Î":{"ha":694,"x_min":125,"x_max":558,"o":"m 413 1193 l 515 1004 l 493 1004 l 342 1128 l 185 1004 l 163 1004 l 288 1193 l 413 1193 m 125 922 l 125 956 l 558 956 l 558 922 l 433 922 q 398 911 411 922 q 385 879 385 900 l 385 103 q 399 69 385 81 q 433 60 411 60 l 558 60 l 558 28 l 125 28 l 125 60 l 250 60 q 288 71 278 60 q 299 103 299 82 l 299 879 q 288 912 299 901 q 250 922 276 922 l 125 922 z "},"Ï":{"ha":694,"x_min":125,"x_max":558,"o":"m 444 1193 q 499 1172 476 1193 q 521 1120 521 1150 q 499 1069 521 1090 q 448 1047 478 1047 q 397 1069 418 1047 q 375 1120 375 1090 q 396 1172 375 1150 q 444 1193 417 1193 m 276 1172 q 299 1120 299 1150 q 277 1069 299 1090 q 226 1047 256 1047 q 174 1069 196 1047 q 151 1120 151 1090 q 174 1172 151 1150 q 225 1194 196 1193 q 276 1172 254 1194 m 125 922 l 125 956 l 558 956 l 558 922 l 433 922 q 398 911 411 922 q 385 879 385 900 l 385 103 q 399 69 385 81 q 433 60 411 60 l 558 60 l 558 28 l 125 28 l 125 60 l 250 60 q 288 71 278 60 q 299 103 299 82 l 299 879 q 288 912 299 901 q 250 922 276 922 l 125 922 z "},"Ð":{"ha":694,"x_min":54,"x_max":678,"o":"m 54 60 l 86 60 q 142 86 135 58 q 151 190 153 114 l 151 493 l 54 493 l 54 543 l 151 543 l 151 797 q 146 900 151 883 q 82 928 129 928 l 54 928 l 54 960 l 315 960 q 522 911 451 960 q 635 754 592 863 q 678 499 678 646 q 594 165 678 303 q 325 28 510 28 l 54 28 l 54 60 m 239 92 q 336 82 299 75 q 513 193 439 82 q 586 493 586 304 q 515 792 586 678 q 336 906 444 906 q 239 896 288 911 l 239 543 l 418 543 l 418 493 l 239 493 l 239 92 z "},"Ñ":{"ha":694,"x_min":6,"x_max":678,"o":"m 163 1053 q 195 1164 163 1135 q 260 1193 228 1193 q 315 1185 293 1193 q 385 1148 336 1178 q 456 1118 433 1118 q 491 1134 478 1118 q 515 1193 504 1150 l 532 1193 q 515 1117 532 1144 q 474 1072 499 1090 q 413 1053 450 1053 q 323 1085 375 1053 q 258 1126 271 1118 q 225 1133 244 1133 q 198 1117 206 1133 q 179 1053 190 1101 l 163 1053 m 543 244 l 553 244 l 553 879 q 542 912 553 901 q 504 922 532 922 l 461 922 l 461 956 l 678 956 l 678 922 l 635 922 q 599 911 613 922 q 586 879 586 900 l 586 28 l 553 28 l 142 836 l 131 836 l 131 103 q 144 70 131 81 q 179 60 157 60 l 222 60 l 222 28 l 6 28 l 6 60 l 49 60 q 87 71 76 60 q 97 103 97 82 l 97 879 q 87 912 97 901 q 49 922 76 922 l 17 922 l 17 956 l 174 956 l 543 244 z "},"Ò":{"ha":694,"x_min":43,"x_max":651,"o":"m 325 1193 l 385 993 l 369 993 l 196 1193 l 325 1193 m 146 493 q 203 154 146 260 q 347 49 261 49 q 494 149 439 49 q 549 493 549 250 q 502 808 549 689 q 347 928 456 928 q 201 819 256 928 q 146 493 146 710 m 651 493 q 565 144 651 271 q 347 17 478 17 q 133 147 222 17 q 43 493 43 276 q 127 835 43 704 q 347 965 211 965 q 570 827 489 965 q 651 493 651 689 z "},"Ó":{"ha":694,"x_min":43,"x_max":651,"o":"m 483 1193 l 310 993 l 293 993 l 353 1193 l 483 1193 m 146 493 q 203 154 146 260 q 347 49 261 49 q 494 149 439 49 q 549 493 549 250 q 502 808 549 689 q 347 928 456 928 q 201 819 256 928 q 146 493 146 710 m 651 493 q 565 144 651 271 q 347 17 478 17 q 133 147 222 17 q 43 493 43 276 q 127 835 43 704 q 347 965 211 965 q 570 827 489 965 q 651 493 651 689 z "},"Ô":{"ha":694,"x_min":43,"x_max":651,"o":"m 396 1193 l 521 982 l 504 982 l 336 1124 l 179 982 l 163 982 l 282 1193 l 396 1193 m 146 493 q 203 154 146 260 q 347 49 261 49 q 494 149 439 49 q 549 493 549 250 q 502 808 549 689 q 347 928 456 928 q 201 819 256 928 q 146 493 146 710 m 651 493 q 565 144 651 271 q 347 17 478 17 q 133 147 222 17 q 43 493 43 276 q 127 835 43 704 q 347 965 211 965 q 570 827 489 965 q 651 493 651 689 z "},"Õ":{"ha":694,"x_min":43,"x_max":651,"o":"m 168 1047 q 201 1161 168 1129 q 266 1193 233 1193 q 320 1185 299 1193 q 390 1145 342 1178 q 461 1113 439 1113 q 497 1128 483 1113 q 521 1193 510 1144 l 538 1193 q 521 1109 538 1139 q 480 1063 504 1079 q 417 1047 456 1047 q 328 1080 379 1047 q 263 1120 276 1113 q 231 1128 250 1128 q 203 1112 211 1128 q 185 1047 196 1096 l 168 1047 m 146 493 q 203 154 146 260 q 347 49 261 49 q 494 149 439 49 q 549 493 549 250 q 502 808 549 689 q 347 928 456 928 q 201 819 256 928 q 146 493 146 710 m 651 493 q 565 144 651 271 q 347 17 478 17 q 133 147 222 17 q 43 493 43 276 q 127 835 43 704 q 347 965 211 965 q 570 827 489 965 q 651 493 651 689 z "},"Ö":{"ha":694,"x_min":43,"x_max":651,"o":"m 472 1193 q 526 1172 504 1193 q 549 1120 549 1150 q 526 1069 549 1090 q 474 1047 504 1047 q 423 1069 444 1047 q 401 1120 401 1090 q 423 1172 401 1150 q 472 1193 444 1193 m 282 1172 q 304 1120 304 1150 q 283 1069 304 1090 q 231 1047 261 1047 q 179 1069 201 1047 q 157 1120 157 1090 q 179 1172 157 1150 q 231 1194 201 1193 q 282 1172 260 1194 m 146 493 q 203 154 146 260 q 347 49 261 49 q 494 149 439 49 q 549 493 549 250 q 502 808 549 689 q 347 928 456 928 q 201 819 256 928 q 146 493 146 710 m 651 493 q 565 144 651 271 q 347 17 478 17 q 133 147 222 17 q 43 493 43 276 q 127 835 43 704 q 347 965 211 965 q 570 827 489 965 q 651 493 651 689 z "},"Ø":{"ha":694,"x_min":43,"x_max":657,"o":"m 543 863 l 608 976 l 635 950 l 569 831 q 629 684 613 760 q 651 499 646 608 q 549 114 657 265 q 353 17 467 17 q 256 35 310 11 q 157 114 201 60 l 97 6 l 71 38 l 131 146 q 43 504 44 288 q 122 830 43 700 q 353 965 201 960 q 543 863 467 965 m 504 797 q 336 928 461 928 q 282 911 308 928 q 217 851 244 889 q 165 708 185 803 q 146 504 146 613 q 174 222 146 353 l 504 797 m 521 749 l 190 168 q 239 97 213 131 q 336 49 299 54 q 417 67 379 49 q 485 133 456 86 q 532 269 515 179 q 549 478 549 358 q 543 635 549 564 q 521 749 532 678 z "},"Ù":{"ha":694,"x_min":17,"x_max":657,"o":"m 347 60 q 486 114 429 60 q 543 250 543 168 l 543 879 q 532 912 543 901 q 493 922 521 922 l 461 922 l 461 956 l 657 956 l 657 922 l 624 922 q 588 911 601 922 q 575 879 575 900 l 575 250 q 502 79 575 142 q 336 17 429 17 q 165 71 239 17 q 92 244 92 125 l 92 879 q 81 912 92 901 q 43 922 71 922 l 17 922 l 17 956 l 256 956 l 256 922 l 228 922 q 192 911 206 922 q 179 879 179 900 l 179 244 q 225 98 179 136 q 347 60 271 60 m 325 1193 l 385 993 l 369 993 l 196 1193 l 325 1193 z "},"Ú":{"ha":694,"x_min":17,"x_max":657,"o":"m 319 993 l 304 993 l 364 1193 l 493 1193 l 319 993 m 347 60 q 486 114 429 60 q 543 250 543 168 l 543 879 q 532 912 543 901 q 493 922 521 922 l 461 922 l 461 956 l 657 956 l 657 922 l 624 922 q 588 911 601 922 q 575 879 575 900 l 575 250 q 502 79 575 142 q 336 17 429 17 q 165 71 239 17 q 92 244 92 125 l 92 879 q 81 912 92 901 q 43 922 71 922 l 17 922 l 17 956 l 256 956 l 256 922 l 228 922 q 192 911 206 922 q 179 879 179 900 l 179 244 q 225 98 179 136 q 347 60 271 60 z "},"Û":{"ha":694,"x_min":17,"x_max":657,"o":"m 401 1193 l 526 1004 l 510 1004 l 342 1128 l 190 1004 l 174 1004 l 299 1193 l 401 1193 m 347 60 q 486 114 429 60 q 543 250 543 168 l 543 879 q 532 912 543 901 q 493 922 521 922 l 461 922 l 461 956 l 657 956 l 657 922 l 624 922 q 588 911 601 922 q 575 879 575 900 l 575 250 q 502 79 575 142 q 336 17 429 17 q 165 71 239 17 q 92 244 92 125 l 92 879 q 81 912 92 901 q 43 922 71 922 l 17 922 l 17 956 l 256 956 l 256 922 l 228 922 q 192 911 206 922 q 179 879 179 900 l 179 244 q 225 98 179 136 q 347 60 271 60 z "},"Ü":{"ha":694,"x_min":17,"x_max":657,"o":"m 478 1193 q 531 1172 510 1193 q 553 1120 553 1150 q 531 1069 553 1090 q 480 1047 510 1047 q 428 1069 450 1047 q 407 1120 407 1090 q 428 1172 407 1150 q 478 1193 450 1193 m 233 1193 q 288 1172 265 1193 q 310 1120 310 1150 q 288 1069 310 1090 q 235 1047 265 1047 q 184 1069 206 1047 q 163 1120 163 1090 q 184 1172 163 1150 q 233 1193 206 1193 m 347 60 q 486 114 429 60 q 543 250 543 168 l 543 879 q 532 912 543 901 q 493 922 521 922 l 461 922 l 461 956 l 657 956 l 657 922 l 624 922 q 588 911 601 922 q 575 879 575 900 l 575 250 q 502 79 575 142 q 336 17 429 17 q 165 71 239 17 q 92 244 92 125 l 92 879 q 81 912 92 901 q 43 922 71 922 l 17 922 l 17 956 l 256 956 l 256 922 l 228 922 q 192 911 206 922 q 179 879 179 900 l 179 244 q 225 98 179 136 q 347 60 271 60 z "},"Ý":{"ha":694,"x_min":28,"x_max":651,"o":"m 315 993 l 299 993 l 358 1193 l 489 1193 l 315 993 m 510 857 q 502 906 515 889 q 450 922 489 922 l 439 922 l 439 956 l 651 956 l 651 922 l 635 922 q 585 903 607 922 q 549 846 564 885 l 379 418 l 379 103 q 393 70 379 81 q 429 60 407 60 l 478 60 l 478 28 l 196 28 l 196 60 l 244 60 q 283 71 272 60 q 293 103 293 82 l 293 385 l 108 863 q 81 906 97 890 q 38 922 65 922 l 28 922 l 28 956 l 265 956 l 265 922 l 233 922 q 196 906 201 922 q 201 857 190 890 l 347 456 l 358 456 l 510 857 z "},"Þ":{"ha":694,"x_min":43,"x_max":689,"o":"m 325 743 q 477 733 428 743 q 575 692 526 722 q 656 610 624 663 q 689 501 689 558 q 667 399 689 444 q 613 323 646 353 q 545 274 581 293 q 469 247 510 256 q 331 239 429 239 l 256 239 l 256 201 q 277 82 256 110 q 358 54 299 54 l 385 54 l 385 28 l 43 28 l 43 54 l 65 54 q 149 81 131 54 q 168 190 168 108 l 168 786 q 163 881 168 863 q 130 914 157 900 q 71 928 103 928 l 43 928 l 43 956 l 385 956 l 385 928 l 358 928 q 299 917 326 928 q 263 881 271 906 q 256 786 256 857 l 256 743 l 325 743 m 256 288 l 315 288 q 489 309 435 288 q 573 380 543 331 q 603 486 603 429 q 581 586 603 543 q 524 653 558 629 q 456 686 489 678 q 342 694 424 694 l 256 694 l 256 288 z "},"ß":{"ha":694,"x_min":49,"x_max":651,"o":"m 49 60 q 108 68 92 60 q 133 98 125 76 q 142 179 142 119 l 142 657 q 206 885 142 819 q 358 956 265 956 q 529 901 467 956 q 594 765 592 846 q 556 635 597 683 q 467 564 515 586 q 605 463 558 536 q 651 288 651 390 q 586 106 651 185 q 442 28 521 28 q 328 60 364 28 q 293 124 293 92 q 306 174 293 157 q 347 190 319 190 q 388 174 375 190 q 404 138 401 157 q 399 103 407 119 q 404 76 390 86 q 448 68 418 65 q 518 108 478 71 q 564 263 558 146 q 513 461 569 379 q 336 538 456 543 l 336 569 q 466 610 422 569 q 504 746 510 651 q 464 876 499 840 q 361 911 429 911 q 260 868 293 911 q 228 706 228 825 l 228 32 l 49 32 l 49 60 z "},"à":{"ha":694,"x_min":60,"x_max":597,"o":"m 385 706 l 358 700 q 209 868 207 831 q 238 914 211 906 q 292 906 265 922 q 385 706 319 890 m 489 549 q 394 624 451 608 q 269 624 336 640 q 131 524 201 608 q 60 317 60 439 q 114 114 60 196 q 244 16 168 32 q 385 24 319 0 q 483 114 450 49 l 483 92 q 558 17 483 15 l 597 17 l 597 49 q 558 131 560 60 l 558 635 l 543 635 q 489 549 511 592 m 483 179 q 367 74 440 88 q 247 84 293 60 q 176 160 201 108 q 151 322 151 211 q 201 501 151 433 q 347 572 250 569 q 483 489 444 575 l 483 179 z "},"á":{"ha":694,"x_min":60,"x_max":597,"o":"m 461 896 l 489 896 q 367 692 392 711 q 312 683 342 672 q 282 724 282 694 q 461 896 282 754 m 489 549 q 394 624 451 608 q 269 624 336 640 q 131 524 201 608 q 60 317 60 439 q 114 114 60 196 q 244 16 168 32 q 385 24 319 0 q 483 114 450 49 l 483 92 q 558 17 483 15 l 597 17 l 597 49 q 558 131 560 60 l 558 635 l 543 635 q 489 549 511 592 m 483 179 q 367 74 440 88 q 247 84 293 60 q 176 160 201 108 q 151 322 151 211 q 201 501 151 433 q 347 572 250 569 q 483 489 444 575 l 483 179 z "},"â":{"ha":694,"x_min":54,"x_max":663,"o":"m 358 1042 l 489 819 l 467 819 l 282 965 l 125 819 l 108 819 l 233 1042 l 358 1042 m 472 97 q 372 41 418 60 q 244 22 325 22 q 108 68 163 22 q 54 174 54 114 q 138 333 54 271 q 472 424 222 396 q 451 578 478 543 q 334 613 424 613 q 206 583 244 613 q 179 526 168 553 q 179 477 190 499 q 141 456 168 456 q 100 469 114 456 q 86 521 86 483 q 157 602 86 558 q 333 646 228 646 q 494 605 439 646 q 549 489 549 564 l 549 131 q 556 79 549 88 q 588 71 564 71 q 624 95 613 71 q 635 163 635 119 l 663 163 q 635 57 663 86 q 567 28 608 28 q 505 44 526 28 q 472 97 483 60 m 472 390 q 217 315 288 368 q 146 201 146 261 q 176 101 146 142 q 263 60 206 60 q 369 78 319 60 q 472 136 418 97 l 472 390 z "},"ã":{"ha":694,"x_min":54,"x_max":663,"o":"m 131 863 q 163 974 131 944 q 228 1004 196 1004 q 283 996 261 1004 q 353 958 304 988 q 423 928 401 928 q 458 944 444 928 q 483 1004 472 960 l 499 1004 q 483 928 499 956 q 442 881 467 900 q 380 863 418 863 q 290 895 342 863 q 225 936 239 928 q 192 944 211 944 q 165 928 174 944 q 146 863 157 911 l 131 863 m 54 174 q 138 333 54 271 q 472 424 222 396 l 472 489 q 448 578 472 543 q 336 613 424 613 q 206 583 244 613 q 179 521 168 553 q 179 477 190 499 q 141 456 168 456 q 100 469 114 456 q 89 521 86 483 q 160 602 92 558 q 333 646 228 646 q 494 605 439 646 q 549 489 549 564 l 549 131 q 556 79 549 88 q 588 71 564 71 q 624 95 613 71 q 635 163 635 119 l 663 163 q 635 57 663 86 q 567 28 608 28 q 505 44 526 28 q 472 97 483 60 q 372 41 418 60 q 249 22 325 22 q 114 68 174 22 q 54 174 54 114 m 146 190 q 176 101 146 142 q 271 60 206 60 q 369 78 319 60 q 472 136 418 97 l 472 390 q 217 317 288 368 q 146 190 146 267 z "},"ä":{"ha":694,"x_min":54,"x_max":663,"o":"m 424 1010 q 477 988 456 1010 q 499 935 499 965 q 477 884 499 906 q 426 863 456 863 q 374 884 396 863 q 353 935 353 906 q 374 988 353 965 q 424 1010 396 1010 m 190 1010 q 244 988 222 1010 q 265 935 265 965 q 244 884 265 906 q 192 863 222 863 q 141 884 163 863 q 119 935 119 906 q 141 988 119 965 q 190 1010 163 1010 m 54 174 q 138 333 54 271 q 472 424 222 396 l 472 489 q 448 578 472 543 q 336 613 424 613 q 206 583 244 613 q 179 521 168 553 q 179 477 190 499 q 141 456 168 456 q 100 469 114 456 q 89 518 86 483 q 160 599 92 553 q 333 646 228 646 q 494 605 439 646 q 549 489 549 564 l 549 131 q 556 79 549 88 q 588 71 564 71 q 624 95 613 71 q 635 163 635 119 l 663 163 q 635 57 663 86 q 567 28 608 28 q 505 44 526 28 q 472 97 483 60 q 372 41 418 60 q 244 22 325 22 q 108 68 163 22 q 54 174 54 114 m 146 190 q 176 101 146 142 q 271 60 206 60 q 369 78 319 60 q 472 136 418 97 l 472 390 q 217 317 288 368 q 146 190 146 267 z "},"å":{"ha":694,"x_min":54,"x_max":663,"o":"m 369 1025 q 407 944 407 993 q 372 860 407 896 q 285 825 336 825 q 201 858 233 825 q 168 939 168 890 q 203 1023 168 988 q 288 1058 239 1058 q 369 1025 338 1057 m 233 999 q 211 944 211 976 q 233 887 211 911 q 288 863 256 863 q 342 887 319 863 q 361 947 364 911 q 337 1001 358 982 q 285 1020 315 1019 q 233 999 256 1021 m 54 174 q 138 333 54 271 q 472 424 222 396 l 472 489 q 448 578 472 543 q 334 613 424 613 q 206 583 244 613 q 179 521 168 553 q 176 474 190 499 q 135 450 163 450 q 95 469 108 450 q 90 524 82 489 q 163 602 97 558 q 333 646 228 646 q 494 605 439 646 q 549 489 549 564 l 549 131 q 556 79 549 88 q 588 71 564 71 q 624 95 613 71 q 635 163 635 119 l 663 163 q 635 57 663 86 q 567 28 608 28 q 505 44 526 28 q 472 97 483 60 q 372 41 418 60 q 247 22 325 22 q 111 68 168 22 q 54 174 54 114 m 146 190 q 176 101 146 142 q 271 60 206 60 q 369 78 319 60 q 472 136 418 97 l 472 390 q 217 317 288 368 q 146 190 146 267 z "},"æ":{"ha":694,"x_min":6,"x_max":689,"o":"m 358 456 l 358 393 q 367 322 358 379 q 407 222 375 265 q 496 179 439 179 q 597 220 553 179 q 672 347 640 261 l 689 331 q 613 160 672 222 q 491 97 553 97 q 385 127 429 97 q 315 206 342 157 q 209 113 244 129 q 125 97 174 97 q 41 141 76 97 q 6 247 6 185 q 30 353 6 310 q 130 440 54 396 q 282 493 206 483 l 282 618 q 252 687 282 657 q 190 717 222 717 q 135 694 157 717 q 117 635 114 672 q 111 575 119 597 q 76 548 103 553 q 35 559 49 543 q 22 605 22 575 q 41 670 22 635 q 103 730 60 706 q 206 754 146 754 q 306 724 265 754 q 353 663 347 694 q 423 735 390 711 q 521 757 456 760 q 638 689 586 754 q 689 456 689 624 l 358 456 m 304 239 q 290 321 299 267 q 276 444 282 375 q 143 390 194 428 q 89 296 92 353 q 114 203 86 239 q 174 168 142 168 q 231 182 206 168 q 304 239 256 196 m 592 499 q 559 667 592 629 q 478 706 526 706 q 399 665 435 706 q 358 499 364 624 l 592 499 z "},"ç":{"ha":694,"x_min":49,"x_max":569,"o":"m 569 342 q 474 160 547 217 q 303 100 401 103 q 278 100 290 99 l 250 60 q 315 24 293 49 q 336 -37 336 0 q 298 -119 331 -92 q 217 -151 265 -146 q 125 -157 168 -157 l 125 -125 q 172 -131 147 -131 q 220 -106 196 -131 q 244 -57 244 -82 q 228 -19 244 -32 q 194 -6 211 -6 l 168 -6 l 240 107 q 126 179 179 124 q 49 413 49 261 q 135 651 49 558 q 328 743 222 743 q 491 697 433 743 q 549 613 549 651 q 532 556 549 575 q 485 535 515 538 q 437 553 456 532 q 418 616 418 575 q 391 678 418 657 q 310 700 364 700 q 199 640 256 700 q 133 461 142 581 q 171 263 125 342 q 309 176 217 185 q 458 217 401 168 q 553 353 515 265 l 569 342 z "},"è":{"ha":694,"x_min":86,"x_max":613,"o":"m 396 711 l 369 706 q 217 874 218 836 q 252 919 217 911 q 312 903 288 928 q 396 711 336 879 m 613 342 l 196 342 q 231 165 190 239 q 358 84 271 92 q 501 114 444 76 q 581 196 558 151 l 613 196 q 528 74 596 131 q 350 17 461 17 q 165 92 239 17 q 89 315 92 168 q 157 542 86 461 q 303 638 228 624 q 444 632 379 651 q 558 550 510 613 q 613 342 607 488 m 196 385 l 510 385 q 458 548 504 499 q 356 594 413 597 q 250 542 299 592 q 196 385 201 493 z "},"é":{"ha":694,"x_min":86,"x_max":613,"o":"m 483 917 l 510 917 q 388 713 413 732 q 334 706 364 694 q 304 746 304 717 q 483 917 304 775 m 613 336 l 196 336 q 231 160 190 233 q 358 78 271 86 q 501 108 444 71 q 581 190 558 146 l 613 190 q 528 68 596 125 q 350 11 461 11 q 165 87 239 11 q 89 309 92 163 q 157 537 86 456 q 303 632 228 618 q 444 627 379 646 q 558 545 510 608 q 613 336 607 482 m 196 379 l 510 379 q 458 542 504 493 q 356 589 413 592 q 250 537 299 586 q 196 379 201 488 z "},"ê":{"ha":694,"x_min":86,"x_max":613,"o":"m 553 700 l 526 700 l 342 840 l 157 700 l 131 700 q 301 928 276 922 q 342 933 325 933 q 385 922 358 933 q 553 700 411 911 m 613 336 l 196 336 q 231 160 190 233 q 358 78 271 86 q 501 108 444 71 q 581 190 558 146 l 613 190 q 528 68 596 125 q 350 11 461 11 q 165 87 239 11 q 89 309 92 163 q 157 537 86 456 q 303 632 228 618 q 444 627 379 646 q 558 545 510 608 q 613 336 607 482 m 196 379 l 510 379 q 458 542 504 493 q 356 589 413 592 q 250 537 299 586 q 196 379 201 488 z "},"ë":{"ha":694,"x_min":82,"x_max":608,"o":"m 444 956 q 499 933 476 956 q 521 881 521 911 q 499 830 521 851 q 448 808 478 808 q 397 830 418 808 q 375 881 375 851 q 396 933 375 911 q 444 956 417 956 m 206 956 q 260 933 238 956 q 282 881 282 911 q 260 830 282 851 q 209 808 239 808 q 158 830 179 808 q 136 881 136 851 q 157 933 136 911 q 206 956 178 956 m 515 364 q 475 546 521 483 q 353 608 429 608 q 219 543 271 608 q 168 364 168 478 l 515 364 m 168 331 q 225 122 168 185 q 363 60 282 60 q 494 101 444 60 q 564 201 543 142 l 592 190 q 518 74 575 131 q 350 17 461 17 q 160 98 239 17 q 82 331 82 179 q 160 556 82 467 q 353 646 239 646 q 535 575 461 651 q 608 331 608 499 l 168 331 z "},"ì":{"ha":694,"x_min":136,"x_max":444,"o":"m 315 711 l 288 706 q 136 874 136 836 q 171 919 136 911 q 231 903 206 928 q 315 711 256 879 m 174 575 l 174 597 q 304 640 260 614 l 336 640 l 336 97 q 444 49 347 49 l 444 22 l 146 22 l 146 49 q 256 92 243 49 l 256 532 q 174 575 256 581 z "},"í":{"ha":694,"x_min":146,"x_max":444,"o":"m 396 917 l 424 917 q 301 713 326 732 q 247 706 276 694 q 217 746 217 717 q 396 917 217 775 m 174 575 l 174 597 q 304 640 260 614 l 336 640 l 336 97 q 444 49 347 49 l 444 22 l 146 22 l 146 49 q 256 92 243 49 l 256 532 q 174 575 256 581 z "},"î":{"ha":694,"x_min":108,"x_max":543,"o":"m 358 1019 l 489 797 l 467 797 l 293 944 l 125 797 l 108 797 l 233 1019 l 358 1019 m 304 553 q 293 589 304 575 q 256 603 282 603 l 142 603 l 142 635 l 196 635 q 288 643 244 635 q 369 672 331 651 l 379 672 l 379 103 q 393 70 379 81 q 429 60 407 60 l 543 60 l 543 28 l 142 28 l 142 60 l 256 60 q 294 71 283 60 q 304 103 304 82 l 304 553 z "},"ï":{"ha":694,"x_min":114,"x_max":543,"o":"m 424 1019 q 477 998 456 1019 q 499 947 499 976 q 477 895 499 917 q 426 874 456 874 q 374 895 396 874 q 353 947 353 917 q 374 998 353 976 q 424 1019 396 1019 m 239 993 q 261 941 261 971 q 239 890 261 911 q 187 868 217 868 q 135 890 157 868 q 114 941 114 911 q 135 992 114 971 q 187 1015 157 1014 q 239 993 217 1015 m 304 553 q 293 589 304 575 q 256 603 282 603 l 142 603 l 142 635 l 196 635 q 288 643 244 635 q 369 672 331 651 l 379 672 l 379 103 q 393 70 379 81 q 429 60 407 60 l 543 60 l 543 28 l 142 28 l 142 60 l 256 60 q 294 71 283 60 q 304 103 304 82 l 304 553 z "},"ð":{"ha":694,"x_min":49,"x_max":640,"o":"m 151 706 l 131 738 l 304 831 q 163 933 239 890 l 179 956 q 347 857 276 913 l 515 944 l 538 906 l 385 825 q 572 597 515 706 q 635 377 629 489 q 605 187 640 265 q 494 65 569 108 q 312 33 418 22 q 127 119 206 43 q 49 325 49 196 q 119 537 49 461 q 260 626 190 613 q 374 635 331 640 q 478 592 418 629 q 331 792 413 711 l 151 706 m 325 608 q 203 549 260 608 q 136 364 146 489 q 158 209 136 272 q 239 111 179 146 q 369 76 299 76 q 486 125 435 76 q 543 282 538 174 q 488 521 543 433 q 325 608 433 608 z "},"ñ":{"ha":694,"x_min":38,"x_max":646,"o":"m 136 874 q 169 988 136 956 q 233 1019 201 1019 q 288 1012 265 1019 q 358 972 310 1004 q 428 939 407 939 q 464 955 450 939 q 489 1019 478 971 l 504 1019 q 488 935 504 965 q 448 890 472 906 q 385 876 424 874 q 299 912 347 879 q 239 950 250 944 q 203 956 228 956 q 171 939 179 956 q 151 874 163 922 l 136 874 m 38 28 l 38 60 l 65 60 q 103 71 93 60 q 114 103 114 82 l 114 569 q 108 594 114 586 q 86 603 103 603 l 43 603 l 43 635 l 82 635 q 133 640 110 635 q 179 663 157 646 l 190 663 l 190 538 q 288 619 239 592 q 410 646 336 646 q 526 597 483 646 q 569 450 569 549 l 569 103 q 583 70 569 81 q 618 60 597 60 l 646 60 l 646 28 l 418 28 l 418 60 l 444 60 q 483 71 472 60 q 493 103 493 82 l 493 467 q 466 567 493 532 q 388 603 439 603 q 285 570 336 603 q 190 478 233 538 l 190 103 q 203 70 190 81 q 239 60 217 60 l 265 60 l 265 28 l 38 28 z "},"ò":{"ha":694,"x_min":65,"x_max":629,"o":"m 71 325 q 136 521 76 444 q 274 622 196 597 q 431 622 353 646 q 567 518 510 597 q 626 322 624 439 q 559 108 629 206 q 353 11 489 11 q 141 108 217 11 q 71 325 65 206 m 163 319 q 219 138 168 211 q 317 57 271 65 q 401 63 364 49 q 485 144 439 76 q 532 322 532 211 q 481 513 532 433 q 353 589 429 592 q 219 510 276 586 q 163 319 163 433 m 385 706 l 358 700 q 206 868 207 831 q 238 917 206 906 q 298 901 271 928 q 385 706 325 874 z "},"ó":{"ha":694,"x_min":60,"x_max":629,"o":"m 65 331 q 133 526 71 450 q 274 627 196 603 q 431 630 353 651 q 567 526 510 608 q 626 328 624 444 q 553 114 629 211 q 347 17 478 17 q 138 114 217 17 q 65 331 60 211 m 163 325 q 219 144 168 217 q 317 63 271 71 q 401 68 364 54 q 485 149 439 82 q 532 328 532 217 q 481 518 532 439 q 353 594 429 597 q 219 515 276 592 q 163 325 163 439 m 483 911 l 510 911 q 388 708 413 726 q 334 700 364 689 q 304 740 304 711 q 483 911 304 769 z "},"ô":{"ha":694,"x_min":60,"x_max":624,"o":"m 396 1019 l 526 797 l 504 797 l 325 944 l 163 797 l 146 797 l 271 1019 l 396 1019 m 624 331 q 542 106 624 194 q 342 17 461 17 q 138 109 217 17 q 60 331 60 201 q 138 548 60 450 q 342 646 217 646 q 548 548 472 646 q 624 331 624 450 m 146 325 q 203 116 146 183 q 342 49 261 49 q 485 122 433 49 q 538 325 538 196 q 481 540 538 467 q 342 613 424 613 q 206 540 265 613 q 146 325 146 467 z "},"õ":{"ha":694,"x_min":60,"x_max":624,"o":"m 151 863 q 184 977 151 944 q 249 1010 217 1010 q 303 1001 282 1010 q 374 960 325 993 q 445 928 424 928 q 480 944 467 928 q 504 1010 493 960 l 521 1010 q 505 926 521 956 q 464 879 489 896 q 401 863 439 863 q 313 895 364 863 q 247 936 261 928 q 215 944 233 944 q 188 928 196 944 q 168 863 179 911 l 151 863 m 624 331 q 542 106 624 194 q 342 17 461 17 q 138 109 217 17 q 60 331 60 201 q 138 548 60 450 q 342 646 217 646 q 548 548 472 646 q 624 331 624 450 m 146 325 q 203 116 146 183 q 342 49 261 49 q 485 122 433 49 q 538 325 538 196 q 481 540 538 467 q 342 613 424 613 q 206 540 265 613 q 146 325 146 467 z "},"ö":{"ha":694,"x_min":60,"x_max":624,"o":"m 439 1019 q 493 998 471 1019 q 515 947 515 976 q 494 895 515 917 q 442 874 472 874 q 391 895 413 874 q 369 947 369 917 q 390 998 369 976 q 439 1019 411 1019 m 201 1019 q 255 998 233 1019 q 276 947 276 976 q 255 895 276 917 q 203 874 233 874 q 152 895 174 874 q 131 947 131 917 q 152 998 131 976 q 201 1019 174 1019 m 624 331 q 542 106 624 194 q 342 17 461 17 q 138 109 217 17 q 60 331 60 201 q 138 548 60 450 q 342 646 217 646 q 545 556 467 651 q 624 331 624 461 m 146 325 q 203 116 146 183 q 342 49 261 49 q 485 122 433 49 q 538 325 538 196 q 481 540 538 467 q 342 613 424 613 q 206 540 265 613 q 146 325 146 467 z "},"ø":{"ha":694,"x_min":38,"x_max":651,"o":"m 624 672 l 651 640 l 558 538 q 624 361 618 461 q 594 185 629 261 q 496 63 558 108 q 363 17 433 17 q 247 33 293 17 q 151 92 201 49 l 65 -11 l 38 17 l 125 119 q 76 217 93 168 q 60 342 60 265 q 98 491 60 418 q 196 602 136 564 q 323 646 256 640 q 440 632 390 651 q 532 569 489 613 l 624 672 m 489 521 q 413 599 457 581 q 313 608 369 618 q 206 538 256 597 q 147 374 157 478 q 168 168 136 271 l 489 521 m 190 131 q 290 57 239 71 q 396 57 342 43 q 491 131 450 71 q 538 299 532 190 q 510 483 543 407 l 190 131 z "},"ù":{"ha":694,"x_min":32,"x_max":640,"o":"m 385 711 l 358 706 q 206 874 207 836 q 238 922 206 911 q 298 906 271 933 q 385 711 325 879 m 489 179 q 329 100 403 103 q 233 119 256 97 q 211 201 211 142 l 211 663 l 32 663 l 32 629 q 136 558 135 629 l 136 157 q 185 46 136 75 q 315 24 233 17 q 489 131 396 32 l 489 76 q 564 22 489 22 l 640 22 l 640 65 q 578 81 592 65 q 564 146 564 97 l 564 663 l 396 663 l 396 629 q 489 564 488 629 l 489 179 z "},"ú":{"ha":694,"x_min":32,"x_max":640,"o":"m 478 922 l 504 922 q 383 719 407 738 q 328 711 358 700 q 299 751 299 722 q 478 922 299 781 m 489 179 q 329 100 403 103 q 233 119 256 97 q 211 201 211 142 l 211 663 l 32 663 l 32 629 q 136 558 135 629 l 136 157 q 185 46 136 75 q 315 24 233 17 q 489 131 396 32 l 489 76 q 564 22 489 22 l 640 22 l 640 65 q 578 81 592 65 q 564 146 564 97 l 564 663 l 396 663 l 396 629 q 489 564 488 629 l 489 179 z "},"û":{"ha":694,"x_min":28,"x_max":646,"o":"m 379 1019 l 510 797 l 489 797 l 310 944 l 146 797 l 131 797 l 256 1019 l 379 1019 m 310 76 q 421 109 375 76 q 489 211 467 142 l 489 553 q 478 589 489 575 q 439 603 467 603 l 407 603 l 407 635 l 439 635 q 499 640 471 635 q 553 667 526 646 l 564 667 l 564 136 q 578 103 564 114 q 613 92 592 92 l 646 92 l 646 60 l 613 60 q 558 51 585 60 q 499 28 532 43 l 489 28 l 489 142 q 407 52 461 82 q 282 22 353 22 q 152 71 196 22 q 108 228 108 119 l 108 553 q 97 589 108 575 q 60 603 86 603 l 28 603 l 28 635 l 60 635 q 119 640 92 635 q 174 667 146 646 l 185 667 l 185 217 q 217 108 185 140 q 310 76 250 76 z "},"ü":{"ha":694,"x_min":32,"x_max":640,"o":"m 265 760 q 241 716 265 732 q 195 700 217 700 q 152 716 174 700 q 131 759 131 732 q 144 803 131 786 q 179 825 157 819 q 223 825 201 831 q 255 803 244 819 q 265 760 265 788 m 543 760 q 518 716 543 732 q 472 700 493 700 q 428 716 450 700 q 407 759 407 732 q 420 803 407 786 q 453 825 433 819 q 497 825 472 831 q 532 803 521 819 q 543 760 543 788 m 489 179 q 329 100 403 103 q 233 119 256 97 q 211 201 211 142 l 211 663 l 32 663 l 32 629 q 136 558 135 629 l 136 157 q 185 46 136 75 q 315 24 233 17 q 489 131 396 32 l 489 76 q 564 22 489 22 l 640 22 l 640 65 q 578 81 592 65 q 564 146 564 97 l 564 663 l 396 663 l 396 629 q 489 564 488 629 l 489 179 z "},"ý":{"ha":694,"x_min":54,"x_max":640,"o":"m 504 1019 l 304 786 l 282 786 l 353 1019 l 504 1019 m 353 179 l 222 549 q 228 590 217 576 q 261 603 239 603 l 282 603 l 282 635 l 54 635 l 54 603 l 76 603 q 117 589 99 603 q 142 553 136 575 l 325 76 q 295 -13 314 33 q 263 -78 276 -60 q 231 -106 250 -97 q 195 -87 211 -114 q 149 -60 179 -60 q 106 -78 119 -60 q 94 -119 92 -97 q 117 -155 97 -142 q 185 -168 136 -168 q 274 -130 233 -168 q 347 6 315 -92 l 532 543 q 565 587 543 571 q 608 603 586 603 l 640 603 l 640 635 l 413 635 l 413 603 l 444 603 q 480 586 467 603 q 483 543 493 569 l 364 179 l 353 179 z "},"þ":{"ha":694,"x_min":22,"x_max":640,"o":"m 190 1069 l 217 1069 l 217 597 q 306 692 254 657 q 421 729 358 726 q 526 705 483 732 q 605 618 569 678 q 640 439 640 558 q 564 190 635 276 q 415 90 493 103 q 293 92 336 76 q 217 142 250 108 l 217 -49 q 225 -130 217 -114 q 252 -157 233 -146 q 319 -168 271 -168 l 319 -190 l 22 -190 l 22 -168 l 38 -168 q 94 -157 75 -168 q 122 -130 114 -146 q 131 -43 131 -114 l 131 868 q 125 949 131 933 q 108 974 119 965 q 78 982 97 982 q 32 971 60 982 l 28 993 l 190 1069 m 217 325 q 222 228 217 249 q 269 155 233 185 q 374 125 304 125 q 494 188 444 125 q 546 388 543 250 q 497 589 549 526 q 388 651 444 651 q 301 635 331 651 q 217 558 271 618 l 217 325 z "},"ÿ":{"ha":694,"x_min":54,"x_max":640,"o":"m 467 1019 q 521 998 499 1019 q 543 947 543 976 q 521 895 543 917 q 469 874 499 874 q 417 895 439 874 q 396 947 396 917 q 417 998 396 976 q 467 1019 439 1019 m 228 1019 q 282 998 260 1019 q 304 947 304 976 q 283 895 304 917 q 231 874 261 874 q 179 895 201 874 q 157 947 157 917 q 178 998 157 976 q 228 1019 200 1019 m 364 179 l 483 543 q 481 587 494 571 q 444 603 467 603 l 413 603 l 413 635 l 640 635 l 640 603 l 608 603 q 565 586 586 603 q 532 543 543 569 l 347 6 q 279 -122 319 -76 q 188 -168 239 -168 q 114 -155 136 -168 q 92 -119 92 -142 q 106 -81 92 -97 q 144 -65 119 -65 q 190 -84 168 -65 q 225 -103 211 -103 q 250 -97 239 -103 q 272 -70 261 -92 q 299 -8 282 -49 q 325 76 315 32 l 142 553 q 117 589 136 575 q 76 603 97 603 l 54 603 l 54 635 l 282 635 l 282 603 l 261 603 q 228 589 239 603 q 222 549 217 575 l 353 179 l 364 179 z "},"ā":{"ha":694,"x_min":60,"x_max":597,"o":"m 489 549 q 394 624 451 608 q 269 624 336 640 q 131 524 201 608 q 60 317 60 439 q 114 114 60 196 q 244 16 168 32 q 385 24 319 0 q 483 114 450 49 l 483 92 q 558 17 483 15 l 597 17 l 597 49 q 558 131 560 60 l 558 635 l 543 635 q 489 549 511 592 m 483 179 q 367 74 440 88 q 247 84 293 60 q 176 160 201 108 q 151 322 151 211 q 201 501 151 433 q 347 572 250 569 q 483 489 444 575 l 483 179 m 185 825 l 499 825 l 499 749 l 185 749 l 185 825 z "},"ē":{"ha":694,"x_min":86,"x_max":613,"o":"m 613 336 l 196 336 q 231 160 190 233 q 358 78 271 86 q 501 108 444 71 q 581 190 558 146 l 613 190 q 528 68 596 125 q 350 11 461 11 q 165 87 239 11 q 89 309 92 163 q 157 537 86 456 q 303 632 228 618 q 444 627 379 646 q 558 545 510 608 q 613 336 607 482 m 196 379 l 510 379 q 458 542 504 493 q 356 589 413 592 q 250 537 299 586 q 196 379 201 488 m 168 831 l 510 831 l 510 754 l 168 754 l 168 831 z "},"ě":{"ha":694,"x_min":86,"x_max":613,"o":"m 142 911 l 174 911 l 347 786 l 510 911 l 538 911 q 385 710 407 721 q 340 700 364 700 q 297 710 315 700 q 142 911 278 721 m 613 342 l 196 342 q 231 165 190 239 q 358 84 271 92 q 501 114 444 76 q 581 196 558 151 l 613 196 q 528 74 596 131 q 350 17 461 17 q 165 92 239 17 q 89 315 92 168 q 157 542 86 461 q 303 638 228 624 q 444 632 379 651 q 558 550 510 613 q 613 342 607 488 m 196 385 l 510 385 q 458 548 504 499 q 356 594 413 597 q 250 542 299 592 q 196 385 201 493 z "},"ī":{"ha":694,"x_min":131,"x_max":461,"o":"m 131 831 l 461 831 l 461 754 l 131 754 l 131 831 m 174 575 l 174 597 q 304 640 260 614 l 336 640 l 336 97 q 444 49 347 49 l 444 22 l 146 22 l 146 49 q 256 92 243 49 l 256 532 q 174 575 256 581 z "},"ń":{"ha":694,"x_min":43,"x_max":651,"o":"m 125 564 q 43 608 119 608 l 43 635 q 185 657 125 629 l 201 657 l 201 558 q 299 632 244 601 q 431 660 353 663 q 542 605 510 657 q 569 429 575 553 l 569 108 q 651 49 581 54 l 651 22 l 407 22 l 407 49 q 493 103 478 49 l 493 450 q 466 569 499 536 q 376 592 433 603 q 276 551 319 581 q 201 483 233 521 l 201 103 q 288 49 213 49 l 288 22 l 43 22 l 43 49 q 125 103 108 49 l 125 564 m 424 917 l 450 917 q 328 713 353 732 q 274 706 304 694 q 244 746 244 717 q 424 917 244 775 z "},"ň":{"ha":694,"x_min":43,"x_max":651,"o":"m 146 917 l 179 917 l 353 792 l 515 917 l 543 917 q 391 716 413 726 q 344 706 369 706 q 301 716 319 706 q 146 917 282 726 m 125 564 q 43 608 119 608 l 43 635 q 185 657 125 629 l 201 657 l 201 558 q 299 632 244 601 q 431 660 353 663 q 542 605 510 657 q 569 429 575 553 l 569 108 q 651 49 581 54 l 651 22 l 407 22 l 407 49 q 493 103 478 49 l 493 450 q 466 569 499 536 q 376 592 433 603 q 276 551 319 581 q 201 483 233 521 l 201 103 q 288 49 213 49 l 288 22 l 43 22 l 43 49 q 125 103 108 49 l 125 564 z "},"ō":{"ha":694,"x_min":60,"x_max":629,"o":"m 65 325 q 133 521 71 444 q 274 622 196 597 q 431 624 353 646 q 567 521 510 603 q 626 322 624 439 q 553 108 629 206 q 347 11 478 11 q 138 108 217 11 q 65 325 60 206 m 163 319 q 219 138 168 211 q 317 57 271 65 q 401 63 364 49 q 485 144 439 76 q 532 322 532 211 q 481 513 532 433 q 353 589 429 592 q 219 510 276 586 q 163 319 163 433 m 179 825 l 504 825 l 504 749 l 179 749 l 179 825 z "},"Œ":{"ha":694,"x_min":60,"x_max":689,"o":"m 439 538 l 504 538 q 567 570 553 538 q 581 672 581 603 l 603 672 l 603 347 l 581 347 q 565 458 581 433 q 504 483 549 483 l 439 483 l 439 82 l 532 82 q 586 92 569 82 q 628 136 603 103 q 667 261 651 169 l 689 261 l 651 28 l 342 28 q 174 88 228 33 q 90 250 119 142 q 60 489 60 358 q 114 803 60 668 q 299 950 174 944 l 640 950 l 651 754 l 629 754 q 610 849 618 831 q 589 884 603 868 q 538 900 575 900 l 439 900 l 439 538 m 369 732 q 367 854 369 829 q 350 895 364 879 q 293 908 336 911 q 215 863 250 906 q 163 719 179 819 q 146 499 146 618 q 163 274 146 368 q 212 131 179 179 q 288 76 244 82 q 350 90 331 71 q 369 196 369 108 l 369 732 z "},"œ":{"ha":694,"x_min":60,"x_max":694,"o":"m 433 456 q 450 320 433 390 q 499 217 467 250 q 567 188 532 185 q 633 228 603 190 q 672 347 663 265 l 689 336 q 638 146 678 206 q 543 86 597 86 q 456 119 489 86 q 407 196 424 151 q 342 114 379 142 q 242 89 304 86 q 119 176 179 92 q 60 410 60 261 q 117 645 60 558 q 244 738 174 732 q 350 713 315 743 q 407 635 385 683 q 464 719 435 694 q 553 743 493 743 q 653 678 613 743 q 689 456 694 613 l 433 456 m 276 689 q 212 683 244 700 q 165 618 179 667 q 149 431 151 569 q 181 215 146 293 q 266 136 217 136 q 340 185 315 136 q 364 377 364 233 q 339 602 364 521 q 276 689 314 683 m 433 499 l 613 499 q 602 619 613 575 q 575 681 592 663 q 521 697 558 700 q 461 656 483 694 q 433 499 439 618 z "},"Š":{"ha":694,"x_min":54,"x_max":608,"o":"m 288 1004 l 163 1193 l 179 1193 l 358 1074 l 521 1193 l 543 1193 l 413 1004 l 288 1004 m 319 472 q 119 586 174 538 q 65 738 65 635 q 133 892 65 819 q 325 965 201 965 q 428 947 379 965 q 499 928 478 928 q 529 936 515 928 q 553 965 543 944 l 575 743 l 549 732 q 448 887 500 846 q 315 928 396 928 q 174 871 213 928 q 136 749 136 814 q 171 653 136 689 q 364 549 206 618 q 551 426 494 494 q 608 265 608 358 q 540 92 608 168 q 342 17 472 17 q 242 35 288 17 q 168 54 196 54 q 135 43 151 54 q 97 17 119 32 l 54 282 l 86 293 q 192 106 124 157 q 347 54 261 54 q 485 108 439 54 q 532 265 532 163 q 480 372 532 319 q 319 472 428 424 z "},"š":{"ha":694,"x_min":43,"x_max":494,"o":"m 444 743 l 444 532 l 424 532 q 356 670 396 635 q 256 706 315 706 q 176 681 207 706 q 146 624 146 657 q 168 558 146 586 q 256 499 190 531 l 353 450 q 493 276 494 385 q 428 138 493 190 q 282 86 364 86 q 151 108 228 86 q 119 114 129 114 q 92 97 103 114 l 71 97 l 71 315 l 92 315 q 165 174 114 224 q 288 125 217 125 q 360 152 331 125 q 390 217 390 179 q 358 298 390 265 q 228 380 325 331 q 97 467 131 429 q 71 564 69 504 q 122 692 71 640 q 256 743 174 743 q 347 726 293 743 q 390 717 379 715 q 407 722 401 717 q 424 743 413 726 l 444 743 m 168 819 l 43 1042 l 60 1042 l 239 900 l 401 1042 l 424 1042 l 293 819 l 168 819 z "},"ū":{"ha":694,"x_min":32,"x_max":640,"o":"m 196 825 l 504 825 l 504 754 l 196 754 l 196 825 m 489 179 q 329 100 403 103 q 233 119 256 97 q 211 185 211 142 l 211 646 l 32 646 l 32 613 q 136 543 135 613 l 136 157 q 185 46 136 75 q 315 24 233 17 q 489 131 396 32 l 489 76 q 564 22 489 22 l 640 22 l 640 65 q 578 81 592 65 q 564 146 564 97 l 564 646 l 396 646 l 396 613 q 489 549 488 613 l 489 179 z "},"Ÿ":{"ha":694,"x_min":28,"x_max":651,"o":"m 233 1193 q 288 1172 265 1193 q 310 1120 310 1150 q 288 1069 310 1090 q 235 1047 265 1047 q 184 1069 206 1047 q 163 1120 163 1090 q 184 1172 163 1150 q 233 1193 206 1193 m 478 1193 q 531 1172 510 1193 q 553 1120 553 1150 q 531 1069 553 1090 q 480 1047 510 1047 q 428 1069 450 1047 q 407 1120 407 1090 q 428 1172 407 1150 q 478 1193 450 1193 m 510 857 q 502 906 515 889 q 450 922 489 922 l 439 922 l 439 956 l 651 956 l 651 922 l 635 922 q 585 903 607 922 q 549 846 564 885 l 379 418 l 379 103 q 393 70 379 81 q 429 60 407 60 l 478 60 l 478 28 l 196 28 l 196 60 l 244 60 q 283 71 272 60 q 293 103 293 82 l 293 385 l 108 863 q 81 906 97 890 q 38 922 65 922 l 28 922 l 28 956 l 265 956 l 265 922 l 233 922 q 196 906 201 922 q 201 857 190 890 l 347 456 l 358 456 l 510 857 z "},"ƒ":{"ha":694,"x_min":0,"x_max":678,"o":"m 586 700 l 575 651 l 456 651 q 342 174 424 472 q 201 -131 276 -60 q 86 -190 147 -190 q 24 -168 49 -190 q 0 -114 0 -146 q 16 -73 0 -92 q 51 -54 32 -54 q 84 -68 71 -54 q 97 -95 97 -82 q 90 -122 97 -108 q 95 -141 82 -136 q 127 -138 108 -146 q 165 -98 146 -131 q 203 -8 185 -65 q 252 190 222 49 q 347 651 282 331 l 228 651 l 239 700 l 358 700 q 407 865 375 765 q 485 1006 439 965 q 586 1047 532 1047 q 653 1023 629 1047 q 678 972 678 999 q 665 931 678 944 q 632 917 651 917 q 599 933 613 917 q 594 969 586 950 q 597 999 603 988 q 572 1010 592 1010 q 531 985 553 1010 q 501 908 510 960 q 467 700 493 857 l 586 700 z "},"ǎ":{"ha":694,"x_min":60,"x_max":597,"o":"m 136 900 l 168 900 l 342 776 l 504 900 l 532 900 q 380 699 401 710 q 334 689 358 689 q 291 699 310 689 q 136 900 272 710 m 489 543 q 394 619 451 603 q 269 619 336 635 q 131 518 201 603 q 60 312 60 433 q 114 109 60 190 q 244 11 168 28 q 385 19 319 -6 q 483 108 450 43 l 483 86 q 558 11 483 10 l 597 11 l 597 43 q 558 125 560 54 l 558 629 l 543 629 q 489 543 511 586 m 483 174 q 367 68 440 82 q 247 78 293 54 q 176 154 201 103 q 151 317 151 206 q 201 497 151 429 q 347 567 250 564 q 483 483 444 569 l 483 174 z "},"ǐ":{"ha":694,"x_min":131,"x_max":444,"o":"m 131 890 l 157 890 l 288 792 l 418 890 l 439 890 q 320 717 342 728 q 280 706 299 706 q 239 717 261 706 q 131 890 217 728 m 174 575 l 174 597 q 304 640 260 614 l 336 640 l 336 97 q 444 49 347 49 l 444 22 l 146 22 l 146 49 q 256 92 243 49 l 256 532 q 174 575 256 581 z "},"ǒ":{"ha":694,"x_min":60,"x_max":629,"o":"m 65 325 q 133 521 71 444 q 274 622 196 597 q 431 624 353 646 q 567 521 510 603 q 626 322 624 439 q 553 108 629 206 q 347 11 478 11 q 138 108 217 11 q 65 325 60 206 m 163 319 q 219 138 168 211 q 317 57 271 65 q 401 63 364 49 q 485 144 439 76 q 532 322 532 211 q 481 513 532 433 q 353 589 429 592 q 219 510 276 586 q 163 319 163 433 m 146 911 l 179 911 l 353 786 l 515 911 l 543 911 q 391 710 413 721 q 344 700 369 700 q 301 710 319 700 q 146 911 282 721 z "},"ǔ":{"ha":694,"x_min":32,"x_max":640,"o":"m 146 917 l 179 917 l 353 792 l 515 917 l 543 917 q 391 716 413 726 q 344 706 369 706 q 301 716 319 706 q 146 917 282 726 m 489 179 q 329 100 403 103 q 233 119 256 97 q 211 201 211 142 l 211 663 l 32 663 l 32 629 q 136 558 135 629 l 136 157 q 185 46 136 75 q 315 24 233 17 q 489 131 396 32 l 489 76 q 564 22 489 22 l 640 22 l 640 65 q 578 81 592 65 q 564 146 564 97 l 564 663 l 396 663 l 396 629 q 489 564 488 629 l 489 179 z "},"ǖ":{"ha":694,"x_min":32,"x_max":640,"o":"m 179 956 l 489 956 l 489 885 l 179 885 l 179 956 m 265 760 q 241 716 265 732 q 195 700 217 700 q 152 716 174 700 q 131 759 131 732 q 144 803 131 786 q 179 825 157 819 q 223 825 201 831 q 255 803 244 819 q 265 760 265 788 m 543 760 q 518 716 543 732 q 472 700 493 700 q 428 716 450 700 q 407 759 407 732 q 420 803 407 786 q 453 825 433 819 q 497 825 472 831 q 532 803 521 819 q 543 760 543 788 m 489 179 q 329 100 403 103 q 233 119 256 97 q 211 201 211 142 l 211 663 l 32 663 l 32 629 q 136 558 135 629 l 136 157 q 185 46 136 75 q 315 24 233 17 q 489 131 396 32 l 489 76 q 564 22 489 22 l 640 22 l 640 65 q 578 81 592 65 q 564 146 564 97 l 564 663 l 396 663 l 396 629 q 489 564 488 629 l 489 179 z "},"ǘ":{"ha":694,"x_min":32,"x_max":640,"o":"m 265 760 q 241 716 265 732 q 195 700 217 700 q 152 716 174 700 q 131 759 131 732 q 144 803 131 786 q 179 825 157 819 q 223 825 201 831 q 255 803 244 819 q 265 760 265 788 m 543 760 q 518 716 543 732 q 472 700 493 700 q 428 716 450 700 q 407 759 407 732 q 420 803 407 786 q 453 825 433 819 q 497 825 472 831 q 532 803 521 819 q 543 760 543 788 m 467 1074 l 493 1074 q 372 870 396 889 q 317 863 347 851 q 288 903 288 874 q 467 1074 288 932 m 489 179 q 329 100 403 103 q 233 119 256 97 q 211 201 211 142 l 211 663 l 32 663 l 32 629 q 136 558 135 629 l 136 157 q 185 46 136 75 q 315 24 233 17 q 489 131 396 32 l 489 76 q 564 22 489 22 l 640 22 l 640 65 q 578 81 592 65 q 564 146 564 97 l 564 663 l 396 663 l 396 629 q 489 564 488 629 l 489 179 z "},"ǚ":{"ha":694,"x_min":32,"x_max":640,"o":"m 151 1069 l 185 1069 l 358 944 l 521 1069 l 549 1069 q 397 868 418 879 q 350 857 375 857 q 306 868 325 857 q 151 1069 288 879 m 265 760 q 241 716 265 732 q 195 700 217 700 q 152 716 174 700 q 131 759 131 732 q 144 803 131 786 q 179 825 157 819 q 223 825 201 831 q 255 803 244 819 q 265 760 265 788 m 543 760 q 518 716 543 732 q 472 700 493 700 q 428 716 450 700 q 407 759 407 732 q 420 803 407 786 q 453 825 433 819 q 497 825 472 831 q 532 803 521 819 q 543 760 543 788 m 489 179 q 329 100 403 103 q 233 119 256 97 q 211 201 211 142 l 211 663 l 32 663 l 32 629 q 136 558 135 629 l 136 157 q 185 46 136 75 q 315 24 233 17 q 489 131 396 32 l 489 76 q 564 22 489 22 l 640 22 l 640 65 q 578 81 592 65 q 564 146 564 97 l 564 663 l 396 663 l 396 629 q 489 564 488 629 l 489 179 z "},"ǜ":{"ha":694,"x_min":32,"x_max":640,"o":"m 390 863 l 364 857 q 215 1023 213 988 q 249 1069 217 1058 q 306 1055 282 1079 q 390 863 331 1031 m 265 760 q 241 716 265 732 q 195 700 217 700 q 152 716 174 700 q 131 759 131 732 q 144 803 131 786 q 179 825 157 819 q 223 825 201 831 q 255 803 244 819 q 265 760 265 788 m 543 760 q 518 716 543 732 q 472 700 493 700 q 428 716 450 700 q 407 759 407 732 q 420 803 407 786 q 453 825 433 819 q 497 825 472 831 q 532 803 521 819 q 543 760 543 788 m 489 179 q 329 100 403 103 q 233 119 256 97 q 211 201 211 142 l 211 663 l 32 663 l 32 629 q 136 558 135 629 l 136 157 q 185 46 136 75 q 315 24 233 17 q 489 131 396 32 l 489 76 q 564 22 489 22 l 640 22 l 640 65 q 578 81 592 65 q 564 146 564 97 l 564 663 l 396 663 l 396 629 q 489 564 488 629 l 489 179 z "},"ǹ":{"ha":694,"x_min":43,"x_max":651,"o":"m 407 706 l 379 700 q 228 871 228 831 q 263 919 228 911 q 323 901 299 928 q 407 706 347 874 m 125 564 q 43 608 119 608 l 43 635 q 185 657 125 629 l 201 657 l 201 558 q 299 632 244 601 q 431 660 353 663 q 542 605 510 657 q 569 429 575 553 l 569 108 q 651 49 581 54 l 651 22 l 407 22 l 407 49 q 493 103 478 49 l 493 450 q 466 569 499 536 q 376 592 433 603 q 276 551 319 581 q 201 483 233 521 l 201 103 q 288 49 213 49 l 288 22 l 43 22 l 43 49 q 125 103 108 49 l 125 564 z "},"ɑ":{"ha":694,"x_min":60,"x_max":597,"o":"m 489 553 q 543 640 511 596 l 558 640 l 558 136 q 597 54 558 65 l 597 22 l 558 22 q 483 97 482 22 l 483 119 q 385 30 451 54 q 244 22 319 6 q 114 119 168 38 q 60 323 60 201 q 131 528 60 444 q 269 629 201 613 q 394 629 336 646 q 489 553 451 613 m 483 493 q 348 577 446 579 q 201 507 250 575 q 151 328 151 439 q 176 165 151 217 q 247 90 201 114 q 366 78 293 65 q 483 185 439 92 l 483 493 z "},"ɡ":{"ha":694,"x_min":49,"x_max":558,"o":"m 558 142 q 496 -111 558 -43 q 312 -182 433 -179 q 136 -152 190 -185 q 65 -78 82 -119 q 60 0 49 -37 q 114 43 71 38 q 176 10 157 49 q 157 -65 196 -28 q 284 -147 189 -142 q 431 -94 379 -151 q 483 119 483 -37 l 483 217 q 277 133 397 125 q 111 199 157 142 q 63 358 65 256 q 111 529 60 461 q 276 619 163 597 q 483 575 390 640 q 543 629 515 597 l 558 629 l 558 142 m 483 429 q 424 562 483 526 q 290 581 364 597 q 184 510 217 564 q 149 377 151 456 q 178 247 146 299 q 258 185 211 196 q 361 188 304 174 q 483 265 418 201 l 483 429 z "},"ˆ":{"ha":694,"x_min":43,"x_max":424,"o":"m 168 1042 l 293 1042 l 424 819 l 401 819 l 222 965 l 60 819 l 43 819 l 168 1042 z "},"Α":{"ha":1389,"x_min":239,"x_max":1085,"o":"m 956 250 q 1085 151 988 158 l 1085 119 l 819 119 l 819 151 q 879 211 917 146 l 792 424 l 478 424 l 390 206 q 483 151 363 146 l 483 119 l 239 119 l 239 151 q 336 190 310 146 l 646 956 l 956 250 m 493 456 l 776 456 l 635 803 l 493 456 z "},"Β":{"ha":1389,"x_min":325,"x_max":1074,"o":"m 325 119 l 325 151 q 433 217 411 146 l 433 831 q 325 922 433 933 l 325 956 l 663 956 q 917 920 825 961 q 1015 771 1010 879 q 979 613 1019 663 q 868 549 939 564 q 1003 467 933 538 q 1049 288 1074 396 q 938 147 1025 179 q 657 119 851 114 l 325 119 m 521 532 l 521 151 l 732 151 q 898 201 846 146 q 950 342 950 256 q 888 483 950 429 q 722 532 825 538 l 521 532 m 521 564 l 722 564 q 882 626 831 569 q 925 754 933 683 q 871 868 917 825 q 726 917 825 911 l 521 917 l 521 564 z "},"Γ":{"ha":1389,"x_min":347,"x_max":1031,"o":"m 1004 689 q 808 917 972 874 l 532 917 l 532 185 q 646 146 564 142 l 646 114 l 347 114 l 347 146 q 444 196 433 140 l 444 840 q 358 917 450 917 l 358 950 l 1025 950 l 1031 689 l 1004 689 z "},"Δ":{"ha":1389,"x_min":331,"x_max":1053,"o":"m 331 119 l 678 965 l 1053 119 l 331 119 m 933 157 l 657 803 l 396 157 l 933 157 z "},"Ε":{"ha":1389,"x_min":288,"x_max":1101,"o":"m 825 776 l 825 325 l 786 325 q 722 526 803 504 l 526 526 l 526 151 l 868 151 q 1003 212 954 163 q 1074 433 1053 261 l 1101 433 l 1096 119 l 293 119 l 293 151 q 433 222 433 140 l 433 825 q 288 917 450 922 l 288 950 l 1058 950 l 1069 672 l 1042 672 q 814 917 1014 911 l 526 917 l 526 558 l 722 558 q 786 776 804 586 l 825 776 z "},"Ζ":{"ha":1389,"x_min":347,"x_max":1042,"o":"m 851 151 q 1014 418 988 179 l 1042 418 l 1031 119 l 347 119 l 885 917 l 564 917 q 461 868 499 906 q 385 667 424 831 l 358 667 l 369 950 l 1019 950 l 489 151 l 851 151 z "},"Η":{"ha":1389,"x_min":250,"x_max":1139,"o":"m 461 868 l 461 569 l 933 569 l 933 874 q 808 917 911 922 l 808 950 l 1139 950 l 1139 917 q 1014 874 1025 922 l 1014 190 q 1139 151 1025 147 l 1139 119 l 808 119 l 808 151 q 933 190 911 146 l 933 538 l 461 538 l 461 206 q 586 146 478 146 l 586 119 l 250 119 l 250 151 q 379 206 364 146 l 379 868 q 250 917 363 922 l 250 950 l 592 950 l 592 917 q 461 868 478 922 z "},"Θ":{"ha":1389,"x_min":315,"x_max":1085,"o":"m 597 944 q 792 950 694 972 q 977 830 890 928 q 1074 542 1064 732 q 974 231 1085 353 q 697 108 863 108 q 424 217 532 108 q 315 518 315 325 q 408 817 315 711 q 597 944 500 922 m 613 146 q 770 146 689 124 q 914 244 851 168 q 979 434 976 319 q 976 649 982 549 q 898 841 971 749 q 700 933 825 933 q 494 828 575 933 q 407 624 413 722 q 407 431 401 526 q 477 252 413 336 q 613 146 542 168 m 831 651 l 863 651 l 863 407 l 831 407 q 698 483 788 483 q 564 407 608 483 l 532 407 l 532 651 l 564 651 q 697 575 607 575 q 831 651 788 575 z "},"Ι":{"ha":1389,"x_min":504,"x_max":879,"o":"m 879 917 q 738 868 743 922 l 738 196 q 879 146 743 142 l 879 114 l 504 114 l 504 146 q 646 196 635 140 l 646 868 q 504 917 635 922 l 504 950 l 879 950 l 879 917 z "},"Κ":{"ha":1389,"x_min":271,"x_max":1113,"o":"m 1113 917 q 939 879 971 922 l 667 608 l 971 211 q 1113 151 1025 146 l 1113 119 l 808 119 l 808 151 q 892 174 917 146 q 613 553 868 201 l 483 424 l 483 196 q 608 151 506 147 l 608 119 l 271 119 l 271 151 q 401 196 396 146 l 401 874 q 271 917 396 922 l 271 950 l 608 950 l 608 917 q 483 874 500 917 l 483 478 q 882 876 842 831 q 808 917 922 922 l 808 950 l 1113 950 l 1113 917 z "},"Λ":{"ha":1389,"x_min":315,"x_max":1074,"o":"m 965 211 q 1074 146 988 146 l 1074 114 l 819 114 l 819 146 q 868 211 896 140 l 672 786 l 461 201 q 532 151 433 147 l 532 119 l 315 119 l 315 151 q 418 201 375 146 l 694 988 l 965 211 z "},"Μ":{"ha":1389,"x_min":196,"x_max":1183,"o":"m 325 874 q 196 917 325 922 l 196 950 l 439 950 l 706 319 l 960 950 l 1183 950 l 1183 917 q 1074 879 1075 928 l 1074 201 q 1183 151 1074 147 l 1183 119 l 857 119 l 857 151 q 982 201 976 146 l 982 900 l 667 131 l 364 885 l 364 201 q 467 151 386 147 l 467 119 l 206 119 l 206 151 q 325 201 325 146 l 325 874 z "},"Ν":{"ha":1389,"x_min":271,"x_max":1113,"o":"m 396 885 l 369 917 l 271 917 l 271 950 l 461 950 l 960 288 l 960 868 q 851 917 943 922 l 851 950 l 1113 950 l 1113 917 q 999 868 1010 922 l 999 92 l 433 836 l 433 196 q 564 151 439 147 l 564 119 l 271 119 l 271 151 q 396 201 396 146 l 396 885 z "},"Ξ":{"ha":1389,"x_min":358,"x_max":1025,"o":"m 385 342 q 478 206 401 200 l 911 206 q 999 342 988 194 l 1019 342 l 1014 119 l 364 119 l 358 342 l 385 342 m 640 564 l 722 564 q 890 672 868 558 l 917 672 l 917 379 l 890 379 q 722 478 868 482 l 629 478 q 483 379 515 478 l 456 379 l 456 667 l 483 667 q 640 564 504 558 m 478 863 q 379 722 407 863 l 358 722 l 364 950 l 1019 950 l 1025 743 l 999 743 q 917 863 988 863 l 478 863 z "},"Ο":{"ha":1389,"x_min":315,"x_max":1058,"o":"m 407 808 q 591 947 493 917 q 787 952 689 976 q 972 814 885 928 q 1056 521 1058 700 q 958 225 1053 342 q 686 111 863 108 q 413 244 510 114 q 320 538 315 375 q 407 808 325 700 m 608 151 q 758 146 685 129 q 890 231 831 163 q 958 418 950 299 q 963 635 965 538 q 887 835 960 732 q 692 933 814 939 q 499 830 569 928 q 424 632 429 732 q 424 440 418 532 q 483 260 429 347 q 608 151 538 174 z "},"Π":{"ha":1389,"x_min":217,"x_max":1161,"o":"m 456 863 l 456 201 q 581 151 461 153 l 581 119 l 217 119 l 217 151 q 364 206 353 151 l 364 868 q 222 911 353 917 l 222 950 l 1161 950 l 1161 911 q 1019 868 1019 917 l 1019 211 q 1150 157 1019 151 l 1150 125 l 786 125 l 786 157 q 933 211 922 151 l 933 863 q 851 911 911 917 l 532 911 q 456 863 461 906 z "},"Ρ":{"ha":1389,"x_min":304,"x_max":1085,"o":"m 444 836 q 304 917 444 922 l 304 950 l 846 950 q 1025 896 965 956 q 1079 741 1085 836 q 1001 592 1074 646 q 840 538 928 538 l 538 538 l 538 206 q 706 146 532 140 l 706 119 l 304 119 l 304 146 q 444 206 435 140 l 444 836 m 538 917 l 538 569 l 803 569 q 968 738 960 581 q 808 917 976 896 l 538 917 z "},"Σ":{"ha":1389,"x_min":293,"x_max":1096,"o":"m 863 201 q 1064 353 1004 196 l 1090 353 l 1042 119 l 293 119 l 711 526 l 299 950 l 1031 950 l 1096 760 l 1069 754 q 846 917 978 922 l 461 917 l 814 564 l 433 201 l 863 201 z "},"Τ":{"ha":1389,"x_min":315,"x_max":1069,"o":"m 1042 689 q 890 917 1025 879 l 726 917 l 726 206 q 890 146 738 140 l 890 114 l 483 114 l 483 146 q 640 206 635 140 l 640 917 l 483 917 q 342 694 369 863 l 315 694 l 319 950 l 1064 950 l 1069 689 l 1042 689 z "},"Υ":{"ha":1389,"x_min":325,"x_max":1064,"o":"m 732 749 l 732 196 q 836 151 760 147 l 836 119 l 532 119 l 532 151 q 646 196 635 146 l 646 743 q 581 858 640 825 q 458 871 521 890 q 363 803 396 851 q 328 795 331 754 q 355 885 325 836 q 464 958 385 933 q 616 919 543 982 q 694 726 689 857 q 790 949 706 894 q 944 982 874 1004 q 1039 908 1014 960 q 1047 811 1064 857 q 1009 822 1031 765 q 928 890 988 879 q 806 870 868 900 q 732 749 743 840 z "},"Φ":{"ha":1389,"x_min":222,"x_max":1150,"o":"m 646 840 l 646 890 q 543 933 646 939 l 543 965 l 836 965 l 836 933 q 732 890 733 939 l 732 840 q 927 824 835 846 q 1085 733 1019 803 q 1150 529 1150 663 q 1050 309 1150 396 q 732 228 950 222 l 732 185 q 840 136 726 131 l 840 103 l 532 103 l 532 136 q 646 185 651 131 l 646 228 q 323 303 407 222 q 231 513 239 385 q 315 743 222 640 q 646 840 407 846 m 732 803 l 732 265 q 958 317 874 260 q 1047 524 1042 375 q 968 740 1053 672 q 732 803 883 808 m 646 265 l 646 803 q 423 754 504 808 q 333 551 342 700 q 396 331 325 401 q 646 265 467 260 z "},"Χ":{"ha":1389,"x_min":228,"x_max":1139,"o":"m 1139 917 q 988 885 1019 922 l 732 569 l 971 233 q 1139 151 1014 147 l 1139 119 l 797 119 l 797 151 q 885 196 943 146 l 667 493 l 413 179 q 493 151 364 147 l 493 119 l 228 119 l 228 151 q 369 190 342 146 l 640 526 l 385 879 q 228 917 353 922 l 228 950 l 581 950 l 581 917 q 499 885 467 922 l 711 603 l 939 885 q 863 917 950 922 l 863 950 l 1139 950 l 1139 917 z "},"Ψ":{"ha":1389,"x_min":206,"x_max":1193,"o":"m 651 385 l 651 851 q 553 917 651 922 l 553 950 l 836 950 l 836 917 q 738 857 750 922 l 738 385 q 909 415 863 390 q 983 507 956 439 q 1004 950 1010 575 l 1193 950 l 1193 922 l 1101 900 q 1083 562 1096 694 q 985 391 1069 429 q 738 353 900 353 l 738 211 q 846 151 738 146 l 846 119 l 543 119 l 543 151 q 651 206 640 146 l 651 347 q 407 385 478 342 q 326 565 336 429 q 310 896 315 700 l 206 922 l 206 950 l 407 950 q 415 535 407 614 q 475 417 424 456 q 651 385 526 379 z "},"Ω":{"ha":1389,"x_min":315,"x_max":1090,"o":"m 792 201 l 993 201 l 1019 288 l 1047 288 l 1031 119 l 754 119 l 754 304 q 906 407 857 342 q 956 602 956 472 q 879 833 956 732 q 706 936 803 933 q 524 847 608 939 q 436 610 439 754 q 493 393 433 467 q 624 299 553 319 l 624 119 l 347 119 l 331 288 l 358 288 l 390 201 l 586 201 l 586 276 q 342 524 369 336 q 410 825 315 711 q 608 966 504 939 q 817 958 711 993 q 1006 803 922 922 q 1052 510 1090 683 q 792 282 1014 336 l 792 201 z "},"α":{"ha":1389,"x_min":364,"x_max":971,"o":"m 781 629 q 806 708 781 689 q 868 719 831 726 q 871 692 906 711 q 831 558 836 672 l 831 293 q 933 201 825 163 q 857 152 971 179 q 754 228 743 125 q 649 149 706 163 q 535 155 592 136 q 426 236 478 174 q 369 424 375 299 q 424 624 364 549 q 551 716 483 700 q 675 713 618 732 q 781 629 732 694 m 754 299 l 754 553 q 713 648 754 601 q 610 692 672 694 q 499 613 549 689 q 450 426 450 538 q 483 256 450 315 q 597 185 515 196 q 754 299 678 174 z "},"β":{"ha":1389,"x_min":342,"x_max":965,"o":"m 581 -11 l 581 -43 l 342 -43 l 342 -11 q 424 38 424 -17 l 424 700 q 458 890 418 819 q 567 987 499 960 q 713 1003 635 1014 q 854 942 792 993 q 911 790 917 890 q 803 618 906 689 q 963 428 960 564 q 908 219 965 293 q 735 138 851 146 q 499 265 618 131 l 499 38 q 581 -11 493 -17 m 499 310 q 659 188 596 207 q 784 195 722 168 q 865 299 846 222 q 871 459 885 375 q 814 573 857 543 q 706 594 771 603 q 592 578 640 586 q 543 610 543 569 q 570 651 543 651 q 640 643 597 651 q 730 632 683 635 q 806 683 776 629 q 831 811 836 738 q 768 939 825 885 q 602 955 711 993 q 499 738 493 917 l 499 310 z "},"γ":{"ha":1389,"x_min":379,"x_max":1025,"o":"m 694 315 l 868 651 q 819 683 885 683 l 819 717 l 1025 717 l 1025 683 q 911 651 933 689 l 717 271 q 787 26 814 75 q 724 -38 760 -22 q 632 -46 689 -54 q 559 35 575 -37 q 640 244 543 108 l 483 635 q 379 683 456 689 l 379 717 l 543 717 l 694 315 m 667 190 q 613 58 607 99 q 648 11 618 17 q 702 14 678 6 q 718 52 726 22 q 667 190 710 82 z "},"δ":{"ha":1389,"x_min":433,"x_max":956,"o":"m 672 717 q 518 879 526 803 q 567 1001 510 956 q 722 1042 624 1047 q 865 1003 819 1036 q 908 931 911 971 q 876 874 906 890 q 816 881 846 857 q 811 944 786 906 q 747 1001 836 982 q 619 958 657 1019 q 649 809 581 896 q 781 692 717 722 q 901 592 846 663 q 950 404 956 521 q 868 215 944 288 q 681 142 792 142 q 501 220 569 142 q 436 421 433 299 q 504 619 439 543 q 672 717 569 694 m 706 689 q 573 618 614 678 q 526 431 532 558 q 565 236 521 304 q 690 174 608 168 q 814 244 771 179 q 860 413 857 310 q 833 578 863 515 q 706 689 803 640 z "},"ε":{"ha":1389,"x_min":494,"x_max":911,"o":"m 592 467 q 507 575 510 510 q 556 681 504 640 q 670 727 608 722 q 781 708 732 732 q 852 656 831 683 q 871 608 874 629 q 854 572 868 586 q 816 564 840 558 q 786 594 792 569 q 797 629 781 618 q 784 665 814 640 q 708 692 754 689 q 630 662 663 694 q 594 581 597 629 q 608 502 592 532 q 651 483 624 472 q 710 491 678 493 q 760 475 743 489 q 754 445 776 461 q 702 429 732 429 q 651 437 672 429 q 605 412 629 444 q 581 328 581 379 q 616 241 581 276 q 711 208 651 206 q 841 274 771 211 q 876 279 911 336 q 794 187 840 222 q 681 147 749 151 q 556 188 613 142 q 497 317 499 233 q 592 467 494 401 z "},"ζ":{"ha":1389,"x_min":424,"x_max":950,"o":"m 846 960 l 846 896 q 662 738 775 858 q 524 504 549 618 q 540 350 499 390 q 624 307 581 310 q 759 296 667 304 q 881 274 851 288 q 931 236 911 261 q 947 154 950 211 q 895 54 944 97 q 746 0 846 11 q 619 10 646 -11 q 613 65 592 32 q 662 84 635 97 q 703 68 689 71 q 784 63 717 65 q 876 87 851 60 q 895 152 900 114 q 855 209 890 190 q 760 228 819 228 q 624 222 700 228 q 491 249 549 217 q 428 369 433 282 q 461 548 424 456 q 588 724 499 640 q 786 896 678 808 l 635 896 q 526 840 564 901 l 504 840 l 549 960 l 846 960 z "},"η":{"ha":1389,"x_min":456,"x_max":1085,"o":"m 618 678 q 843 751 710 754 q 982 608 976 750 l 982 22 q 993 -13 976 -10 q 1042 -6 1010 -17 q 1079 -19 1074 6 q 1039 -70 1085 -43 q 947 -90 993 -97 q 906 28 900 -82 l 906 538 q 811 676 911 668 q 629 629 711 683 l 629 244 q 694 196 624 190 l 694 168 l 478 168 l 478 201 q 553 239 560 196 l 553 597 q 456 663 564 663 l 456 689 l 618 722 l 618 678 z "},"θ":{"ha":1389,"x_min":461,"x_max":917,"o":"m 911 553 q 843 249 906 342 q 689 157 781 157 q 538 260 597 157 q 469 553 478 364 q 518 857 461 743 q 643 992 575 971 q 776 982 711 1014 q 878 860 840 950 q 911 553 917 769 m 553 564 q 588 288 564 353 q 645 198 613 222 q 722 188 678 174 q 795 290 765 201 q 825 564 825 379 l 553 564 m 825 592 q 787 887 825 803 q 692 976 749 971 q 597 892 635 982 q 553 592 558 803 l 825 592 z "},"ι":{"ha":1389,"x_min":515,"x_max":786,"o":"m 586 261 l 586 646 l 515 646 l 515 672 q 640 722 601 672 l 667 722 l 667 261 q 699 198 661 190 q 762 255 738 206 q 786 258 786 304 q 743 168 786 211 q 640 142 700 125 q 586 261 581 158 z "},"κ":{"ha":1389,"x_min":358,"x_max":911,"o":"m 521 456 q 610 483 592 450 q 670 610 629 515 q 760 714 711 706 q 824 692 808 722 q 822 635 840 663 q 767 624 803 608 q 699 569 732 640 q 640 444 667 499 l 667 429 l 771 228 q 828 198 793 190 q 887 238 863 206 q 901 214 911 271 q 817 135 890 157 q 711 179 743 114 l 608 390 q 521 396 571 396 l 521 228 q 597 185 521 185 l 597 151 l 358 151 l 358 179 q 439 222 440 174 l 439 613 q 375 683 444 689 l 375 717 l 521 717 l 521 456 z "},"λ":{"ha":1389,"x_min":347,"x_max":976,"o":"m 553 890 q 433 960 508 961 l 433 993 l 613 993 q 863 255 840 276 q 901 239 885 233 q 947 293 917 244 q 976 299 976 342 q 952 203 976 256 q 882 147 928 151 q 803 185 836 142 q 657 586 771 228 l 478 211 q 532 185 472 179 l 532 151 l 347 151 l 347 185 q 417 195 396 185 q 635 646 439 206 l 553 890 z "},"μ":{"ha":1389,"x_min":325,"x_max":965,"o":"m 489 49 q 569 11 489 6 l 569 -22 l 325 -22 l 325 11 q 407 49 407 6 l 407 646 q 353 683 413 683 l 353 711 l 489 711 l 489 276 q 606 201 506 200 q 765 304 706 201 l 765 651 q 722 683 765 683 l 722 711 l 846 711 l 846 293 q 868 217 840 211 q 923 244 896 222 q 958 260 950 265 q 925 193 965 256 q 825 144 885 131 q 765 228 765 157 q 589 135 668 125 q 489 190 510 146 l 489 49 z "},"ν":{"ha":1389,"x_min":444,"x_max":1014,"o":"m 700 131 l 521 629 q 444 672 510 672 l 444 706 l 586 706 l 738 261 l 906 646 q 846 683 922 689 l 846 711 l 1014 711 l 1014 683 q 950 646 965 689 l 726 131 l 700 131 z "},"ξ":{"ha":1389,"x_min":424,"x_max":950,"o":"m 624 917 l 526 917 q 456 874 489 922 l 429 874 l 472 982 l 819 982 l 819 917 l 683 917 q 567 743 558 814 q 616 648 575 672 q 760 624 657 624 l 760 575 q 624 551 694 581 q 531 445 553 521 q 553 317 510 369 q 684 252 597 265 q 838 220 771 239 q 928 158 906 201 q 928 49 950 114 q 849 -47 906 -17 q 719 -74 792 -76 q 638 -33 646 -71 q 646 30 629 6 q 694 24 663 54 q 759 -6 726 -6 q 827 33 792 -6 q 857 106 863 71 q 792 155 851 142 q 640 179 732 168 q 486 258 549 190 q 451 442 424 325 q 667 597 478 558 q 497 668 521 619 q 505 787 472 717 q 624 917 538 857 z "},"ο":{"ha":1389,"x_min":433,"x_max":933,"o":"m 613 706 q 763 708 689 733 q 885 613 836 683 q 933 431 933 543 q 868 235 933 319 q 686 149 803 151 q 501 233 569 146 q 436 431 433 319 q 490 613 439 543 q 613 706 542 683 m 558 256 q 640 185 596 196 q 735 188 683 174 q 816 260 786 201 q 849 428 846 319 q 816 608 851 538 q 694 683 781 678 q 565 610 608 689 q 524 424 521 532 q 558 256 526 315 z "},"π":{"ha":1389,"x_min":390,"x_max":999,"o":"m 526 657 q 424 597 461 657 l 390 597 l 444 717 l 982 717 l 982 657 l 857 657 l 857 299 q 881 220 851 213 q 955 255 911 228 q 969 217 999 282 q 860 141 939 151 q 792 244 781 131 l 792 657 l 629 657 l 629 325 q 589 171 635 200 q 494 144 543 142 q 426 171 444 146 q 418 223 407 196 q 464 247 429 250 q 501 217 499 244 q 534 198 504 190 q 564 288 564 206 l 564 657 l 526 657 z "},"ρ":{"ha":1389,"x_min":342,"x_max":971,"o":"m 592 6 l 592 -28 l 342 -28 l 342 6 q 429 49 433 0 l 429 450 q 556 683 446 624 q 767 713 667 743 q 919 581 868 683 q 933 334 971 478 q 760 152 896 190 q 510 233 624 114 l 510 60 q 592 6 506 6 m 681 196 q 816 269 786 196 q 846 415 846 342 q 830 570 846 489 q 733 676 814 651 q 586 656 651 700 q 510 478 521 613 l 510 304 q 681 196 575 196 z "},"σ":{"ha":1389,"x_min":375,"x_max":922,"o":"m 792 657 q 892 434 900 575 q 814 219 885 293 q 638 141 743 146 q 458 215 532 136 q 380 426 385 293 q 456 638 375 558 q 619 719 538 717 q 922 722 700 722 l 922 657 l 792 657 m 738 640 q 619 681 694 694 q 508 608 543 667 q 469 440 472 549 q 505 258 467 331 q 616 174 543 185 q 738 228 689 163 q 797 374 786 293 q 794 524 808 456 q 738 640 781 592 z "},"τ":{"ha":1389,"x_min":456,"x_max":933,"o":"m 569 640 q 478 581 521 646 l 456 581 l 493 706 l 933 706 l 933 640 l 738 640 l 738 276 q 770 217 732 211 q 847 255 808 222 q 879 258 885 288 q 833 185 874 228 q 729 147 792 142 q 663 244 667 151 l 663 640 l 569 640 z "},"υ":{"ha":1389,"x_min":433,"x_max":999,"o":"m 526 347 l 526 603 q 433 683 536 685 l 433 717 l 608 717 l 608 310 q 673 190 614 207 q 789 198 732 174 q 871 303 846 222 q 898 515 896 385 q 873 659 900 646 q 822 665 846 672 q 770 624 797 657 q 751 649 743 592 q 811 724 760 706 q 914 724 863 743 q 982 654 965 706 q 982 472 999 603 q 919 266 965 342 q 811 163 874 190 q 681 141 749 136 q 569 187 613 146 q 526 347 526 228 z "},"φ":{"ha":1389,"x_min":336,"x_max":1085,"o":"m 672 146 q 442 214 531 146 q 344 410 353 282 q 431 622 336 538 q 672 717 526 706 l 672 885 q 597 933 678 933 l 597 956 l 754 982 l 754 722 q 988 633 890 717 q 1077 418 1085 549 q 983 219 1069 288 q 754 146 896 151 l 754 38 q 825 0 749 -6 l 825 -32 l 603 -32 l 603 0 q 672 32 679 -6 l 672 146 m 672 179 l 672 683 q 524 621 586 683 q 456 439 461 558 q 510 247 450 319 q 672 179 569 174 m 754 689 l 754 179 q 908 242 857 179 q 968 424 960 304 q 917 613 976 543 q 754 689 857 683 z "},"χ":{"ha":1389,"x_min":390,"x_max":1004,"o":"m 732 433 q 892 192 863 228 q 944 181 922 157 q 982 244 965 206 q 1001 255 999 282 q 988 165 1004 228 q 925 94 971 103 q 838 138 879 86 q 678 369 797 190 l 515 151 q 445 111 478 103 q 401 138 413 119 q 401 179 390 157 q 437 203 413 201 q 483 201 461 206 q 657 407 504 196 q 486 670 511 640 q 413 706 461 700 l 413 732 l 549 732 l 711 467 l 851 672 q 814 706 874 710 l 814 732 l 988 732 l 988 706 q 917 694 933 706 q 732 433 900 683 z "},"ψ":{"ha":1389,"x_min":353,"x_max":1144,"o":"m 776 174 q 893 239 858 174 q 928 453 928 304 q 933 673 928 603 q 1009 751 939 743 q 1112 733 1079 760 q 1144 692 1144 706 q 1079 689 1144 678 q 1009 638 1014 700 q 1004 423 1004 575 q 947 208 1004 271 q 776 146 890 146 l 776 43 q 846 0 776 0 l 846 -28 l 635 -28 l 635 0 q 700 43 706 -6 l 700 146 q 532 187 597 146 q 467 415 467 228 l 467 643 q 434 683 467 683 q 385 673 401 683 q 361 673 369 663 q 401 724 353 683 q 499 744 450 765 q 546 660 549 722 q 546 437 543 597 q 583 231 549 276 q 700 174 618 185 l 700 667 q 635 711 706 710 l 635 732 l 776 754 l 776 174 z "},"ω":{"ha":1389,"x_min":299,"x_max":1085,"o":"m 694 222 q 528 146 618 140 q 374 222 439 151 q 304 385 310 293 q 339 551 299 478 q 442 665 379 624 q 558 716 504 706 q 537 686 613 726 q 426 562 461 646 q 399 383 390 478 q 442 239 407 288 q 540 182 478 190 q 657 256 603 174 l 657 461 l 732 461 l 732 256 q 814 185 754 201 q 925 225 874 168 q 985 383 976 282 q 969 553 993 483 q 912 653 944 624 q 835 708 879 683 q 865 710 792 732 q 1001 624 939 689 q 1074 428 1064 558 q 1012 222 1085 299 q 852 143 939 146 q 694 222 765 140 z "},"Ё":{"ha":1389,"x_min":304,"x_max":1074,"o":"m 444 890 q 304 939 450 944 l 304 965 l 1058 965 l 1058 700 l 1036 700 q 868 939 1014 906 l 597 939 q 532 879 526 944 l 532 586 l 732 586 q 797 797 803 608 l 825 797 l 825 353 l 797 353 q 732 553 797 521 l 532 553 l 532 217 q 586 163 526 163 l 879 163 q 1053 444 1042 185 l 1074 444 l 1074 136 l 304 136 l 304 163 q 444 211 435 157 l 444 890 m 939 1042 q 884 1004 928 1004 q 827 1042 840 1004 q 847 1106 814 1079 q 917 1109 879 1133 q 939 1042 956 1085 m 586 1042 q 532 1004 575 1004 q 475 1042 489 1004 q 494 1106 461 1079 q 565 1109 526 1133 q 586 1042 603 1085 z "},"А":{"ha":1389,"x_min":265,"x_max":1107,"o":"m 510 157 l 510 131 l 265 131 l 265 157 q 385 233 351 146 l 672 976 l 982 265 q 1042 165 1019 174 q 1107 157 1064 157 l 1107 131 l 840 131 l 840 157 q 898 160 863 157 q 900 228 933 163 l 825 418 l 493 418 l 418 228 q 432 157 386 157 l 510 157 m 504 450 l 814 450 l 657 840 l 504 450 z "},"Б":{"ha":1389,"x_min":336,"x_max":1064,"o":"m 732 142 l 336 142 l 336 168 q 429 201 413 163 l 429 900 q 342 944 418 943 l 342 971 l 1010 971 l 1014 717 l 993 717 q 819 944 965 918 l 592 944 q 515 874 506 956 l 515 586 l 749 586 q 1001 502 939 581 q 1050 331 1064 424 q 955 188 1036 239 q 732 142 874 136 m 515 558 l 515 168 l 678 168 q 898 222 840 163 q 950 374 956 282 q 874 513 944 467 q 672 558 803 558 l 515 558 z "},"В":{"ha":1389,"x_min":315,"x_max":1074,"o":"m 429 906 q 315 950 424 949 l 315 971 l 657 971 q 923 936 842 976 q 1020 798 1004 896 q 982 646 1036 700 q 868 581 928 592 q 1009 513 944 564 q 1069 356 1074 461 q 974 193 1064 250 q 640 142 885 136 l 315 142 l 315 163 q 429 206 401 157 l 429 906 m 515 201 q 564 168 510 164 l 678 168 q 906 231 835 168 q 960 393 976 293 q 860 526 944 493 q 667 553 776 558 l 515 553 l 515 201 m 515 581 l 667 581 q 838 613 769 581 q 919 743 906 646 q 876 892 933 840 q 694 944 819 944 l 558 944 q 515 917 521 950 l 515 581 z "},"Г":{"ha":1389,"x_min":347,"x_max":1031,"o":"m 532 206 q 651 163 526 157 l 651 136 l 347 136 l 347 163 q 444 206 444 157 l 444 911 q 358 950 444 949 l 358 971 l 1025 971 l 1031 722 l 1010 722 q 857 944 978 896 l 586 944 q 532 906 532 944 l 532 206 z "},"Д":{"ha":1389,"x_min":256,"x_max":1118,"o":"m 1101 -43 q 976 136 1053 119 l 385 136 q 276 -37 319 119 l 256 -37 l 265 179 l 379 179 q 477 481 450 304 q 515 874 504 657 q 467 928 515 928 l 375 928 l 375 971 l 1101 971 l 1101 922 q 976 879 988 933 l 976 228 q 1053 179 988 185 l 1113 179 l 1118 -43 l 1101 -43 m 439 179 l 831 179 q 890 250 896 168 l 890 885 q 836 928 896 922 l 624 928 q 569 885 564 928 q 528 478 558 663 q 439 179 499 293 z "},"Е":{"ha":1389,"x_min":288,"x_max":1090,"o":"m 439 896 q 288 944 444 950 l 288 971 l 1064 971 l 1064 706 l 1047 706 q 863 944 1015 911 l 592 944 q 526 885 521 950 l 526 592 l 726 592 q 792 803 797 614 l 819 803 l 819 358 l 792 358 q 726 558 792 526 l 526 558 l 526 222 q 581 168 521 168 l 874 168 q 1074 450 1036 190 l 1090 450 l 1090 142 l 288 142 l 288 168 q 439 217 429 163 l 439 896 z "},"Ж":{"ha":1389,"x_min":146,"x_max":1247,"o":"m 792 569 l 732 569 l 732 217 q 851 185 743 179 l 851 151 l 538 151 l 538 179 q 657 217 635 174 l 657 569 l 581 569 q 458 518 499 558 q 401 407 418 478 q 363 255 385 336 q 288 155 342 174 q 195 166 233 136 q 151 266 157 196 q 181 290 146 336 q 239 239 217 244 q 274 266 261 233 q 306 374 288 299 q 377 515 325 450 q 558 592 429 581 q 407 684 456 597 q 310 906 358 771 q 244 882 278 868 q 203 928 211 896 q 233 985 196 960 q 309 985 271 1010 q 356 928 347 960 q 397 806 364 896 q 472 665 429 717 q 624 603 515 613 l 657 603 l 657 890 q 608 939 658 939 l 538 939 l 538 971 l 851 971 l 851 939 l 781 939 q 732 890 732 939 l 732 603 l 771 603 q 942 700 896 614 q 1006 863 988 786 q 1060 969 1025 939 q 1142 969 1096 999 q 1158 890 1188 939 q 1069 890 1128 840 q 985 692 1032 776 q 831 592 939 608 q 1017 502 961 575 q 1090 364 1074 429 q 1120 260 1107 299 q 1156 228 1133 222 q 1188 293 1178 233 q 1223 277 1199 353 q 1215 166 1247 201 q 1142 133 1183 131 q 1066 174 1101 136 q 1009 325 1031 211 q 944 501 988 439 q 792 569 900 564 z "},"З":{"ha":1389,"x_min":396,"x_max":982,"o":"m 543 564 l 543 586 q 801 629 739 581 q 863 757 863 678 q 814 890 863 836 q 689 942 765 944 q 553 892 613 939 q 444 678 493 846 l 429 678 l 429 971 l 450 971 q 505 892 467 851 q 616 960 543 933 q 763 972 689 988 q 893 906 836 956 q 953 773 950 857 q 915 646 956 689 q 771 575 874 603 q 933 499 885 547 q 982 380 982 450 q 939 253 982 310 q 809 166 896 196 q 646 141 722 136 q 507 176 569 146 q 423 241 444 206 q 399 320 401 276 q 442 374 396 364 q 508 344 489 385 q 488 280 526 304 q 510 215 450 256 q 667 174 569 174 q 831 233 765 174 q 890 388 896 293 q 801 526 885 483 q 543 564 717 569 z "},"И":{"ha":1389,"x_min":228,"x_max":1150,"o":"m 575 944 q 450 890 456 944 l 450 288 l 933 896 l 933 922 q 808 944 911 944 l 808 971 l 1150 971 l 1150 944 q 1025 900 1031 944 l 1025 228 q 1150 163 1031 163 l 1150 136 l 808 136 l 808 163 q 933 228 917 163 l 933 836 l 450 239 l 450 206 q 575 163 461 163 l 575 136 l 228 136 l 228 163 q 353 211 342 163 l 353 890 q 228 944 342 944 l 228 971 l 575 971 l 575 944 z "},"Й":{"ha":1389,"x_min":233,"x_max":1156,"o":"m 786 1124 q 838 1094 824 1129 q 811 1020 851 1058 q 700 976 771 982 q 586 1003 629 971 q 540 1074 543 1036 q 570 1123 538 1113 q 624 1115 603 1133 q 640 1074 646 1096 q 622 1042 635 1053 q 646 1017 608 1031 q 727 1020 683 1004 q 751 1053 771 1036 q 740 1097 732 1069 q 786 1124 749 1124 m 581 944 q 456 890 461 944 l 456 288 l 939 896 l 939 922 q 814 944 917 944 l 814 971 l 1156 971 l 1156 944 q 1031 900 1036 944 l 1031 228 q 1156 163 1036 163 l 1156 136 l 814 136 l 814 163 q 939 228 922 163 l 939 836 l 456 239 l 456 206 q 581 163 467 163 l 581 136 l 233 136 l 233 163 q 358 211 347 163 l 358 890 q 233 944 347 944 l 233 971 l 581 971 l 581 944 z "},"К":{"ha":1389,"x_min":299,"x_max":1031,"o":"m 493 564 l 493 217 q 608 168 506 168 l 608 142 l 299 142 l 299 168 q 407 217 396 163 l 407 900 q 299 944 396 943 l 299 971 l 608 971 l 608 944 q 493 906 494 944 l 493 592 l 538 592 q 657 646 592 608 q 733 790 722 683 q 814 933 743 896 q 922 963 885 971 q 976 926 960 956 q 974 866 993 896 q 915 838 956 836 q 863 873 874 840 q 819 884 851 906 q 765 738 786 863 q 592 581 743 613 q 767 556 694 575 q 873 467 840 538 q 903 306 906 396 q 933 222 900 217 q 974 290 965 228 q 1001 317 982 353 q 1025 236 1019 282 q 998 158 1031 190 q 906 135 965 125 q 824 192 846 146 q 792 364 803 239 q 732 516 781 489 q 621 553 683 543 q 493 564 558 564 z "},"Л":{"ha":1389,"x_min":239,"x_max":1144,"o":"m 618 890 q 588 410 618 554 q 494 201 558 265 q 372 139 429 136 q 283 169 315 142 q 244 231 250 196 q 258 295 239 265 q 309 325 276 325 q 358 290 342 325 q 340 231 375 256 q 344 187 304 206 q 420 190 385 168 q 488 265 456 211 q 548 442 521 319 q 575 896 575 564 q 538 944 581 939 l 456 944 l 456 971 l 1144 971 l 1144 944 q 1025 896 1036 950 l 1025 228 q 1128 185 1019 179 l 1128 157 l 819 157 l 819 185 q 939 233 933 179 l 939 896 q 890 944 944 944 l 667 944 q 618 890 613 944 z "},"М":{"ha":1389,"x_min":201,"x_max":1183,"o":"m 1069 900 l 1069 228 q 1178 168 1058 168 l 1178 142 l 846 142 l 846 168 q 971 228 976 168 l 971 896 l 663 131 l 353 922 l 353 222 q 467 168 375 168 l 467 142 l 201 142 l 201 168 q 319 222 310 168 l 319 906 q 201 944 319 943 l 201 971 l 444 971 l 694 304 l 960 971 l 1183 971 l 1183 944 q 1069 900 1069 943 z "},"Н":{"ha":1389,"x_min":233,"x_max":1144,"o":"m 358 217 l 358 896 q 233 944 347 944 l 233 971 l 575 971 l 575 944 q 456 900 461 944 l 456 592 l 922 592 l 922 890 q 797 944 911 944 l 797 971 l 1144 971 l 1144 944 q 1014 896 1025 944 l 1014 217 q 1144 168 1025 168 l 1144 142 l 797 142 l 797 168 q 922 222 911 168 l 922 564 l 456 564 l 456 211 q 597 168 461 168 l 597 142 l 233 142 l 233 168 q 358 217 347 168 z "},"О":{"ha":1389,"x_min":310,"x_max":1074,"o":"m 960 250 q 678 139 846 136 q 410 266 510 142 q 310 551 310 390 q 397 819 310 711 q 589 958 483 928 q 800 958 694 988 q 990 819 906 928 q 1074 538 1074 711 q 960 250 1074 364 m 407 549 q 483 294 413 392 q 624 176 553 196 q 763 176 694 157 q 903 293 831 196 q 976 551 976 390 q 914 808 976 711 q 773 933 851 906 q 616 933 694 960 q 472 808 538 906 q 407 549 407 711 z "},"П":{"ha":1389,"x_min":222,"x_max":1156,"o":"m 222 168 q 358 211 353 163 l 358 890 q 228 944 353 944 l 228 971 l 1156 971 l 1156 944 q 1014 896 1014 933 l 1014 206 q 1139 174 1019 174 l 1139 142 l 781 142 l 781 168 q 928 206 911 168 l 928 885 q 868 944 933 933 l 504 944 q 450 890 444 939 l 450 211 q 575 174 461 168 l 575 142 l 222 142 l 222 168 z "},"Р":{"ha":1389,"x_min":293,"x_max":1085,"o":"m 538 553 l 538 217 q 711 163 532 157 l 711 136 l 304 136 l 304 163 q 444 211 435 157 l 444 885 q 293 944 444 944 l 293 971 l 732 971 q 998 928 911 976 q 1082 765 1085 879 q 982 600 1079 651 q 726 553 885 549 l 538 553 m 538 581 l 717 581 q 958 722 939 586 q 898 903 976 857 q 722 944 819 950 l 538 944 l 538 581 z "},"С":{"ha":1389,"x_min":342,"x_max":1036,"o":"m 1010 976 l 1031 971 l 1031 646 l 1010 646 q 893 868 956 808 q 719 936 831 928 q 524 831 608 944 q 439 553 439 717 q 496 301 439 390 q 651 192 553 211 q 838 212 749 174 q 969 320 928 250 q 1023 388 1010 390 q 1001 312 1036 385 q 881 188 965 239 q 665 141 797 136 q 437 252 532 146 q 344 553 342 358 q 440 849 347 749 q 629 966 532 950 q 778 969 726 982 q 871 931 831 956 q 971 857 911 906 l 1010 976 z "},"Т":{"ha":1389,"x_min":310,"x_max":1074,"o":"m 1058 694 q 863 944 1026 906 l 732 944 l 732 228 q 890 168 754 168 l 890 142 l 489 142 l 489 168 q 646 228 635 168 l 646 944 l 521 944 q 331 694 336 863 l 310 694 l 315 971 l 1069 971 l 1074 694 l 1058 694 z "},"У":{"ha":1389,"x_min":271,"x_max":1101,"o":"m 569 944 q 483 911 450 944 l 706 433 l 928 900 q 874 944 939 943 l 874 971 l 1101 971 l 1101 944 q 965 896 988 950 q 602 185 656 233 q 481 133 549 136 q 372 179 413 131 q 331 266 331 228 q 355 328 331 304 q 417 339 379 353 q 453 285 456 325 q 401 222 450 244 q 480 168 433 168 q 562 198 526 168 q 651 336 597 228 l 385 900 q 271 944 357 943 l 271 971 l 575 971 l 569 944 z "},"Ф":{"ha":1389,"x_min":233,"x_max":1161,"o":"m 732 244 l 732 206 q 771 163 732 163 l 846 163 l 846 136 l 543 136 l 543 163 l 613 163 q 651 206 650 163 l 651 244 q 337 345 440 261 q 236 559 233 429 q 326 765 239 689 q 651 863 413 840 l 651 900 q 618 944 657 943 l 543 944 l 543 971 l 836 971 l 836 944 l 776 944 q 732 900 733 944 l 732 863 q 1049 776 938 857 q 1161 562 1161 694 q 1049 345 1161 429 q 732 244 938 261 m 732 282 q 952 356 857 282 q 1050 551 1047 429 q 966 746 1053 672 q 732 836 879 819 l 732 282 m 651 288 l 651 831 q 413 738 494 819 q 336 551 331 657 q 421 372 342 444 q 651 288 500 299 z "},"Х":{"ha":1389,"x_min":222,"x_max":1161,"o":"m 640 553 l 424 857 q 261 933 369 933 l 261 960 l 629 960 l 629 933 q 538 879 493 933 l 717 635 l 906 857 q 836 933 971 933 l 836 960 l 1150 960 l 1150 933 q 928 808 1036 933 l 743 586 l 960 293 q 1161 185 1046 185 l 1161 151 l 760 151 l 760 185 q 863 244 906 185 l 672 510 l 439 239 q 538 185 385 185 l 538 151 l 222 151 l 222 185 q 379 250 319 185 l 640 553 z "},"Ц":{"ha":1389,"x_min":233,"x_max":1144,"o":"m 353 233 l 353 890 q 244 950 364 950 l 244 976 l 558 976 l 558 950 q 439 890 439 956 l 439 168 l 933 168 l 933 890 q 803 950 933 950 l 803 976 l 1133 976 l 1133 950 q 1014 890 1014 950 l 1014 217 q 1085 163 1014 168 l 1144 163 l 1144 -43 l 1118 -43 q 988 142 1118 119 l 233 142 l 233 168 q 353 233 347 163 z "},"Ч":{"ha":1389,"x_min":233,"x_max":1144,"o":"m 1010 885 l 1010 222 q 1139 168 1010 163 l 1139 142 l 786 142 l 786 168 q 922 228 911 163 l 922 538 q 722 467 792 483 q 551 458 651 450 q 407 505 450 467 q 358 618 364 543 l 358 874 q 299 944 353 944 l 233 944 l 233 971 l 581 971 l 581 944 l 504 944 q 456 885 450 939 l 456 640 q 619 524 472 543 q 922 581 765 504 l 922 879 q 792 944 906 944 l 792 971 l 1144 971 l 1144 944 q 1010 885 1004 950 z "},"Ш":{"ha":1389,"x_min":65,"x_max":1318,"o":"m 792 174 l 1036 174 q 1101 233 1090 179 l 1101 896 q 976 939 1090 939 l 976 971 l 1318 971 l 1318 939 q 1193 896 1193 939 l 1193 228 q 1307 168 1188 168 l 1307 136 l 71 136 l 71 168 q 174 222 179 168 l 174 885 q 65 939 179 939 l 65 971 l 390 971 l 390 939 q 265 879 276 939 l 265 228 q 342 174 276 179 l 575 174 q 651 228 635 179 l 651 896 q 538 939 635 939 l 538 971 l 851 971 l 851 939 q 743 896 732 939 l 743 228 q 792 174 738 179 z "},"Щ":{"ha":1389,"x_min":65,"x_max":1297,"o":"m 92 168 q 179 233 183 163 l 179 890 q 65 944 174 944 l 65 971 l 390 971 l 390 944 q 271 890 276 944 l 271 222 q 342 174 265 174 l 581 174 q 646 244 646 174 l 646 885 q 526 944 646 944 l 526 971 l 840 971 l 846 944 q 732 900 732 944 l 732 244 q 797 174 732 168 l 1042 174 q 1113 222 1113 174 l 1113 890 q 1010 944 1113 944 l 1010 971 l 1297 971 l 1297 944 q 1199 890 1211 944 l 1199 217 q 1297 163 1199 157 l 1297 -54 l 1275 -54 q 1196 98 1247 54 q 1053 142 1144 142 l 92 142 l 92 168 z "},"Ъ":{"ha":1389,"x_min":222,"x_max":1161,"o":"m 424 142 l 424 168 q 543 217 538 163 l 543 885 q 478 944 543 944 l 353 944 q 256 726 250 863 l 222 726 l 222 971 l 771 971 l 771 944 q 629 890 629 950 l 629 581 l 792 581 q 1074 526 993 586 q 1158 361 1156 467 q 1074 196 1161 256 q 797 142 988 136 l 424 142 m 694 168 l 808 168 q 982 209 900 163 q 1061 350 1064 256 q 1001 497 1058 444 q 781 549 944 549 l 629 549 l 629 217 q 694 168 635 163 z "},"Ы":{"ha":1389,"x_min":151,"x_max":1221,"o":"m 271 206 l 271 896 q 151 944 271 944 l 151 971 l 515 971 l 515 944 q 364 900 364 950 l 364 564 l 543 564 q 809 513 722 569 q 896 350 896 456 q 803 190 896 244 q 510 142 711 136 l 157 142 l 157 168 q 271 206 260 168 m 364 217 q 424 168 364 168 l 543 168 q 716 212 646 163 q 789 347 786 261 q 727 485 792 433 q 526 538 663 538 l 364 538 l 364 217 m 1113 900 l 1113 211 q 1221 168 1113 163 l 1221 142 l 885 142 l 885 168 q 1019 211 1021 163 l 1019 900 q 900 944 1019 943 l 900 971 l 1210 971 l 1210 944 q 1113 900 1107 943 z "},"Ь":{"ha":1389,"x_min":310,"x_max":1064,"o":"m 526 896 l 526 586 l 726 586 q 979 529 900 586 q 1061 367 1058 472 q 982 199 1064 261 q 717 142 900 136 l 315 142 l 315 168 q 450 228 451 168 l 450 900 q 310 950 433 949 l 310 976 l 667 976 l 667 950 q 526 896 521 950 m 526 168 l 738 168 q 906 219 846 163 q 963 369 965 276 q 887 510 960 461 q 689 558 814 558 l 526 558 l 526 168 z "},"Э":{"ha":1389,"x_min":390,"x_max":1019,"o":"m 928 581 q 847 844 922 760 q 673 933 771 928 q 502 876 575 939 q 418 683 429 814 l 390 683 l 390 971 l 418 971 l 433 857 q 531 944 476 917 q 706 965 586 971 q 922 851 825 960 q 1019 553 1019 743 q 919 255 1019 364 q 692 146 819 146 q 515 165 564 146 q 431 223 467 185 q 396 304 396 261 q 440 358 396 347 q 508 342 483 369 q 510 280 532 315 q 535 215 489 244 q 670 190 581 185 q 844 274 760 196 q 928 543 928 353 l 608 543 l 608 581 l 928 581 z "},"Ю":{"ha":1389,"x_min":125,"x_max":1253,"o":"m 467 553 l 310 553 l 310 217 q 407 168 304 163 l 407 142 l 125 142 l 125 168 q 222 217 222 163 l 222 890 q 125 944 233 944 l 125 971 l 407 971 l 407 944 q 310 890 299 950 l 310 581 l 467 581 q 553 841 467 738 q 754 966 640 944 q 982 963 868 988 q 1174 835 1096 939 q 1253 561 1253 732 q 1153 263 1253 390 q 871 133 1053 136 q 586 231 689 131 q 467 553 483 331 m 792 168 q 941 174 857 163 q 1099 304 1025 185 q 1169 575 1172 424 q 1101 833 1167 726 q 874 944 1036 939 q 627 841 711 950 q 553 540 543 732 q 645 263 564 347 q 792 168 726 179 z "},"Я":{"ha":1389,"x_min":304,"x_max":1058,"o":"m 944 890 l 944 228 q 999 168 939 163 l 1058 168 l 1058 142 l 738 142 l 738 168 q 857 222 863 163 l 857 483 l 678 483 q 591 380 624 440 q 553 263 558 319 q 521 160 549 206 q 434 108 493 114 q 340 130 375 103 q 312 219 304 157 q 339 242 319 282 q 374 188 358 201 q 415 182 390 174 q 458 263 439 190 q 526 385 478 336 q 624 483 575 433 q 415 581 461 526 q 361 733 369 635 q 437 903 353 831 q 732 971 521 976 l 1042 971 l 1042 944 q 944 890 944 950 m 857 515 l 857 890 q 803 944 857 944 l 672 944 q 521 871 569 933 q 478 710 472 808 q 540 564 483 613 q 667 515 597 515 l 857 515 z "},"а":{"ha":1389,"x_min":456,"x_max":928,"o":"m 808 558 l 808 288 q 838 196 808 196 q 911 288 868 196 l 928 276 q 825 138 896 135 q 749 228 754 142 q 599 136 672 136 q 491 176 526 136 q 456 276 456 217 q 521 399 456 336 q 749 489 586 461 l 749 569 q 681 659 749 651 q 588 651 613 667 q 575 616 564 635 q 586 581 586 597 q 572 551 586 564 q 537 538 558 538 q 499 553 515 538 q 488 605 483 569 q 537 673 493 640 q 646 711 581 706 q 763 678 711 717 q 808 558 814 640 m 749 265 l 749 456 q 586 385 635 433 q 538 279 538 336 q 575 203 538 222 q 638 192 613 185 q 749 265 663 200 z "},"б":{"ha":1389,"x_min":433,"x_max":944,"o":"m 917 956 q 756 838 900 836 q 553 773 613 840 q 499 608 493 706 q 567 674 515 631 q 710 717 618 717 q 874 635 803 717 q 944 428 944 553 q 876 223 944 304 q 694 142 808 142 q 507 231 581 142 q 439 510 433 319 q 513 792 444 700 q 713 892 581 885 q 878 931 846 900 q 917 956 911 961 m 640 174 q 735 174 683 163 q 824 242 786 185 q 863 413 863 299 q 819 605 863 526 q 687 683 776 683 q 548 610 597 683 q 499 426 499 538 q 551 253 499 315 q 640 174 603 190 z "},"в":{"ha":1389,"x_min":407,"x_max":988,"o":"m 407 142 l 407 168 q 483 211 467 168 l 483 694 q 407 738 478 738 l 407 765 l 651 765 q 879 747 808 771 q 950 613 950 722 q 831 472 950 504 q 955 401 922 456 q 972 279 988 347 q 893 174 956 211 q 624 142 831 136 l 407 142 m 575 168 l 700 168 q 830 203 792 174 q 874 312 868 233 q 828 423 879 390 q 700 450 776 456 l 575 450 l 575 168 m 575 732 l 575 483 l 683 483 q 846 562 829 472 q 833 694 863 651 q 706 732 803 738 l 575 732 z "},"г":{"ha":1389,"x_min":429,"x_max":960,"o":"m 651 678 q 592 618 603 661 l 592 206 q 694 174 614 168 l 694 142 l 439 142 l 439 168 q 515 228 504 168 l 515 624 q 429 678 499 678 l 429 711 l 956 711 l 960 521 l 933 521 q 831 678 911 635 l 651 678 z "},"д":{"ha":1389,"x_min":385,"x_max":999,"o":"m 558 640 q 467 678 558 683 l 467 711 l 971 711 l 971 678 q 885 635 885 683 l 885 206 q 933 174 885 168 l 999 174 l 999 -37 l 976 -37 q 846 142 954 108 l 521 142 q 413 -37 418 99 l 385 -37 l 385 174 l 439 174 q 499 206 482 174 q 558 640 558 331 m 803 206 l 803 624 q 760 678 808 672 l 635 678 q 597 635 597 678 q 538 206 586 319 q 564 174 521 174 l 749 174 q 803 206 803 168 z "},"е":{"ha":1389,"x_min":450,"x_max":944,"o":"m 944 456 l 553 456 q 585 290 547 358 q 705 214 624 222 q 838 241 786 206 q 911 319 890 276 l 944 319 q 863 203 922 254 q 697 151 803 151 q 524 222 592 151 q 453 428 456 293 q 518 640 450 564 q 656 730 586 717 q 786 724 726 743 q 892 649 846 706 q 944 456 939 592 m 553 493 l 846 493 q 797 645 840 601 q 703 689 754 689 q 605 642 651 689 q 553 493 558 596 z "},"ж":{"ha":1389,"x_min":288,"x_max":1081,"o":"m 646 424 q 551 377 586 424 q 494 252 515 331 q 440 149 472 174 q 374 133 407 125 q 315 185 342 142 q 304 239 288 228 q 418 266 386 157 q 569 433 450 375 q 418 640 461 450 q 356 632 381 613 q 333 676 331 651 q 363 708 336 700 q 417 706 390 717 q 450 667 444 694 q 485 578 456 640 q 548 483 515 515 q 646 450 581 450 l 646 640 q 553 678 646 683 l 553 711 l 825 711 l 825 678 q 732 640 749 683 l 732 450 q 835 483 797 456 q 901 581 874 510 q 933 676 928 651 q 966 711 939 700 q 1023 703 993 722 q 1039 653 1053 683 q 976 635 1025 624 q 797 433 928 444 q 895 372 846 428 q 969 233 944 315 q 1069 228 993 151 q 1056 168 1081 206 q 993 128 1031 131 q 923 152 956 125 q 874 252 890 179 q 833 374 857 325 q 732 424 808 424 l 732 196 q 825 157 760 153 l 825 131 l 553 131 l 553 157 q 646 201 635 157 l 646 424 z "},"з":{"ha":1389,"x_min":456,"x_max":922,"o":"m 797 439 q 890 385 857 428 q 919 288 922 342 q 890 195 917 233 q 806 135 863 157 q 665 119 749 114 q 537 158 581 125 q 474 223 493 190 q 461 290 456 256 q 505 333 467 325 q 556 306 543 342 q 515 239 569 271 q 591 171 547 196 q 703 154 635 146 q 801 198 771 163 q 835 296 831 233 q 800 394 840 358 q 613 424 760 429 l 613 450 q 762 477 721 444 q 808 567 803 510 q 781 662 814 624 q 692 689 749 700 q 572 632 635 678 q 499 504 510 586 l 483 504 l 483 711 l 499 711 l 521 629 q 616 700 581 683 q 676 722 651 717 q 749 722 700 726 q 844 676 797 717 q 888 575 890 635 q 863 485 885 515 q 797 439 840 456 z "},"и":{"ha":1389,"x_min":379,"x_max":1004,"o":"m 549 228 q 629 157 543 146 l 629 131 l 379 131 l 379 157 q 467 196 461 157 l 467 635 q 396 683 461 683 l 396 711 l 603 711 l 603 683 q 549 646 554 683 l 549 276 l 846 635 q 776 683 851 689 l 776 711 l 993 711 l 993 683 q 922 635 922 683 l 922 206 q 1004 157 933 157 l 1004 131 l 771 131 l 771 157 q 846 201 842 157 l 846 575 l 549 228 z "},"й":{"ha":1389,"x_min":379,"x_max":999,"o":"m 379 211 q 450 250 439 206 l 450 640 q 379 683 433 683 l 379 711 l 613 711 l 613 683 q 526 646 526 689 l 526 276 l 846 618 q 771 683 857 683 l 771 711 l 999 711 l 999 683 q 922 640 928 683 l 922 250 q 999 211 928 213 l 999 179 l 754 179 l 754 211 q 846 250 831 211 l 846 575 l 526 239 q 613 211 521 207 l 613 179 l 379 179 l 379 211 m 613 819 q 771 819 683 760 q 763 869 749 847 q 806 882 776 890 q 838 849 836 874 q 827 808 840 825 q 778 776 814 792 q 689 757 743 760 q 602 773 635 754 q 556 819 569 792 q 551 868 543 846 q 585 890 558 890 q 626 871 613 890 q 613 819 640 851 z "},"к":{"ha":1389,"x_min":385,"x_max":1004,"o":"m 840 672 q 784 548 803 613 q 717 456 765 483 q 812 355 793 433 q 844 228 831 276 q 887 179 857 179 q 960 239 917 179 q 993 244 1004 299 q 947 158 982 190 q 846 133 911 125 q 770 256 781 142 q 735 397 760 369 q 657 439 711 424 l 549 439 l 549 201 q 635 157 560 158 l 635 131 l 385 131 l 385 157 q 472 206 461 157 l 472 640 q 385 683 461 683 l 385 711 l 618 711 l 618 683 q 549 640 547 683 l 549 472 l 646 472 q 752 551 728 472 q 798 667 776 629 q 858 719 819 706 q 923 710 896 732 q 944 656 950 689 q 898 615 939 624 q 840 672 857 607 z "},"л":{"ha":1389,"x_min":375,"x_max":999,"o":"m 608 319 q 562 176 597 211 q 480 136 526 142 q 412 138 433 131 q 383 168 390 146 q 380 212 375 190 q 415 244 385 233 q 467 231 444 256 q 467 174 489 206 q 569 293 543 168 l 586 640 q 493 683 592 689 l 493 711 l 999 711 l 999 683 q 911 635 913 683 l 911 206 q 988 157 922 157 l 988 131 l 765 131 l 765 157 q 836 190 819 157 l 836 635 q 792 678 836 678 l 663 678 q 624 640 625 678 l 608 319 z "},"м":{"ha":1389,"x_min":331,"x_max":1047,"o":"m 418 185 l 418 640 q 331 683 418 683 l 331 711 l 472 711 l 694 244 l 900 711 l 1031 711 l 1031 683 q 976 651 976 683 l 976 211 q 1047 157 982 163 l 1047 131 l 831 131 l 831 157 q 900 206 907 151 l 900 624 l 672 114 l 450 592 l 450 185 q 526 157 461 157 l 526 131 l 347 131 l 347 157 q 418 185 407 157 z "},"н":{"ha":1389,"x_min":336,"x_max":1053,"o":"m 950 586 l 950 131 q 1053 86 961 86 l 1053 54 l 765 54 l 765 86 q 868 136 857 86 l 868 342 l 515 342 l 515 136 q 618 86 526 86 l 618 54 l 336 54 l 336 86 q 433 136 422 86 l 433 586 q 336 629 422 629 l 336 663 l 618 663 l 618 629 q 515 586 526 629 l 515 379 l 868 379 l 868 592 q 765 629 857 629 l 765 663 l 1053 663 l 1053 629 q 950 586 961 629 z "},"о":{"ha":1389,"x_min":424,"x_max":950,"o":"m 944 424 q 879 203 950 288 q 683 117 808 119 q 494 201 558 114 q 426 413 429 288 q 488 616 424 538 q 618 713 553 694 q 751 716 683 732 q 882 630 819 700 q 944 424 944 560 m 640 151 q 738 154 683 135 q 827 239 792 174 q 865 418 863 304 q 819 610 868 532 q 690 689 771 689 q 553 608 608 689 q 504 401 499 526 q 553 222 510 276 q 640 151 597 168 z "},"п":{"ha":1389,"x_min":379,"x_max":1004,"o":"m 526 640 l 526 201 q 613 163 538 164 l 613 131 l 379 131 l 379 163 q 450 201 439 163 l 450 629 q 379 678 439 678 l 379 711 l 1004 711 l 1004 678 q 917 635 913 678 l 917 206 q 988 163 922 163 l 988 131 l 760 131 l 760 163 q 840 196 831 157 l 840 635 q 803 678 840 678 l 564 678 q 526 640 526 672 z "},"р":{"ha":1389,"x_min":413,"x_max":993,"o":"m 592 228 l 592 32 q 629 -6 592 -6 l 700 -6 l 700 -37 l 413 -37 l 413 -6 l 472 -6 q 515 32 515 -6 l 515 608 q 491 644 510 636 q 429 651 472 651 l 429 672 l 569 700 l 592 700 l 592 651 q 781 722 689 733 q 933 630 874 711 q 990 410 993 549 q 917 203 988 271 q 760 128 846 136 q 592 228 674 119 m 592 265 q 741 171 674 174 q 852 217 808 168 q 901 385 896 265 q 876 581 906 504 q 784 678 846 657 q 592 624 722 700 l 592 265 z "},"с":{"ha":1389,"x_min":450,"x_max":933,"o":"m 879 276 q 920 325 907 325 q 903 252 933 325 q 808 144 874 179 q 653 122 743 108 q 507 215 564 136 q 450 421 450 293 q 518 627 450 549 q 654 722 586 706 q 774 727 722 738 q 868 681 825 717 q 919 597 911 646 q 912 529 928 549 q 863 510 896 510 q 822 545 831 510 q 838 597 814 581 q 835 648 863 613 q 740 692 808 683 q 605 632 672 700 q 532 442 538 564 q 569 244 526 319 q 689 163 613 168 q 811 195 765 157 q 879 276 857 233 z "},"т":{"ha":1389,"x_min":424,"x_max":960,"o":"m 651 211 l 651 678 l 581 678 q 450 521 467 646 l 424 521 l 424 711 l 960 711 l 960 515 l 933 515 q 792 678 906 646 l 722 678 l 722 217 q 819 163 733 163 l 819 131 l 549 131 l 549 163 q 651 211 640 163 z "},"у":{"ha":1389,"x_min":331,"x_max":1047,"o":"m 640 71 q 524 -95 569 -71 q 437 -106 478 -119 q 380 -67 396 -92 q 361 -10 364 -43 q 377 38 358 22 q 423 51 396 54 q 458 16 450 49 q 418 -37 467 -17 q 494 -67 450 -75 q 663 201 538 -60 l 433 683 q 331 717 417 715 l 331 743 l 608 743 l 608 717 q 526 689 517 717 l 711 288 l 911 689 q 819 722 928 721 l 819 749 l 1047 749 l 1047 722 q 960 700 965 722 l 640 71 z "},"ф":{"ha":1389,"x_min":299,"x_max":1069,"o":"m 651 646 l 651 922 q 564 960 651 960 l 564 982 l 711 1004 l 732 1004 l 732 646 q 863 724 792 732 q 1001 638 933 717 q 1067 423 1069 558 q 1007 203 1064 288 q 876 117 950 119 q 732 206 803 114 l 732 38 q 771 6 732 6 l 825 6 l 825 -28 l 564 -28 l 564 6 l 608 6 q 651 43 651 6 l 651 201 q 504 117 575 110 q 369 215 433 125 q 301 426 304 304 q 372 635 299 549 q 521 725 444 722 q 651 646 597 728 m 651 250 l 651 597 q 546 687 608 674 q 442 632 483 700 q 404 437 401 564 q 437 228 407 310 q 526 152 467 146 q 651 250 586 158 m 732 256 q 824 160 769 190 q 917 182 879 131 q 963 385 956 233 q 938 619 971 538 q 843 694 906 700 q 732 597 781 689 l 732 256 z "},"х":{"ha":1389,"x_min":347,"x_max":1031,"o":"m 1014 683 q 900 646 932 689 l 732 461 l 933 201 q 1031 163 965 158 l 1031 131 l 781 131 l 781 157 q 825 201 867 157 l 678 396 l 489 185 q 569 157 451 153 l 569 131 l 347 131 l 347 157 q 456 201 418 151 l 651 429 l 483 651 q 364 678 467 683 l 364 711 l 651 711 l 651 683 q 592 640 549 689 l 711 489 l 857 657 q 808 683 885 689 l 808 711 l 1014 711 l 1014 683 z "},"ц":{"ha":1389,"x_min":369,"x_max":1010,"o":"m 988 -49 q 819 131 965 119 l 385 131 l 385 163 q 456 211 444 163 l 456 629 q 369 678 444 678 l 369 711 l 613 711 l 613 678 q 532 629 531 678 l 532 211 q 597 163 526 168 l 765 163 q 836 211 836 168 l 836 640 q 749 678 831 678 l 749 711 l 982 711 l 982 678 q 911 646 922 678 l 911 211 q 1010 151 906 146 l 1010 -49 l 988 -49 z "},"ч":{"ha":1389,"x_min":385,"x_max":999,"o":"m 840 450 l 840 689 q 771 738 840 738 l 771 765 l 988 765 l 988 738 q 928 689 928 738 l 928 222 q 999 163 922 157 l 999 131 l 743 131 l 743 163 q 840 217 840 157 l 840 424 q 615 364 710 375 q 485 401 521 353 q 456 689 450 450 q 385 732 450 732 l 385 765 l 592 765 l 592 732 q 532 694 554 732 q 548 456 526 504 q 659 415 569 407 q 840 450 749 422 z "},"ш":{"ha":1389,"x_min":206,"x_max":1178,"o":"m 825 174 l 939 174 q 1031 239 1031 168 l 1031 640 q 944 694 1003 694 l 944 722 l 1178 722 l 1178 694 q 1107 640 1118 694 l 1107 206 q 1178 168 1118 168 l 1178 142 l 206 142 l 206 168 q 310 222 297 163 l 310 640 q 211 694 304 700 l 211 722 l 456 722 l 456 694 q 385 657 413 694 l 385 239 q 450 174 385 179 l 575 174 q 663 239 667 168 l 663 651 q 592 694 651 694 l 592 722 l 814 722 l 814 694 q 738 651 765 694 l 738 233 q 825 174 728 168 z "},"щ":{"ha":1389,"x_min":201,"x_max":1188,"o":"m 797 163 l 965 163 q 1019 228 1025 168 l 1019 618 q 939 678 1019 683 l 939 711 l 1183 711 l 1183 678 q 1096 629 1092 683 l 1096 217 q 1183 151 1090 146 l 1188 -49 l 1161 -49 q 965 131 1139 131 l 201 131 l 201 157 q 288 206 272 157 l 288 624 q 201 678 288 678 l 201 711 l 450 711 l 450 678 q 369 624 374 678 l 369 211 q 429 163 364 163 l 586 163 q 657 217 657 174 l 657 640 q 581 678 629 678 l 581 711 l 803 711 l 803 678 q 732 640 760 678 l 732 222 q 797 163 726 168 z "},"ъ":{"ha":1389,"x_min":336,"x_max":1047,"o":"m 489 131 l 489 157 q 575 196 575 157 l 575 624 q 526 678 569 672 l 461 678 q 364 521 375 650 l 336 521 l 342 711 l 722 711 l 722 683 q 651 640 663 689 l 651 456 l 771 456 q 977 418 907 461 q 1044 288 1047 375 q 969 163 1042 201 q 760 131 896 125 l 489 131 m 651 211 q 706 163 646 163 l 786 163 q 898 184 851 163 q 950 285 944 206 q 906 394 956 364 q 765 424 857 424 l 651 424 l 651 211 z "},"ы":{"ha":1389,"x_min":288,"x_max":1090,"o":"m 288 157 q 379 211 369 157 l 379 635 q 304 683 368 683 l 304 711 l 526 711 l 526 683 q 456 635 472 683 l 456 444 l 586 444 q 757 417 689 456 q 831 295 825 379 q 781 171 836 211 q 575 131 726 131 l 288 131 l 288 157 m 456 168 l 569 168 q 692 192 635 163 q 749 296 749 222 q 689 394 749 369 q 564 413 629 418 l 456 413 l 456 168 m 1079 683 q 999 624 1003 683 l 999 206 q 1090 157 1004 157 l 1090 131 l 846 131 l 846 157 q 922 206 911 157 l 922 624 q 846 683 911 683 l 846 711 l 1079 711 l 1079 683 z "},"ь":{"ha":1389,"x_min":418,"x_max":965,"o":"m 515 201 l 515 635 q 418 678 504 678 l 418 711 l 678 711 l 678 678 q 592 635 596 678 l 592 439 l 749 439 q 890 410 819 444 q 963 293 960 375 q 908 168 965 211 q 657 131 851 125 l 429 131 l 429 157 q 515 201 504 158 m 592 163 l 706 163 q 847 195 808 163 q 882 296 885 228 q 828 388 879 364 q 694 407 776 413 l 592 407 l 592 163 z "},"э":{"ha":1389,"x_min":444,"x_max":933,"o":"m 851 413 l 640 413 l 640 450 l 851 450 q 808 615 851 553 q 708 689 765 678 q 600 659 651 700 q 478 493 549 618 l 456 493 l 467 717 l 493 711 l 499 613 q 599 699 547 672 q 724 722 651 726 q 865 638 797 717 q 933 426 933 558 q 857 206 933 293 q 686 117 781 119 q 542 152 592 114 q 469 226 493 190 q 450 288 444 261 q 474 326 456 315 q 515 323 493 336 q 538 283 538 310 q 499 244 538 256 q 640 150 558 158 q 781 204 722 142 q 851 413 840 267 z "},"ю":{"ha":1389,"x_min":293,"x_max":1090,"o":"m 575 407 l 444 407 l 444 201 q 526 163 444 164 l 526 131 l 293 131 l 293 163 q 369 206 364 163 l 369 629 q 299 683 364 683 l 299 711 l 515 711 l 515 683 q 444 629 444 683 l 444 439 l 575 439 q 626 618 581 542 q 751 716 672 694 q 901 716 831 738 q 1031 622 971 694 q 1090 418 1090 549 q 1017 201 1090 288 q 831 117 944 114 q 654 190 717 119 q 575 407 592 261 m 781 151 q 870 149 824 140 q 965 231 917 157 q 1014 421 1014 304 q 957 622 1014 538 q 819 700 900 706 q 694 608 738 694 q 654 407 651 521 q 697 231 657 293 q 781 151 738 168 z "},"я":{"ha":1389,"x_min":369,"x_max":993,"o":"m 906 629 l 906 201 q 993 146 917 147 l 993 119 l 754 119 l 754 146 q 840 196 831 146 l 840 418 l 722 418 q 627 317 636 401 q 608 174 618 233 q 540 108 597 114 q 445 141 483 103 q 388 217 407 179 q 410 217 369 256 q 488 168 450 179 q 538 274 526 157 q 629 429 549 390 q 537 467 569 440 q 501 553 504 493 q 553 665 499 613 q 754 711 608 717 l 976 711 l 976 683 q 906 629 906 683 m 840 450 l 840 678 l 726 678 q 610 640 640 678 q 581 553 581 603 q 624 474 581 504 q 738 450 667 444 l 840 450 z "},"ё":{"ha":1389,"x_min":439,"x_max":933,"o":"m 646 781 q 629 753 646 764 q 597 743 613 743 q 567 754 581 743 q 553 784 553 765 q 561 814 553 803 q 583 831 569 825 q 613 831 597 836 q 638 814 629 825 q 646 781 646 803 m 840 781 q 827 753 840 764 q 795 743 814 743 q 763 754 776 743 q 749 784 749 765 q 757 814 749 803 q 781 831 765 825 q 814 831 797 836 q 835 814 831 825 q 840 781 840 803 m 933 429 l 543 429 q 575 261 538 332 q 694 182 613 190 q 828 212 776 174 q 900 288 879 250 l 933 288 q 854 171 917 222 q 686 119 792 119 q 513 190 581 119 q 442 402 444 261 q 507 619 439 543 q 646 708 575 694 q 776 706 717 722 q 882 630 836 689 q 933 429 928 571 m 543 472 l 836 472 q 787 626 831 581 q 692 669 743 672 q 594 621 640 667 q 543 472 549 575 z "},"‘":{"ha":694,"x_min":333,"x_max":589,"o":"m 515 832 l 589 682 l 408 682 l 333 832 l 515 832 z "},"’":{"ha":694,"x_min":97,"x_max":353,"o":"m 353 832 l 279 682 l 97 682 l 171 832 l 353 832 z "},"‚":{"ha":694,"x_min":76,"x_max":276,"o":"m 76 -97 q 185 -29 147 -75 q 225 47 222 17 q 217 90 228 76 q 184 94 206 103 q 138 86 163 86 q 95 106 114 86 q 76 160 76 125 q 101 217 76 196 q 165 239 125 239 q 241 201 206 239 q 276 95 276 163 q 228 -32 276 28 q 76 -125 179 -92 l 76 -97 z "},"“":{"ha":694,"x_min":111,"x_max":643,"o":"m 569 832 l 643 682 l 463 682 l 389 832 l 569 832 m 293 832 l 367 682 l 185 682 l 111 832 l 293 832 z "},"”":{"ha":694,"x_min":28,"x_max":558,"o":"m 281 832 l 207 682 l 28 682 l 101 832 l 281 832 m 558 832 l 485 682 l 303 682 l 378 832 l 558 832 z "},"†":{"ha":694,"x_min":71,"x_max":624,"o":"m 319 -179 q 317 81 319 -43 q 307 325 315 206 q 261 553 300 444 q 312 613 299 581 q 331 711 325 646 q 239 689 288 706 q 138 657 168 657 q 90 676 108 657 q 71 724 71 694 q 90 773 71 754 q 133 792 108 792 q 168 789 157 792 q 239 754 179 786 q 331 738 282 738 q 304 836 319 797 q 272 966 272 922 q 293 1034 271 1010 q 345 1058 315 1058 q 397 1031 375 1058 q 418 977 418 1004 q 413 925 418 950 q 383 840 407 900 q 358 738 358 781 q 456 759 401 738 q 524 786 510 781 q 562 792 538 792 q 605 773 586 792 q 624 724 624 754 q 605 676 624 694 q 556 657 586 657 q 461 689 526 657 q 358 711 413 706 q 374 616 358 651 q 424 553 390 581 q 367 325 381 444 q 350 81 353 206 q 347 -179 347 -43 l 319 -179 z "},"‡":{"ha":694,"x_min":92,"x_max":603,"o":"m 358 765 q 377 700 364 722 q 424 651 390 678 q 375 553 392 603 q 358 433 358 503 q 374 317 358 363 q 424 222 390 271 q 378 168 392 190 q 358 103 364 146 q 444 131 413 114 q 534 152 504 153 q 583 135 564 151 q 603 92 603 119 q 583 49 603 65 q 537 32 564 32 q 467 51 510 32 q 358 82 424 71 q 394 -30 375 11 q 410 -111 413 -71 q 388 -171 407 -151 q 344 -190 369 -190 q 301 -168 319 -190 q 285 -108 282 -146 q 306 -19 288 -71 q 331 82 325 32 q 225 51 265 71 q 158 32 185 32 q 114 49 131 32 q 97 92 97 65 q 114 135 97 119 q 160 151 131 151 q 231 135 190 151 q 331 108 271 119 q 315 174 325 151 q 265 222 304 196 q 314 312 297 260 q 331 429 331 364 q 320 551 331 506 q 265 651 310 597 q 311 701 297 679 q 331 765 325 722 q 236 741 282 760 q 160 722 190 722 q 111 738 131 722 q 92 781 92 754 q 111 824 92 808 q 158 840 131 840 q 233 819 185 840 q 331 792 282 797 q 325 841 331 819 q 298 919 319 863 q 276 1001 276 976 q 298 1047 276 1025 q 347 1069 319 1069 q 394 1050 375 1069 q 413 1001 413 1031 q 410 958 413 971 q 385 895 407 944 q 358 792 364 846 q 404 797 390 792 q 461 822 418 803 q 534 840 504 840 q 583 824 564 840 q 603 781 603 808 q 583 738 603 754 q 534 722 564 722 q 461 741 504 722 q 404 763 418 760 q 358 765 390 765 z "},"‹":{"ha":694,"x_min":82,"x_max":379,"o":"m 379 97 l 342 97 l 82 418 l 342 738 l 379 738 l 217 418 l 379 97 z "},"›":{"ha":694,"x_min":76,"x_max":385,"o":"m 76 738 l 119 738 l 385 418 l 119 97 l 76 97 l 244 418 l 76 738 z "},"€":{"ha":694,"x_min":0,"x_max":689,"o":"m 592 526 l 201 526 l 201 450 l 575 450 l 558 396 l 201 396 q 250 179 207 265 q 424 60 310 60 q 559 95 510 60 q 667 211 608 131 l 689 196 q 564 49 629 99 q 396 0 499 0 q 151 125 239 0 q 76 396 81 228 l 0 396 l 17 450 l 76 450 l 76 526 l 0 526 l 17 581 l 82 581 q 193 849 104 743 q 439 956 282 956 q 667 896 553 956 l 667 694 l 640 694 q 439 911 624 911 q 206 581 254 911 l 608 581 l 592 526 z "},"™":{"ha":694,"x_min":0,"x_max":694,"o":"m 493 646 l 586 1031 l 694 1031 l 694 1004 q 665 996 672 1004 q 657 974 657 988 l 657 597 q 662 524 657 538 q 694 504 667 510 l 694 483 l 553 483 l 553 504 q 578 515 569 510 q 589 537 586 521 q 592 597 592 553 l 592 928 l 483 483 l 472 483 l 364 922 l 364 597 q 367 535 364 549 q 374 513 369 521 q 413 504 379 504 l 413 483 l 299 483 l 299 504 q 328 513 321 504 q 336 535 336 521 l 336 979 q 328 999 336 993 q 304 1004 319 1004 l 304 1031 l 401 1031 l 493 646 m 265 1031 l 271 896 l 250 896 q 233 966 244 944 q 190 988 222 988 l 168 988 l 168 597 q 176 524 168 538 q 206 504 185 510 l 206 483 l 71 483 l 71 504 q 103 526 99 510 q 108 597 108 543 l 108 988 l 82 988 q 44 966 60 988 q 17 896 28 944 l 0 896 l 6 1031 l 265 1031 z "},"①":{"ha":1389,"x_min":49,"x_max":1346,"o":"m 510 142 l 510 108 l 879 108 l 879 142 q 738 196 738 136 l 738 874 l 711 874 q 510 803 629 803 l 510 776 q 651 726 651 776 l 651 196 q 510 142 651 136 m 726 -146 q 252 27 450 -162 q 51 472 54 217 q 190 895 49 726 q 513 1113 331 1064 q 874 1117 694 1161 q 1199 903 1053 1074 q 1340 480 1346 732 q 1172 49 1335 228 q 726 -146 1008 -129 m 1183 142 q 1292 540 1303 304 q 1104 942 1281 776 q 681 1099 928 1107 q 263 908 433 1090 q 97 488 92 726 q 247 98 103 250 q 556 -92 390 -54 q 893 -76 722 -131 q 1183 142 1064 -21 z "},"②":{"ha":1389,"x_min":43,"x_max":1340,"o":"m 722 -146 q 247 27 446 -162 q 46 472 49 217 q 184 895 43 726 q 507 1113 325 1064 q 868 1117 689 1161 q 1194 903 1047 1074 q 1335 480 1340 732 q 1167 49 1329 228 q 722 -146 1004 -129 m 1178 142 q 1286 540 1297 304 q 1099 942 1275 776 q 676 1099 922 1107 q 258 908 429 1090 q 92 488 86 726 q 241 98 97 250 q 551 -92 385 -54 q 888 -76 717 -131 q 1178 142 1058 -21 m 461 185 q 735 399 624 315 q 898 562 846 483 q 925 727 950 640 q 806 857 900 814 q 608 884 711 900 q 453 800 504 868 q 401 681 401 732 q 428 610 401 629 q 485 602 456 592 q 524 640 515 613 q 513 686 532 667 q 474 708 493 706 q 494 774 456 711 q 640 841 532 836 q 797 781 749 846 q 827 638 846 717 q 713 464 808 558 q 396 190 618 369 l 396 114 l 976 114 l 999 325 l 976 325 l 911 185 l 461 185 z "},"③":{"ha":1389,"x_min":43,"x_max":1340,"o":"m 722 510 q 942 632 913 542 q 917 784 971 722 q 765 868 863 846 q 580 865 667 890 q 444 773 493 840 q 420 667 396 706 q 488 635 444 629 q 538 683 532 640 q 510 735 543 726 q 505 778 478 743 q 619 827 532 814 q 776 808 706 840 q 849 678 846 776 q 767 551 851 581 q 549 526 683 521 l 549 493 q 819 442 754 499 q 885 320 885 385 q 828 206 885 256 q 662 154 771 157 q 499 203 553 151 q 469 266 444 256 q 504 306 493 276 q 477 358 515 336 q 407 355 439 379 q 391 276 375 331 q 472 168 407 222 q 670 108 538 114 q 879 160 803 103 q 977 288 956 217 q 944 426 999 358 q 722 510 890 493 m 722 -146 q 247 27 446 -162 q 46 472 49 217 q 184 895 43 726 q 507 1113 325 1064 q 868 1117 689 1161 q 1194 903 1047 1074 q 1335 480 1340 732 q 1167 49 1329 228 q 722 -146 1004 -129 m 1178 142 q 1286 540 1297 304 q 1099 942 1275 776 q 676 1099 922 1107 q 258 908 429 1090 q 92 488 86 726 q 241 98 97 250 q 551 -92 385 -54 q 888 -76 717 -131 q 1178 142 1058 -21 z "},"④":{"ha":1389,"x_min":43,"x_max":1340,"o":"m 797 896 l 711 896 l 353 336 l 353 310 l 700 310 l 700 190 q 575 142 700 142 l 575 114 l 911 114 l 911 142 q 797 185 797 142 l 797 310 l 960 310 l 960 347 l 797 347 l 797 896 m 700 347 l 413 347 l 700 792 l 700 347 m 722 -146 q 247 27 446 -162 q 46 472 49 217 q 184 895 43 726 q 507 1113 325 1064 q 868 1117 689 1161 q 1194 903 1047 1074 q 1335 480 1340 732 q 1167 49 1329 228 q 722 -146 1004 -129 m 1178 142 q 1286 540 1297 304 q 1099 942 1275 776 q 676 1099 922 1107 q 258 908 429 1090 q 92 488 86 726 q 241 98 97 250 q 551 -92 385 -54 q 888 -76 717 -131 q 1178 142 1058 -21 z "},"⑤":{"ha":1389,"x_min":43,"x_max":1340,"o":"m 429 499 l 467 499 q 605 591 515 558 q 787 583 694 624 q 898 418 879 543 q 838 219 917 293 q 659 157 760 146 q 513 209 558 168 q 488 258 467 250 q 518 301 510 265 q 488 356 526 336 q 417 350 450 375 q 404 271 385 325 q 494 168 424 217 q 692 114 564 119 q 915 198 819 108 q 990 426 1010 288 q 808 626 971 564 q 478 558 646 689 l 489 814 q 694 803 581 803 q 868 822 808 803 q 936 890 928 840 q 882 912 944 939 q 751 876 819 885 q 624 871 683 868 q 444 896 564 874 l 429 499 m 722 -146 q 247 27 446 -162 q 46 472 49 217 q 184 895 43 726 q 507 1113 325 1064 q 868 1117 689 1161 q 1194 903 1047 1074 q 1335 480 1340 732 q 1167 49 1329 228 q 722 -146 1004 -129 m 1178 142 q 1286 540 1297 304 q 1099 942 1275 776 q 676 1099 922 1107 q 258 908 429 1090 q 92 488 86 726 q 241 98 97 250 q 551 -92 385 -54 q 888 -76 717 -131 q 1178 142 1058 -21 z "},"⑥":{"ha":1389,"x_min":43,"x_max":1340,"o":"m 489 504 q 549 762 494 683 q 690 854 603 840 q 833 830 776 868 q 849 767 890 792 q 827 703 808 743 q 887 660 846 663 q 947 690 928 657 q 949 768 965 722 q 874 852 933 814 q 719 893 814 890 q 540 836 624 896 q 420 667 456 776 q 390 437 385 558 q 447 220 396 315 q 632 106 499 125 q 860 154 765 86 q 969 331 956 222 q 911 515 982 439 q 719 602 840 592 q 489 504 597 613 m 483 418 q 610 556 538 526 q 767 559 683 586 q 878 453 851 532 q 871 272 906 375 q 760 149 836 168 q 621 149 683 131 q 521 222 558 168 q 483 418 483 276 m 722 -146 q 247 27 446 -162 q 46 472 49 217 q 184 895 43 726 q 507 1113 325 1064 q 868 1117 689 1161 q 1194 903 1047 1074 q 1335 480 1340 732 q 1167 49 1329 228 q 722 -146 1004 -129 m 1178 142 q 1286 540 1297 304 q 1099 942 1275 776 q 676 1099 922 1107 q 258 908 429 1090 q 92 488 86 726 q 241 98 97 250 q 551 -92 385 -54 q 888 -76 717 -131 q 1178 142 1058 -21 z "},"⑦":{"ha":1389,"x_min":43,"x_max":1340,"o":"m 413 885 l 401 651 l 413 651 l 472 803 l 950 803 q 773 618 819 683 q 683 434 726 553 q 629 236 640 315 q 645 130 618 157 q 699 111 672 103 q 722 179 726 119 q 738 353 717 239 q 817 592 760 467 q 999 803 874 717 l 999 885 l 413 885 m 722 -146 q 247 27 446 -162 q 46 472 49 217 q 184 895 43 726 q 507 1113 325 1064 q 868 1117 689 1161 q 1194 903 1047 1074 q 1335 480 1340 732 q 1167 49 1329 228 q 722 -146 1004 -129 m 1178 142 q 1286 540 1297 304 q 1099 942 1275 776 q 676 1099 922 1107 q 258 908 429 1090 q 92 488 86 726 q 241 98 97 250 q 551 -92 385 -54 q 888 -76 717 -131 q 1178 142 1058 -21 z "},"⑧":{"ha":1389,"x_min":43,"x_max":1340,"o":"m 760 483 q 915 608 890 521 q 912 751 939 694 q 841 841 885 808 q 740 885 797 874 q 618 879 683 896 q 504 811 553 863 q 447 700 456 760 q 474 578 439 640 q 613 489 510 515 q 423 399 471 461 q 388 263 375 336 q 488 138 401 190 q 692 89 575 86 q 890 144 808 92 q 982 266 971 196 q 944 399 993 336 q 760 483 896 461 m 678 467 q 868 383 819 450 q 895 247 917 315 q 814 147 874 179 q 665 119 754 114 q 521 171 575 125 q 472 288 467 217 q 515 404 478 358 q 678 467 553 450 m 678 499 q 526 605 558 547 q 513 730 493 663 q 605 833 532 797 q 743 847 678 868 q 835 774 808 825 q 863 673 863 722 q 827 577 863 624 q 678 499 792 531 m 250 22 q 46 467 49 207 q 184 895 43 726 q 507 1113 325 1064 q 868 1117 689 1161 q 1194 903 1047 1074 q 1335 480 1340 732 q 1167 49 1329 228 q 728 -147 1004 -131 q 250 22 451 -162 m 1178 142 q 1286 540 1297 304 q 1099 942 1275 776 q 676 1099 922 1107 q 258 908 429 1090 q 92 488 86 726 q 241 98 97 250 q 551 -92 385 -54 q 888 -76 717 -131 q 1178 142 1058 -21 z "},"⑨":{"ha":1389,"x_min":43,"x_max":1340,"o":"m 722 -146 q 247 27 446 -162 q 46 472 49 217 q 184 895 43 726 q 507 1113 325 1064 q 868 1117 689 1161 q 1194 903 1047 1074 q 1335 480 1340 732 q 1167 49 1329 228 q 722 -146 1004 -129 m 1178 142 q 1286 540 1297 304 q 1099 942 1275 776 q 676 1099 922 1107 q 258 908 429 1090 q 92 488 86 726 q 241 98 97 250 q 551 -92 385 -54 q 888 -76 717 -131 q 1178 142 1058 -21 m 433 174 q 528 117 465 136 q 651 100 592 97 q 765 119 711 103 q 871 190 819 136 q 944 320 922 244 q 968 488 965 396 q 963 651 971 581 q 901 792 956 722 q 735 884 846 863 q 515 851 624 906 q 391 662 407 797 q 472 448 375 526 q 673 377 569 369 q 825 422 776 385 q 874 463 871 458 q 871 396 874 464 q 841 263 868 325 q 751 172 814 201 q 616 144 689 142 q 518 168 543 146 q 521 209 493 190 q 529 269 549 228 q 464 301 510 310 q 412 252 418 293 q 433 174 406 211 m 532 472 q 486 640 483 532 q 543 803 489 749 q 689 854 597 857 q 824 778 781 851 q 871 632 868 706 q 852 524 874 558 q 784 451 831 489 q 659 413 738 413 q 532 472 581 413 z "},"⑩":{"ha":1389,"x_min":43,"x_max":1340,"o":"m 722 -146 q 247 27 446 -162 q 46 472 49 217 q 184 895 43 726 q 507 1113 325 1064 q 868 1117 689 1161 q 1194 903 1047 1074 q 1335 480 1340 732 q 1167 49 1329 228 q 722 -146 1004 -129 m 1178 142 q 1286 540 1297 304 q 1099 942 1275 776 q 676 1099 922 1107 q 258 908 429 1090 q 92 488 86 726 q 241 98 97 250 q 551 -92 385 -54 q 888 -76 717 -131 q 1178 142 1058 -21 m 836 879 q 958 860 901 896 q 1039 741 1014 825 q 1067 545 1064 657 q 1056 325 1069 433 q 985 160 1042 217 q 857 114 928 103 q 746 201 786 125 q 697 380 706 276 q 694 589 689 483 q 738 778 700 694 q 836 879 776 863 m 851 157 q 914 160 883 140 q 966 249 944 179 q 988 417 988 319 l 988 610 q 958 776 988 706 q 879 843 928 846 q 803 770 831 840 q 771 616 776 700 q 768 421 765 532 q 797 242 771 310 q 851 157 824 174 m 358 142 q 461 185 461 142 l 461 754 q 358 797 472 797 l 358 819 q 510 890 456 819 l 532 890 l 532 190 q 629 142 532 142 l 629 114 l 358 114 l 358 142 z "},"⑴":{"ha":1389,"x_min":54,"x_max":1324,"o":"m 1069 -17 q 1026 -40 1032 -49 q 1069 27 1019 -32 q 1188 228 1118 86 q 1248 521 1258 369 q 1188 776 1238 672 q 1082 947 1139 879 q 1022 1031 1025 1014 q 1076 1001 1019 1047 q 1188 890 1133 956 q 1283 722 1243 825 q 1324 485 1324 618 q 1269 239 1324 353 q 1161 70 1215 125 q 1069 -17 1107 15 m 331 1019 q 361 1028 358 1036 q 307 955 364 1019 q 190 754 250 890 q 133 494 131 618 q 188 247 136 369 q 301 49 239 125 q 361 -41 364 -28 q 293 3 358 -54 q 179 131 228 60 q 95 288 131 201 q 57 494 60 375 q 108 738 54 613 q 233 933 163 863 q 331 1019 303 1003 m 510 119 q 651 196 656 119 l 651 836 q 608 879 653 879 l 543 879 l 543 900 q 711 971 640 894 l 738 971 l 738 196 q 868 119 738 119 l 868 92 l 510 92 l 510 119 z "},"⑵":{"ha":1389,"x_min":54,"x_max":1324,"o":"m 1069 -17 q 1026 -40 1032 -49 q 1069 27 1019 -32 q 1188 228 1118 86 q 1248 521 1258 369 q 1188 776 1238 672 q 1082 947 1139 879 q 1022 1031 1025 1014 q 1076 1001 1019 1047 q 1188 890 1133 956 q 1283 722 1243 825 q 1324 485 1324 618 q 1269 239 1324 353 q 1161 70 1215 125 q 1069 -17 1107 15 m 331 1019 q 361 1028 358 1036 q 307 955 364 1019 q 190 754 250 890 q 133 494 131 618 q 188 247 136 369 q 301 49 239 125 q 361 -41 364 -28 q 293 3 358 -54 q 179 131 228 60 q 95 288 131 201 q 57 494 60 375 q 108 738 54 613 q 233 933 163 863 q 331 1019 303 1003 m 521 157 l 825 157 l 890 276 l 906 276 l 874 86 l 472 86 l 472 146 q 768 580 706 482 q 825 778 831 678 q 771 906 819 879 q 673 928 722 933 q 597 884 624 922 q 572 827 569 846 q 594 803 575 808 q 618 770 613 797 q 599 722 624 743 q 540 703 575 700 q 491 749 504 706 q 508 854 478 792 q 597 949 538 917 q 744 971 657 982 q 882 898 831 960 q 922 765 933 836 q 887 643 911 694 q 763 472 863 592 q 521 157 663 353 z "},"⑶":{"ha":1389,"x_min":54,"x_max":1324,"o":"m 1069 -17 q 1026 -40 1032 -49 q 1069 27 1019 -32 q 1188 228 1118 86 q 1248 521 1258 369 q 1188 776 1238 672 q 1082 947 1139 879 q 1022 1031 1025 1014 q 1076 1001 1019 1047 q 1188 890 1133 956 q 1283 722 1243 825 q 1324 485 1324 618 q 1269 239 1324 353 q 1161 70 1215 125 q 1069 -17 1107 15 m 331 1019 q 361 1028 358 1036 q 307 955 364 1019 q 190 754 250 890 q 133 494 131 618 q 188 247 136 369 q 301 49 239 125 q 361 -41 364 -28 q 293 3 358 -54 q 179 131 228 60 q 95 288 131 201 q 57 494 60 375 q 108 738 54 613 q 233 933 163 863 q 331 1019 303 1003 m 706 564 l 700 558 q 879 460 819 531 q 925 296 939 390 q 844 152 911 201 q 687 103 776 103 q 540 147 597 103 q 472 242 483 190 q 485 315 461 293 q 542 326 510 336 q 581 296 575 315 q 578 260 586 276 q 553 236 569 244 q 573 179 538 228 q 684 133 608 131 q 800 196 760 136 q 838 340 840 256 q 776 481 836 424 q 581 549 717 538 l 581 569 q 732 626 667 569 q 797 784 797 683 q 740 917 797 885 q 626 923 683 950 q 564 863 569 896 q 578 817 558 831 q 589 773 597 803 q 548 740 581 743 q 497 770 515 738 q 502 857 478 803 q 586 947 526 911 q 735 969 646 982 q 865 876 825 956 q 868 699 906 797 q 706 564 831 601 z "},"⑷":{"ha":1389,"x_min":54,"x_max":1324,"o":"m 797 971 l 765 971 l 450 342 l 450 310 l 722 310 l 722 157 q 613 119 722 119 l 613 92 l 900 92 l 900 119 q 797 151 797 119 l 797 310 l 911 310 l 911 336 l 797 336 l 797 971 m 722 336 l 504 336 l 722 776 l 722 336 m 1069 -17 q 1026 -40 1032 -49 q 1069 27 1019 -32 q 1188 228 1118 86 q 1248 521 1258 369 q 1188 776 1238 672 q 1082 947 1139 879 q 1022 1031 1025 1014 q 1076 1001 1019 1047 q 1188 890 1133 956 q 1283 722 1243 825 q 1324 485 1324 618 q 1269 239 1324 353 q 1161 70 1215 125 q 1069 -17 1107 15 m 331 1019 q 361 1028 358 1036 q 307 955 364 1019 q 190 754 250 890 q 133 494 131 618 q 188 247 136 369 q 301 49 239 125 q 361 -41 364 -28 q 293 3 358 -54 q 179 131 228 60 q 95 288 131 201 q 57 494 60 375 q 108 738 54 613 q 233 933 163 863 q 331 1019 303 1003 z "},"⑸":{"ha":1389,"x_min":54,"x_max":1324,"o":"m 1069 -17 q 1026 -40 1032 -49 q 1069 27 1019 -32 q 1188 228 1118 86 q 1248 521 1258 369 q 1188 776 1238 672 q 1082 947 1139 879 q 1022 1031 1025 1014 q 1076 1001 1019 1047 q 1188 890 1133 956 q 1283 722 1243 825 q 1324 485 1324 618 q 1269 239 1324 353 q 1161 70 1215 125 q 1069 -17 1107 15 m 331 1019 q 361 1028 358 1036 q 307 955 364 1019 q 190 754 250 890 q 133 494 131 618 q 188 247 136 369 q 301 49 239 125 q 361 -41 364 -28 q 293 3 358 -54 q 179 131 228 60 q 95 288 131 201 q 57 494 60 375 q 108 738 54 613 q 233 933 163 863 q 331 1019 303 1003 m 515 504 l 526 504 q 724 608 635 646 q 825 423 814 569 q 798 206 836 276 q 692 125 760 136 q 583 165 624 114 q 567 228 543 217 q 592 274 592 239 q 553 323 592 310 q 488 312 515 336 q 475 233 461 288 q 535 135 489 179 q 683 92 581 92 q 854 178 786 92 q 911 404 922 265 q 819 605 900 543 q 665 651 738 667 q 570 616 592 635 q 553 640 549 597 l 558 906 q 740 892 678 889 q 849 901 803 896 q 909 952 896 906 q 860 979 922 999 q 708 958 797 960 q 526 971 618 956 l 515 504 z "},"⑹":{"ha":1389,"x_min":54,"x_max":1324,"o":"m 1069 -17 q 1026 -40 1032 -49 q 1069 27 1019 -32 q 1188 228 1118 86 q 1248 521 1258 369 q 1188 776 1238 672 q 1082 947 1139 879 q 1022 1031 1025 1014 q 1076 1001 1019 1047 q 1188 890 1133 956 q 1283 722 1243 825 q 1324 485 1324 618 q 1269 239 1324 353 q 1161 70 1215 125 q 1069 -17 1107 15 m 331 1019 q 361 1028 358 1036 q 307 955 364 1019 q 190 754 250 890 q 133 494 131 618 q 188 247 136 369 q 301 49 239 125 q 361 -41 364 -28 q 293 3 358 -54 q 179 131 228 60 q 95 288 131 201 q 57 494 60 375 q 108 738 54 613 q 233 933 163 863 q 331 1019 303 1003 m 543 526 q 711 624 619 624 q 857 548 803 624 q 911 358 911 472 q 857 165 911 244 q 689 86 803 86 q 521 171 575 86 q 461 404 467 256 q 474 683 456 553 q 561 892 493 814 q 708 974 629 971 q 833 941 786 976 q 888 878 879 906 q 890 827 896 851 q 855 792 885 803 q 798 800 825 781 q 781 860 771 819 q 751 922 792 900 q 662 925 711 944 q 575 822 613 906 q 543 526 538 738 m 553 461 q 553 328 547 413 q 591 190 558 244 q 670 122 624 136 q 763 141 717 108 q 819 285 808 174 q 811 477 831 396 q 735 581 792 558 q 621 559 678 603 q 553 461 564 515 z "},"⑺":{"ha":1389,"x_min":54,"x_max":1324,"o":"m 1069 -17 q 1026 -40 1032 -49 q 1069 27 1019 -32 q 1188 228 1118 86 q 1248 521 1258 369 q 1188 776 1238 672 q 1082 947 1139 879 q 1022 1031 1025 1014 q 1076 1001 1019 1047 q 1188 890 1133 956 q 1283 722 1243 825 q 1324 485 1324 618 q 1269 239 1324 353 q 1161 70 1215 125 q 1069 -17 1107 15 m 331 1019 q 361 1028 358 1036 q 307 955 364 1019 q 190 754 250 890 q 133 494 131 618 q 188 247 136 369 q 301 49 239 125 q 361 -41 364 -28 q 293 3 358 -54 q 179 131 228 60 q 95 288 131 201 q 57 494 60 375 q 108 738 54 613 q 233 933 163 863 q 331 1019 303 1003 m 493 971 l 911 971 l 911 922 q 784 678 846 808 q 697 415 722 549 q 672 201 672 282 q 648 103 672 119 q 591 114 624 86 q 569 217 558 142 q 626 426 581 293 q 726 662 672 558 q 851 906 781 765 l 543 906 q 494 803 511 840 q 469 768 478 765 q 472 828 461 771 q 493 971 482 885 z "},"⑻":{"ha":1389,"x_min":54,"x_max":1324,"o":"m 1069 -17 q 1026 -40 1032 -49 q 1069 27 1019 -32 q 1188 228 1118 86 q 1248 521 1258 369 q 1188 773 1238 672 q 1076 955 1139 874 q 1012 1053 1014 1036 q 1072 1020 1010 1069 q 1188 898 1133 971 q 1283 722 1243 825 q 1324 485 1324 618 q 1269 239 1324 353 q 1161 70 1215 125 q 1069 -17 1107 15 m 331 1019 q 366 1033 363 1042 q 307 955 369 1025 q 188 751 244 885 q 133 494 131 618 q 188 247 136 369 q 301 49 239 125 q 361 -41 364 -28 q 293 3 358 -54 q 179 131 228 60 q 95 288 131 201 q 57 494 60 375 q 108 738 54 613 q 233 933 163 863 q 331 1019 303 1003 m 726 543 q 867 676 835 592 q 881 822 900 760 q 819 917 863 885 q 735 960 776 950 q 646 960 694 971 q 553 906 597 950 q 499 787 510 863 q 521 649 489 711 q 646 538 553 586 q 505 432 549 494 q 469 283 461 369 q 535 144 478 196 q 684 92 592 92 q 841 151 776 92 q 914 290 906 211 q 881 438 922 369 q 726 543 840 506 m 689 526 q 817 410 797 461 q 828 290 836 358 q 781 174 819 222 q 681 125 743 125 q 581 176 618 125 q 543 293 543 228 q 573 413 543 358 q 689 526 603 467 m 689 558 q 581 678 603 613 q 572 808 558 743 q 638 912 586 874 q 740 912 689 950 q 806 814 792 874 q 797 689 819 754 q 689 558 775 624 z "},"⑼":{"ha":1389,"x_min":54,"x_max":1324,"o":"m 1069 -17 q 1026 -40 1032 -49 q 1069 27 1019 -32 q 1188 228 1118 86 q 1248 521 1258 369 q 1188 776 1238 672 q 1082 947 1139 879 q 1022 1031 1025 1014 q 1076 1001 1019 1047 q 1188 890 1133 956 q 1283 722 1243 825 q 1324 485 1324 618 q 1269 239 1324 353 q 1161 70 1215 125 q 1069 -17 1107 15 m 331 1019 q 361 1028 358 1036 q 307 955 364 1019 q 190 754 250 890 q 133 494 131 618 q 188 247 136 369 q 301 49 239 125 q 361 -41 364 -28 q 293 3 358 -54 q 179 131 228 60 q 95 288 131 201 q 57 494 60 375 q 108 738 54 613 q 233 933 163 863 q 331 1019 303 1003 m 564 119 q 505 182 521 147 q 494 241 489 217 q 526 276 499 265 q 581 272 553 288 q 608 233 608 256 q 592 201 608 211 q 583 168 575 190 q 640 138 592 146 q 738 152 689 131 q 806 228 786 174 q 831 356 825 282 q 836 469 836 429 q 825 497 836 510 q 770 461 814 483 q 656 442 726 439 q 524 524 586 444 q 472 722 461 603 q 548 908 483 840 q 705 974 613 976 q 849 908 797 971 q 911 749 900 846 q 919 538 922 651 q 903 328 917 424 q 858 190 890 233 q 784 124 825 146 q 678 97 743 103 q 564 119 613 92 m 549 689 q 597 532 549 592 q 694 478 646 472 q 778 516 743 483 q 825 594 814 549 q 833 727 836 640 q 801 876 831 814 q 703 942 771 939 q 592 868 635 944 q 549 689 549 792 z "},"⑽":{"ha":1389,"x_min":54,"x_max":1324,"o":"m 1069 -17 q 1026 -40 1032 -49 q 1069 27 1019 -32 q 1188 228 1118 86 q 1248 521 1258 369 q 1188 776 1238 672 q 1082 947 1139 879 q 1022 1031 1025 1014 q 1076 1001 1019 1047 q 1188 890 1133 956 q 1283 722 1243 825 q 1324 485 1324 618 q 1269 239 1324 353 q 1161 70 1215 125 q 1069 -17 1107 15 m 331 1019 q 361 1028 358 1036 q 307 955 364 1019 q 190 754 250 890 q 133 494 131 618 q 188 247 136 369 q 301 49 239 125 q 361 -41 364 -28 q 293 3 358 -54 q 179 131 228 60 q 95 288 131 201 q 57 494 60 375 q 108 738 54 613 q 233 933 163 863 q 331 1019 303 1003 m 939 939 q 835 960 885 971 q 738 890 786 950 q 676 678 689 831 q 676 385 663 526 q 738 179 689 244 q 857 108 786 114 q 988 165 928 103 q 1058 360 1047 228 q 1061 624 1069 493 q 1026 833 1053 754 q 939 939 999 911 m 906 163 q 833 155 874 131 q 773 249 792 179 q 751 423 754 319 q 751 659 749 526 q 790 860 754 792 q 876 922 825 928 q 949 854 928 917 q 976 662 971 792 q 979 424 982 532 q 960 255 976 315 q 906 163 943 194 m 353 131 q 450 179 450 131 l 450 840 q 353 879 450 878 l 353 906 q 499 971 439 900 l 521 971 l 521 174 q 613 131 510 131 l 613 103 l 353 103 l 353 131 z "},"⑾":{"ha":1389,"x_min":54,"x_max":1324,"o":"m 1069 -17 q 1026 -40 1032 -49 q 1069 27 1019 -32 q 1188 228 1118 86 q 1248 521 1258 369 q 1188 776 1238 672 q 1082 947 1139 879 q 1022 1031 1025 1014 q 1076 1001 1019 1047 q 1188 890 1133 956 q 1283 722 1243 825 q 1324 485 1324 618 q 1269 239 1324 353 q 1161 70 1215 125 q 1069 -17 1107 15 m 331 1019 q 361 1028 358 1036 q 307 955 364 1019 q 190 754 250 890 q 133 494 131 618 q 188 247 136 369 q 301 49 239 125 q 361 -41 364 -28 q 293 3 358 -54 q 179 131 228 60 q 95 288 131 201 q 57 494 60 375 q 108 738 54 613 q 233 933 163 863 q 331 1019 303 1003 m 771 125 l 771 97 l 1036 97 l 1036 125 q 944 168 939 125 l 944 993 l 917 993 q 765 917 857 911 l 765 890 q 868 846 874 890 l 868 168 q 771 125 868 125 m 358 125 l 358 97 l 624 97 l 624 125 q 532 168 526 125 l 532 993 l 504 993 q 353 917 444 911 l 353 890 q 456 846 456 890 l 456 168 q 358 125 456 125 z "},"⑿":{"ha":1389,"x_min":54,"x_max":1324,"o":"m 1069 -17 q 1026 -40 1032 -49 q 1069 27 1019 -32 q 1188 228 1118 86 q 1248 521 1258 369 q 1188 776 1238 672 q 1082 947 1139 879 q 1022 1031 1025 1014 q 1076 1001 1019 1047 q 1188 890 1133 956 q 1283 722 1243 825 q 1324 485 1324 618 q 1269 239 1324 353 q 1161 70 1215 125 q 1069 -17 1107 15 m 331 1019 q 361 1028 358 1036 q 307 955 364 1019 q 190 754 250 890 q 133 494 131 618 q 188 247 136 369 q 301 49 239 125 q 361 -41 364 -28 q 293 3 358 -54 q 179 131 228 60 q 95 288 131 201 q 57 494 60 375 q 108 738 54 613 q 233 933 163 863 q 331 1019 303 1003 m 749 157 q 925 494 846 347 q 1028 692 1004 640 q 1063 808 1053 743 q 1039 931 1074 874 q 922 999 1004 988 q 789 977 840 1010 q 713 882 738 944 q 700 776 689 819 q 746 729 711 732 q 797 746 781 726 q 808 790 814 765 q 781 819 803 814 q 765 863 760 825 q 792 930 771 900 q 852 965 814 960 q 928 949 890 971 q 968 841 965 928 q 919 629 971 754 q 694 151 868 504 l 694 97 l 1014 97 l 1053 288 l 1031 288 l 965 157 l 749 157 m 358 125 l 358 97 l 624 97 l 624 125 q 526 168 526 125 l 526 993 l 504 993 q 353 917 444 911 l 353 890 q 456 846 456 890 l 456 174 q 358 125 456 125 z "},"⒀":{"ha":1389,"x_min":54,"x_max":1324,"o":"m 1069 -17 q 1026 -40 1032 -49 q 1069 27 1019 -32 q 1188 228 1118 86 q 1248 521 1258 369 q 1188 776 1238 672 q 1082 947 1139 879 q 1022 1031 1025 1014 q 1076 1001 1019 1047 q 1188 890 1133 956 q 1283 722 1243 825 q 1324 485 1324 618 q 1269 239 1324 353 q 1161 70 1215 125 q 1069 -17 1107 15 m 331 1019 q 361 1028 358 1036 q 307 955 364 1019 q 190 754 250 890 q 133 494 131 618 q 188 247 136 369 q 301 49 239 125 q 361 -41 364 -28 q 293 3 358 -54 q 179 131 228 60 q 95 288 131 201 q 57 494 60 375 q 108 738 54 613 q 233 933 163 863 q 331 1019 303 1003 m 868 581 l 868 575 q 1023 472 976 547 q 1058 306 1069 396 q 993 160 1047 217 q 863 103 939 103 q 743 144 786 103 q 689 225 700 185 q 700 290 678 265 q 754 301 722 315 q 786 266 786 288 q 767 231 786 244 q 776 176 749 217 q 860 139 803 136 q 949 201 917 142 q 982 342 982 261 q 944 488 982 424 q 776 564 906 553 l 776 592 q 911 638 863 586 q 960 800 960 689 q 914 941 960 911 q 822 947 868 971 q 768 881 776 922 q 781 830 760 840 q 794 790 803 819 q 759 754 786 760 q 710 778 732 749 q 713 871 689 808 q 787 969 738 933 q 909 985 836 1004 q 1020 887 982 965 q 1026 710 1058 808 q 868 581 993 613 m 358 125 q 456 168 461 125 l 456 846 q 353 890 461 889 l 353 917 q 504 993 444 911 l 526 993 l 526 168 q 624 125 526 125 l 624 97 l 358 97 l 358 125 z "},"⒁":{"ha":1389,"x_min":54,"x_max":1324,"o":"m 939 999 l 965 999 l 965 353 l 1053 353 l 1053 315 l 965 315 l 965 163 q 1042 125 965 125 l 1042 97 l 825 97 l 825 125 q 900 163 901 125 l 900 315 l 667 315 l 667 353 l 939 999 m 900 353 l 900 797 l 711 353 l 900 353 m 1069 -17 q 1026 -40 1032 -49 q 1069 27 1019 -32 q 1188 228 1118 86 q 1248 521 1258 369 q 1188 776 1238 672 q 1082 947 1139 879 q 1022 1031 1025 1014 q 1076 1001 1019 1047 q 1188 890 1133 956 q 1283 722 1243 825 q 1324 485 1324 618 q 1269 239 1324 353 q 1161 70 1215 125 q 1069 -17 1107 15 m 331 1019 q 361 1028 358 1036 q 307 955 364 1019 q 190 754 250 890 q 133 494 131 618 q 188 247 136 369 q 301 49 239 125 q 361 -41 364 -28 q 293 3 358 -54 q 179 131 228 60 q 95 288 131 201 q 57 494 60 375 q 108 738 54 613 q 233 933 163 863 q 331 1019 303 1003 m 358 125 q 456 168 456 125 l 456 846 q 353 890 461 889 l 353 917 q 504 993 444 911 l 526 993 l 526 168 q 624 125 521 125 l 624 97 l 358 97 l 358 125 z "},"⒂":{"ha":1389,"x_min":54,"x_max":1324,"o":"m 1069 -17 q 1026 -40 1032 -49 q 1069 27 1019 -32 q 1188 228 1118 86 q 1248 521 1258 369 q 1188 776 1238 672 q 1082 947 1139 879 q 1022 1031 1025 1014 q 1076 1001 1019 1047 q 1188 890 1133 956 q 1283 722 1243 825 q 1324 485 1324 618 q 1269 239 1324 353 q 1161 70 1215 125 q 1069 -17 1107 15 m 331 1019 q 361 1028 358 1036 q 307 955 364 1019 q 190 754 250 890 q 133 494 131 618 q 188 247 136 369 q 301 49 239 125 q 361 -41 364 -28 q 293 3 358 -54 q 179 131 228 60 q 95 288 131 201 q 57 494 60 375 q 108 738 54 613 q 233 933 163 863 q 331 1019 303 1003 m 726 499 l 738 1004 q 879 985 819 982 q 972 1003 939 988 q 993 976 1004 1019 q 939 928 982 933 q 860 925 896 922 q 776 933 825 928 l 765 592 q 963 626 868 683 q 1064 415 1058 569 q 1015 182 1069 261 q 873 97 960 103 q 746 133 786 92 q 692 217 706 174 q 705 283 678 261 q 765 288 732 304 q 794 247 797 271 q 776 206 792 222 q 778 160 760 190 q 860 133 797 131 q 952 206 922 136 q 976 423 982 276 q 917 594 971 569 q 817 588 863 618 q 738 499 771 558 l 726 499 m 358 125 q 456 168 461 125 l 456 846 q 353 890 456 889 l 353 917 q 499 993 444 917 l 526 993 l 526 168 q 624 125 521 125 l 624 97 l 358 97 l 358 125 z "},"⒃":{"ha":1389,"x_min":54,"x_max":1324,"o":"m 1069 -17 q 1026 -40 1032 -49 q 1069 27 1019 -32 q 1188 228 1118 86 q 1248 521 1258 369 q 1188 776 1238 672 q 1082 947 1139 879 q 1022 1031 1025 1014 q 1076 1001 1019 1047 q 1188 890 1133 956 q 1283 722 1243 825 q 1324 485 1324 618 q 1269 239 1324 353 q 1161 70 1215 125 q 1069 -17 1107 15 m 331 1019 q 361 1028 358 1036 q 307 955 364 1019 q 190 754 250 890 q 133 494 131 618 q 188 247 136 369 q 301 49 239 125 q 361 -41 364 -28 q 293 3 358 -54 q 179 131 228 60 q 95 288 131 201 q 57 494 60 375 q 108 738 54 613 q 233 933 163 863 q 331 1019 303 1003 m 760 549 q 890 617 819 625 q 1003 538 960 608 q 1044 353 1047 467 q 993 165 1042 239 q 855 97 944 92 q 727 201 765 103 q 689 437 689 299 q 703 694 689 575 q 765 892 717 814 q 879 985 814 971 q 988 958 944 999 q 1036 868 1031 917 q 1009 806 1042 819 q 952 819 976 792 q 952 871 928 846 q 952 933 976 896 q 876 955 928 971 q 792 842 825 939 q 760 549 760 744 m 760 418 q 787 207 765 272 q 844 125 808 142 q 917 144 879 108 q 963 288 956 179 q 958 477 971 396 q 901 583 944 558 q 819 565 857 608 q 760 418 782 521 m 358 125 q 456 168 456 125 l 456 846 q 353 890 456 889 l 353 911 q 504 993 444 911 l 526 993 l 526 168 q 624 125 526 125 l 624 97 l 358 97 l 358 125 z "},"⒄":{"ha":1389,"x_min":54,"x_max":1324,"o":"m 711 982 l 1036 982 l 1036 911 q 949 721 993 829 q 871 474 906 613 q 833 211 836 336 q 803 84 831 86 q 754 117 776 82 q 754 238 732 151 q 806 431 776 325 q 876 632 836 538 q 993 917 917 726 l 765 917 l 700 776 l 683 776 l 711 982 m 1069 -17 q 1026 -40 1032 -49 q 1069 27 1019 -32 q 1188 228 1118 86 q 1248 521 1258 369 q 1188 776 1238 672 q 1082 947 1139 879 q 1022 1031 1025 1014 q 1076 1001 1019 1047 q 1188 890 1133 956 q 1283 722 1243 825 q 1324 485 1324 618 q 1269 239 1324 353 q 1161 70 1215 125 q 1069 -17 1107 15 m 331 1019 q 361 1028 358 1036 q 307 955 364 1019 q 190 754 250 890 q 133 494 131 618 q 188 247 136 369 q 301 49 239 125 q 361 -41 364 -28 q 293 3 358 -54 q 179 131 228 60 q 95 288 131 201 q 57 494 60 375 q 108 738 54 613 q 233 933 163 863 q 331 1019 303 1003 m 358 114 q 456 157 456 114 l 456 836 q 353 879 456 879 l 353 906 q 504 982 444 900 l 526 982 l 526 157 q 624 114 526 114 l 624 86 l 358 86 l 358 114 z "},"⒅":{"ha":1389,"x_min":54,"x_max":1324,"o":"m 1069 -17 q 1026 -40 1032 -49 q 1069 27 1019 -32 q 1188 228 1118 86 q 1248 521 1258 369 q 1188 776 1238 672 q 1082 947 1139 879 q 1022 1031 1025 1014 q 1076 1001 1019 1047 q 1188 890 1133 956 q 1283 722 1243 825 q 1324 485 1324 618 q 1269 239 1324 353 q 1161 70 1215 125 q 1069 -17 1107 15 m 331 1019 q 361 1028 358 1036 q 307 955 364 1019 q 190 754 250 890 q 133 494 131 618 q 188 247 136 369 q 301 49 239 125 q 361 -41 364 -28 q 293 3 358 -54 q 179 131 228 60 q 95 288 131 201 q 57 494 60 375 q 108 738 54 613 q 233 933 163 863 q 331 1019 303 1003 m 900 564 q 1019 451 986 532 q 1042 280 1053 369 q 979 141 1031 190 q 857 94 928 92 q 735 163 786 97 q 683 303 683 228 q 710 447 683 379 q 831 564 738 515 q 724 667 754 596 q 703 811 694 738 q 751 933 711 885 q 833 993 792 982 q 901 993 874 1004 q 963 949 928 982 q 1017 844 999 917 q 1011 681 1036 771 q 900 564 986 592 m 874 558 q 773 444 792 493 q 754 333 754 396 q 776 211 754 271 q 841 133 797 151 q 922 158 885 114 q 968 272 960 201 q 963 409 976 342 q 874 558 950 476 m 863 569 q 939 659 922 618 q 956 763 956 700 q 944 879 956 825 q 890 958 933 933 q 816 936 846 982 q 776 833 786 890 q 778 714 765 776 q 863 569 792 651 m 358 125 q 456 168 461 125 l 456 846 q 353 890 456 889 l 353 911 q 504 993 444 911 l 526 993 l 526 168 q 624 125 526 125 l 624 97 l 358 97 l 358 125 z "},"⒆":{"ha":1389,"x_min":54,"x_max":1324,"o":"m 771 125 q 714 195 728 157 q 713 258 700 233 q 759 282 726 282 q 803 258 792 282 q 795 215 814 233 q 784 171 776 196 q 830 130 792 146 q 912 147 868 114 q 966 252 956 179 q 979 379 976 325 q 982 477 982 433 q 976 507 982 521 q 933 469 971 493 q 838 447 896 444 q 732 529 781 450 q 686 733 683 608 q 743 925 689 857 q 878 990 797 993 q 1003 917 960 988 q 1047 738 1047 846 l 1047 518 q 1044 342 1047 407 q 1020 219 1042 276 q 963 133 999 163 q 871 98 928 103 q 771 125 814 93 m 749 706 q 790 546 754 608 q 868 488 825 483 q 941 528 911 493 q 974 610 971 564 q 976 744 976 657 q 949 895 976 831 q 865 958 922 960 q 778 882 808 956 q 749 706 749 808 m 358 125 q 456 168 456 125 l 456 846 q 353 890 461 889 l 353 917 q 504 993 444 911 l 526 993 l 526 168 q 624 125 521 125 l 624 97 l 358 97 l 358 125 m 331 1019 q 361 1028 358 1036 q 307 955 364 1019 q 190 754 250 890 q 133 494 131 618 q 188 247 136 369 q 301 49 239 125 q 361 -41 364 -28 q 293 3 358 -54 q 179 131 228 60 q 95 288 131 201 q 57 494 60 375 q 108 738 54 613 q 233 933 163 863 q 331 1019 303 1003 m 1069 -17 q 1026 -40 1032 -49 q 1069 27 1019 -32 q 1188 228 1118 86 q 1248 521 1258 369 q 1188 776 1238 672 q 1082 947 1139 879 q 1022 1031 1025 1014 q 1076 1001 1019 1047 q 1188 890 1133 956 q 1283 722 1243 825 q 1324 485 1324 618 q 1269 239 1324 353 q 1161 70 1215 125 q 1069 -17 1107 15 z "},"⒇":{"ha":1389,"x_min":54,"x_max":1324,"o":"m 944 960 q 847 984 907 997 q 751 854 786 971 q 711 640 717 738 q 711 426 706 543 q 757 201 717 310 q 868 89 797 92 q 982 187 939 86 q 1033 372 1025 288 q 1042 591 1042 456 q 1015 827 1042 726 q 944 960 988 928 m 906 142 q 843 131 878 99 q 794 276 808 163 q 778 483 781 390 q 781 678 776 575 q 811 876 786 781 q 879 971 836 971 q 944 878 922 971 q 965 672 965 786 l 965 458 q 949 272 965 358 q 906 142 933 185 m 358 157 l 581 157 l 635 282 l 651 282 l 624 97 l 331 97 l 331 168 q 548 616 504 510 q 597 809 592 722 q 567 939 603 896 q 488 971 532 982 q 426 919 444 960 q 407 852 407 879 q 423 822 407 825 q 444 795 439 819 q 434 754 450 771 q 385 743 418 738 q 347 790 353 749 q 360 885 342 831 q 426 974 379 939 q 542 1001 472 1010 q 651 939 613 993 q 676 817 689 885 q 638 697 663 749 q 542 518 613 646 q 358 157 472 390 m 331 1019 q 361 1028 358 1036 q 307 955 364 1019 q 190 754 250 890 q 133 494 131 618 q 188 247 136 369 q 301 49 239 125 q 361 -41 364 -28 q 293 3 358 -54 q 179 131 228 60 q 95 288 131 201 q 57 494 60 375 q 108 738 54 613 q 233 933 163 863 q 331 1019 303 1003 m 1069 -17 q 1026 -40 1032 -49 q 1069 27 1019 -32 q 1188 228 1118 86 q 1248 521 1258 369 q 1188 776 1238 672 q 1082 947 1139 879 q 1022 1031 1025 1014 q 1076 1001 1019 1047 q 1188 890 1133 956 q 1283 722 1243 825 q 1324 485 1324 618 q 1269 239 1324 353 q 1161 70 1215 125 q 1069 -17 1107 15 z "},"⒈":{"ha":1389,"x_min":521,"x_max":1335,"o":"m 549 146 q 678 196 674 146 l 678 863 q 521 911 678 917 l 521 933 q 743 1014 663 933 l 765 1014 l 765 201 q 896 146 760 147 l 896 119 l 549 119 l 549 146 m 1329 185 q 1297 135 1324 157 q 1234 117 1269 114 q 1177 141 1199 119 q 1153 192 1156 163 q 1164 247 1150 222 q 1208 285 1178 271 q 1270 288 1238 299 q 1319 247 1303 276 q 1329 185 1335 217 z "},"⒉":{"ha":1389,"x_min":444,"x_max":1335,"o":"m 515 185 l 879 185 l 956 293 l 971 293 l 933 108 l 444 108 l 444 179 q 794 592 721 489 q 871 800 868 694 q 811 944 874 906 q 686 971 749 982 q 591 928 624 960 q 553 876 558 896 q 573 844 549 857 q 603 803 597 831 q 583 749 608 776 q 513 730 558 722 q 456 792 467 738 q 483 898 444 846 q 597 985 521 950 q 776 1006 672 1019 q 936 936 879 993 q 993 803 993 879 q 955 667 993 726 q 808 499 917 608 q 515 185 700 390 m 1329 185 q 1297 135 1324 157 q 1234 117 1269 114 q 1177 141 1199 119 q 1153 192 1156 163 q 1164 247 1150 222 q 1208 285 1178 271 q 1270 288 1238 299 q 1319 247 1303 276 q 1329 185 1335 217 z "},"⒊":{"ha":1389,"x_min":456,"x_max":1329,"o":"m 765 592 l 765 586 q 974 494 911 564 q 1028 328 1036 424 q 933 171 1019 233 q 722 108 846 108 q 535 157 597 108 q 464 258 472 206 q 488 331 456 310 q 553 342 521 353 q 594 301 586 331 q 594 255 603 271 q 581 222 586 239 q 613 178 575 206 q 735 151 651 151 q 876 214 819 151 q 922 369 933 276 q 841 510 911 461 q 597 575 771 558 l 597 592 q 778 646 694 597 q 863 803 863 694 q 787 947 863 911 q 649 949 711 982 q 594 901 586 917 q 610 863 603 885 q 605 813 618 840 q 553 781 592 786 q 491 806 515 776 q 494 888 467 836 q 599 979 521 939 q 776 1006 678 1019 q 933 928 874 993 q 963 760 993 863 q 765 592 933 657 m 1324 185 q 1291 135 1318 157 q 1228 117 1264 114 q 1172 141 1193 119 q 1147 192 1150 163 q 1158 247 1144 222 q 1202 285 1172 271 q 1265 288 1232 299 q 1313 247 1297 276 q 1324 185 1329 217 z "},"⒋":{"ha":1389,"x_min":401,"x_max":1335,"o":"m 885 1004 l 885 358 l 1031 358 l 1031 315 l 885 315 l 885 185 q 1025 131 885 125 l 1025 97 l 640 97 l 640 131 q 781 190 775 131 l 781 315 l 401 315 l 401 364 l 857 1004 l 885 1004 m 781 358 l 781 814 l 456 358 l 781 358 m 1329 185 q 1297 135 1324 157 q 1234 117 1269 114 q 1177 141 1199 119 q 1153 192 1156 163 q 1164 247 1150 222 q 1208 285 1178 271 q 1270 288 1238 299 q 1319 247 1303 276 q 1329 185 1335 217 z "},"⒌":{"ha":1389,"x_min":439,"x_max":1335,"o":"m 515 1019 q 787 998 683 992 q 947 1017 890 1004 q 988 988 1004 1031 q 908 936 971 944 q 776 928 846 928 q 569 944 706 928 l 558 613 q 849 653 710 732 q 990 420 988 575 q 912 190 993 265 q 714 108 831 114 q 521 154 597 103 q 442 255 444 206 q 469 323 439 304 q 537 328 499 342 q 578 285 575 315 q 567 236 581 256 q 588 179 553 217 q 710 147 624 142 q 841 228 797 151 q 879 434 885 304 q 768 621 874 564 q 526 538 663 678 l 499 538 l 515 1019 m 1329 190 q 1297 141 1324 163 q 1234 122 1269 119 q 1177 147 1199 125 q 1153 198 1156 168 q 1164 252 1150 228 q 1208 290 1178 276 q 1270 293 1238 304 q 1319 252 1303 282 q 1329 190 1335 222 z "},"⒍":{"ha":1389,"x_min":456,"x_max":1335,"o":"m 569 564 q 762 648 656 650 q 936 567 868 646 q 999 369 1004 489 q 917 174 993 250 q 708 106 840 97 q 515 215 575 114 q 458 491 456 315 q 494 770 461 667 q 592 931 526 874 q 747 990 657 988 q 898 960 836 993 q 974 884 960 928 q 955 810 988 840 q 881 800 922 781 q 854 863 840 819 q 817 931 868 906 q 703 920 765 956 q 605 806 640 885 q 569 564 569 726 m 569 472 q 594 242 564 315 q 678 147 624 168 q 797 163 732 125 q 884 307 863 201 q 884 494 906 413 q 797 599 863 575 q 667 586 732 624 q 569 472 601 549 m 1329 190 q 1297 141 1324 163 q 1234 122 1269 119 q 1177 147 1199 125 q 1153 198 1156 168 q 1164 252 1150 228 q 1208 290 1178 276 q 1270 293 1238 304 q 1319 252 1303 282 q 1329 190 1335 222 z "},"⒎":{"ha":1389,"x_min":418,"x_max":1335,"o":"m 1014 1004 l 1014 917 q 813 675 872 786 q 740 456 754 564 q 726 244 726 347 q 708 119 726 142 q 646 133 689 97 q 608 255 603 168 q 653 464 613 342 q 757 694 694 586 q 944 928 819 803 l 538 928 q 469 817 500 874 q 428 765 439 760 q 434 825 418 771 q 478 1004 450 879 l 1014 1004 m 1329 185 q 1297 135 1324 157 q 1234 117 1269 114 q 1177 141 1199 119 q 1153 192 1156 163 q 1164 247 1150 222 q 1208 285 1178 271 q 1270 288 1238 299 q 1319 247 1303 276 q 1329 185 1335 217 z "},"⒏":{"ha":1389,"x_min":418,"x_max":1335,"o":"m 776 586 q 947 453 896 526 q 977 295 999 379 q 890 160 956 211 q 719 100 825 108 q 531 149 613 92 q 434 282 450 206 q 464 431 418 358 q 618 569 510 504 q 493 678 536 607 q 464 819 450 749 q 535 939 478 890 q 651 1001 592 988 q 768 1003 711 1014 q 876 955 825 993 q 944 838 928 917 q 914 694 960 760 q 776 586 868 629 m 672 538 q 550 451 601 506 q 494 326 499 396 q 556 201 489 256 q 694 141 624 146 q 819 179 765 136 q 876 288 874 222 q 833 413 879 353 q 672 538 786 472 m 717 618 q 868 740 836 661 q 865 879 900 819 q 768 966 831 939 q 646 952 706 993 q 572 849 586 911 q 583 732 558 786 q 717 618 608 678 m 1329 190 q 1297 141 1324 163 q 1234 122 1269 119 q 1177 147 1199 125 q 1153 198 1156 168 q 1164 252 1150 228 q 1208 290 1178 276 q 1270 293 1238 304 q 1319 252 1303 282 q 1329 190 1335 222 z "},"⒐":{"ha":1389,"x_min":461,"x_max":1335,"o":"m 890 543 q 814 481 863 506 q 684 458 765 456 q 532 532 603 461 q 464 730 461 603 q 538 928 467 857 q 722 1004 608 999 q 903 947 836 1010 q 982 790 971 885 q 990 548 993 694 q 972 326 988 401 q 923 209 956 250 q 838 144 890 168 q 726 114 786 119 q 605 127 667 108 q 510 190 543 146 q 491 272 478 233 q 548 310 504 310 q 605 283 592 310 q 608 231 618 256 q 608 190 597 206 q 656 163 618 174 q 757 171 694 151 q 849 236 819 190 q 885 342 879 282 q 890 543 890 401 m 549 694 q 616 537 560 581 q 738 504 672 493 q 844 548 803 515 q 888 624 885 581 q 888 735 890 667 q 858 879 885 803 q 744 960 831 956 q 600 890 657 965 q 549 694 543 814 m 1329 190 q 1297 141 1324 163 q 1234 122 1269 119 q 1177 147 1199 125 q 1153 198 1156 168 q 1164 252 1150 228 q 1208 290 1178 276 q 1270 293 1238 304 q 1319 252 1303 282 q 1329 190 1335 222 z "},"⒑":{"ha":1389,"x_min":185,"x_max":1335,"o":"m 917 988 q 1020 876 982 956 q 1064 665 1058 797 q 1056 394 1069 532 q 976 179 1042 256 q 824 106 911 103 q 675 176 738 108 q 605 394 613 244 q 600 676 597 543 q 654 890 603 808 q 778 995 706 971 q 917 988 851 1019 m 874 157 q 947 268 922 189 q 971 475 971 347 l 971 700 q 935 881 971 797 q 835 965 900 965 q 730 887 771 965 q 689 697 689 808 l 689 467 q 713 263 689 347 q 784 154 738 179 q 874 157 831 129 m 206 136 q 319 185 325 131 l 319 851 q 185 900 325 906 l 185 928 q 375 1004 310 922 l 401 1004 l 401 179 q 515 136 401 136 l 515 108 l 206 108 l 206 136 m 1329 185 q 1297 135 1324 157 q 1234 117 1269 114 q 1177 141 1199 119 q 1153 192 1156 163 q 1164 247 1150 222 q 1208 285 1178 271 q 1270 288 1238 299 q 1319 247 1303 276 q 1329 185 1335 217 z "},"⒒":{"ha":1389,"x_min":185,"x_max":1335,"o":"m 206 136 q 319 185 319 136 l 319 851 q 185 900 325 906 l 185 928 q 379 1004 310 922 l 401 1004 l 401 179 q 515 136 396 136 l 515 108 l 206 108 l 206 136 m 683 136 q 797 185 797 136 l 797 851 q 663 900 797 900 l 663 928 q 857 1004 788 922 l 879 1004 l 879 179 q 993 136 879 136 l 993 108 l 683 108 l 683 136 m 1329 185 q 1297 135 1324 157 q 1234 117 1269 114 q 1177 141 1199 119 q 1153 192 1156 163 q 1164 247 1150 222 q 1208 285 1178 271 q 1270 288 1238 299 q 1319 247 1303 276 q 1329 185 1335 217 z "},"⒓":{"ha":1389,"x_min":185,"x_max":1335,"o":"m 651 190 l 956 190 l 1025 325 l 1042 325 l 1014 108 l 613 108 l 613 201 q 860 548 781 429 q 958 753 939 667 q 938 908 976 840 q 833 974 900 976 q 733 917 765 971 q 719 851 700 863 q 746 816 738 840 q 735 770 754 792 q 687 746 717 749 q 638 767 657 743 q 621 827 618 792 q 662 917 624 863 q 773 998 700 971 q 944 990 846 1025 q 1060 849 1042 956 q 1022 659 1079 743 q 865 458 965 575 q 651 190 765 342 m 206 136 q 319 185 325 136 l 319 851 q 185 900 325 900 l 185 928 q 375 1004 310 922 l 401 1004 l 401 185 q 515 136 396 136 l 515 108 l 206 108 l 206 136 m 1329 185 q 1297 135 1324 157 q 1234 117 1269 114 q 1177 141 1199 119 q 1153 192 1156 163 q 1164 247 1150 222 q 1208 285 1178 271 q 1270 288 1238 299 q 1319 247 1303 276 q 1329 185 1335 217 z "},"⒔":{"ha":1389,"x_min":185,"x_max":1335,"o":"m 803 592 q 1004 497 939 575 q 1056 323 1069 418 q 985 174 1042 228 q 830 114 928 119 q 672 155 732 108 q 605 247 613 201 q 622 320 597 293 q 684 333 646 347 q 722 288 722 319 q 697 242 722 256 q 708 190 672 228 q 817 151 743 151 q 925 214 890 151 q 960 358 960 276 q 908 501 960 439 q 717 581 857 564 l 717 597 q 860 654 799 603 q 928 803 922 706 q 871 935 933 900 q 754 941 808 971 q 703 895 700 911 q 727 863 706 879 q 738 811 749 846 q 686 774 726 776 q 629 806 646 771 q 638 895 613 840 q 722 982 663 950 q 863 998 781 1014 q 993 909 944 982 q 1009 733 1042 836 q 803 592 976 629 m 206 136 q 325 185 325 131 l 325 851 q 185 900 325 906 l 185 928 q 379 1004 310 922 l 407 1004 l 407 185 q 515 136 396 131 l 515 108 l 206 108 l 206 136 m 1329 185 q 1297 135 1324 157 q 1234 117 1269 114 q 1177 141 1199 119 q 1153 192 1156 163 q 1164 247 1150 222 q 1208 285 1178 271 q 1270 288 1238 299 q 1319 247 1303 276 q 1329 185 1335 217 z "},"⒕":{"ha":1389,"x_min":185,"x_max":1329,"o":"m 1183 142 q 1153 196 1156 164 q 1169 255 1150 228 q 1215 290 1188 282 q 1270 288 1243 299 q 1313 255 1297 276 q 1329 203 1329 233 q 1308 147 1329 174 q 1249 119 1286 119 q 1183 142 1211 119 m 1004 1004 l 1004 358 l 1101 358 l 1101 319 l 1004 319 l 1004 174 q 1101 125 1004 119 l 1101 97 l 786 97 l 786 125 q 911 174 911 119 l 911 319 l 553 319 l 553 347 l 993 1004 l 1004 1004 m 911 358 l 911 814 l 603 358 l 911 358 m 206 136 q 325 185 325 136 l 325 851 q 185 900 325 900 l 185 928 q 379 1004 310 922 l 407 1004 l 407 185 q 515 136 407 136 l 515 108 l 206 108 l 206 136 z "},"⒖":{"ha":1389,"x_min":185,"x_max":1329,"o":"m 1150 206 q 1172 260 1156 238 q 1215 290 1188 282 q 1270 288 1243 299 q 1313 252 1297 276 q 1326 195 1329 228 q 1299 138 1324 163 q 1237 117 1275 114 q 1174 147 1199 119 q 1150 206 1150 174 m 663 1019 q 785 995 733 997 q 896 996 836 993 q 993 1015 956 999 q 1025 993 1031 1031 q 982 942 1019 956 q 876 931 944 928 q 711 944 808 933 l 694 618 q 942 640 831 721 q 1053 423 1053 558 q 993 203 1053 288 q 835 114 933 119 q 681 149 738 108 q 610 239 624 190 q 622 315 597 288 q 681 331 646 342 q 724 292 717 319 q 710 238 732 265 q 727 176 689 211 q 833 149 765 142 q 933 236 900 157 q 958 448 965 315 q 858 626 950 581 q 667 532 765 672 l 646 532 l 663 1019 m 206 146 q 319 196 325 140 l 319 868 q 185 911 325 917 l 185 939 q 379 1014 310 939 l 401 1014 l 401 190 q 515 146 401 147 l 515 119 l 206 119 l 206 146 z "},"⒗":{"ha":1389,"x_min":185,"x_max":1335,"o":"m 206 136 q 319 190 325 136 l 319 857 q 185 900 325 900 l 185 928 q 379 1004 310 922 l 401 1004 l 401 185 q 515 136 407 136 l 515 108 l 206 108 l 206 136 m 694 569 q 849 653 760 661 q 990 575 939 646 q 1039 383 1042 504 q 968 179 1036 261 q 800 108 900 97 q 656 201 700 119 q 608 423 613 282 q 619 702 603 564 q 706 922 635 840 q 855 1001 776 1004 q 979 966 933 999 q 1033 887 1025 933 q 1009 819 1042 840 q 944 822 976 797 q 931 881 911 846 q 906 949 950 917 q 814 958 863 982 q 727 841 765 933 q 694 569 689 749 m 689 472 q 719 225 694 282 q 790 149 743 168 q 882 163 836 131 q 944 310 928 196 q 944 502 960 424 q 876 605 928 581 q 771 592 825 629 q 689 472 717 554 m 1329 185 q 1297 135 1324 157 q 1234 117 1269 114 q 1177 141 1199 119 q 1153 192 1156 163 q 1164 247 1150 222 q 1208 285 1178 271 q 1270 288 1238 299 q 1319 247 1303 276 q 1329 185 1335 217 z "},"⒘":{"ha":1389,"x_min":185,"x_max":1335,"o":"m 651 1004 l 1042 1004 l 1042 939 q 933 706 982 825 q 863 456 885 586 q 840 231 840 325 q 822 117 840 136 q 773 117 803 97 q 749 228 743 136 q 797 456 754 319 q 881 694 840 592 q 982 928 922 797 l 700 928 q 646 819 668 874 q 610 768 624 765 q 616 831 597 771 q 651 1004 635 890 m 206 136 q 325 190 325 136 l 325 851 q 185 900 325 900 l 185 928 q 379 1004 310 922 l 407 1004 l 407 190 q 515 136 401 136 l 515 108 l 206 108 l 206 136 m 1329 185 q 1297 135 1324 157 q 1234 117 1269 114 q 1177 141 1199 119 q 1153 192 1156 163 q 1164 247 1150 222 q 1208 285 1178 271 q 1270 288 1238 299 q 1319 247 1303 276 q 1329 185 1335 217 z "},"⒙":{"ha":1389,"x_min":185,"x_max":1335,"o":"m 206 136 q 319 190 319 136 l 319 851 q 185 900 319 906 l 185 928 q 379 1004 310 922 l 401 1004 l 401 190 q 515 136 396 136 l 515 108 l 206 108 l 206 136 m 863 575 q 1017 467 976 538 q 1050 315 1058 396 q 976 171 1042 233 q 819 108 911 108 q 669 163 726 108 q 605 306 613 217 q 640 461 597 396 q 781 569 683 526 q 656 683 689 618 q 635 827 624 749 q 689 952 646 906 q 781 1009 732 999 q 871 1009 831 1019 q 955 963 911 999 q 1017 863 999 928 q 1009 710 1036 797 q 863 575 982 624 m 825 558 q 708 442 739 499 q 678 317 678 385 q 716 198 678 250 q 817 146 754 146 q 917 195 879 146 q 963 315 956 244 q 952 439 971 385 q 825 558 933 493 m 825 592 q 933 727 911 663 q 942 854 956 792 q 876 955 928 917 q 774 955 825 993 q 708 849 722 917 q 717 716 694 781 q 825 592 739 651 m 1329 185 q 1297 135 1324 157 q 1234 117 1269 114 q 1177 141 1199 119 q 1153 192 1156 163 q 1164 247 1150 222 q 1208 285 1178 271 q 1270 288 1238 299 q 1319 247 1303 276 q 1329 185 1335 217 z "},"⒚":{"ha":1389,"x_min":185,"x_max":1329,"o":"m 1324 196 q 1297 139 1324 164 q 1237 117 1269 114 q 1177 144 1204 119 q 1150 203 1150 168 q 1169 260 1150 239 q 1215 290 1188 282 q 1270 288 1243 299 q 1313 252 1297 276 q 1324 196 1329 228 m 965 549 q 903 486 943 517 q 792 461 863 456 q 667 535 722 467 q 618 733 613 603 q 686 936 624 863 q 844 1004 749 1010 q 988 931 939 999 q 1039 778 1036 863 q 1042 551 1042 694 q 1028 320 1042 407 q 990 195 1014 233 q 925 135 965 157 q 831 108 885 114 q 730 119 776 103 q 653 182 683 136 q 638 266 624 228 q 689 299 651 304 q 732 260 726 293 q 722 222 738 228 q 716 190 706 217 q 767 147 726 163 q 860 152 808 131 q 933 236 911 174 q 960 367 956 299 q 965 549 965 435 m 694 700 q 740 532 700 581 q 833 494 781 483 q 912 537 885 504 q 952 616 939 569 q 963 749 965 663 q 925 903 960 836 q 828 965 890 971 q 727 890 765 960 q 694 700 689 819 m 206 136 q 319 190 325 136 l 319 846 q 185 900 319 900 l 185 928 q 375 1004 310 922 l 401 1004 l 401 185 q 515 136 407 136 l 515 108 l 206 108 l 206 136 z "},"⒛":{"ha":1389,"x_min":131,"x_max":1335,"o":"m 781 999 q 911 988 851 1021 q 1006 874 971 956 q 1042 665 1042 792 q 1039 407 1042 538 q 985 195 1036 276 q 835 111 933 114 q 678 190 738 108 q 615 410 618 271 q 615 678 613 549 q 664 895 618 808 q 781 999 710 982 m 776 157 q 876 160 825 125 q 947 274 928 196 q 965 464 965 353 l 965 689 q 928 887 965 803 q 828 974 890 971 q 727 887 765 976 q 689 694 689 797 l 689 472 q 711 274 689 353 q 776 157 733 194 m 179 179 l 478 179 l 549 310 l 558 310 l 521 108 l 131 108 l 131 163 q 418 605 358 510 q 481 806 478 700 q 440 949 483 911 q 339 974 396 988 q 258 925 282 960 q 233 871 233 890 q 252 846 233 851 q 279 813 271 840 q 266 762 288 786 q 206 743 244 738 q 160 794 168 749 q 181 895 151 840 q 263 985 211 950 q 402 1012 315 1019 q 535 942 489 1004 q 569 801 581 879 q 526 667 558 722 q 412 501 493 613 q 179 179 331 390 m 1329 185 q 1297 135 1324 157 q 1234 117 1269 114 q 1177 141 1199 119 q 1153 192 1156 163 q 1164 247 1150 222 q 1208 285 1178 271 q 1270 288 1238 299 q 1319 247 1303 276 q 1329 185 1335 217 z "},"┄":{"ha":1389,"x_min":0,"x_max":1383,"o":"m 0 549 l 336 549 l 336 444 l 0 444 l 0 549 m 515 549 l 857 549 l 857 444 l 515 444 l 515 549 m 1036 549 l 1383 549 l 1383 444 l 1036 444 l 1036 549 z "},"┅":{"ha":1389,"x_min":0,"x_max":1383,"o":"m 0 581 l 342 581 l 342 413 l 0 413 l 0 581 m 521 581 l 863 581 l 863 413 l 521 413 l 521 581 m 1042 581 l 1383 581 l 1383 413 l 1042 413 l 1042 581 z "},"┆":{"ha":1389,"x_min":640,"x_max":743,"o":"m 640 146 l 743 146 l 743 -196 l 640 -196 l 640 146 m 640 667 l 743 667 l 743 325 l 640 325 l 640 667 m 640 1188 l 743 1188 l 743 846 l 640 846 l 640 1188 z "},"┇":{"ha":1389,"x_min":608,"x_max":776,"o":"m 608 146 l 776 146 l 776 -196 l 608 -196 l 608 146 m 608 667 l 776 667 l 776 325 l 608 325 l 608 667 m 608 1188 l 776 1188 l 776 846 l 608 846 l 608 1188 z "},"┈":{"ha":1389,"x_min":0,"x_max":1383,"o":"m 0 549 l 288 549 l 288 444 l 0 444 l 0 549 m 369 549 l 657 549 l 657 444 l 369 444 l 369 549 m 726 549 l 1014 549 l 1014 444 l 726 444 l 726 549 m 1096 549 l 1383 549 l 1383 444 l 1096 444 l 1096 549 z "},"┉":{"ha":1389,"x_min":0,"x_max":1383,"o":"m 0 581 l 288 581 l 288 413 l 0 413 l 0 581 m 369 581 l 657 581 l 657 413 l 369 413 l 369 581 m 726 581 l 1014 581 l 1014 413 l 726 413 l 726 581 m 1096 581 l 1383 581 l 1383 413 l 1096 413 l 1096 581 z "},"┊":{"ha":1389,"x_min":640,"x_max":743,"o":"m 640 92 l 743 92 l 743 -196 l 640 -196 l 640 92 m 640 461 l 743 461 l 743 174 l 640 174 l 640 461 m 640 819 l 743 819 l 743 532 l 640 532 l 640 819 m 640 1188 l 743 1188 l 743 900 l 640 900 l 640 1188 z "},"┋":{"ha":1389,"x_min":608,"x_max":776,"o":"m 608 92 l 776 92 l 776 -196 l 608 -196 l 608 92 m 608 461 l 776 461 l 776 174 l 608 174 l 608 461 m 608 819 l 776 819 l 776 532 l 608 532 l 608 819 m 608 1188 l 776 1188 l 776 900 l 608 900 l 608 1188 z "},"┌":{"ha":1389,"x_min":640,"x_max":1383,"o":"m 1383 549 l 1383 444 l 743 444 l 743 -196 l 640 -196 l 640 549 l 1383 549 z "},"┍":{"ha":1389,"x_min":640,"x_max":1383,"o":"m 1383 581 l 1383 413 l 743 413 l 743 -196 l 640 -196 l 640 581 l 1383 581 z "},"┎":{"ha":1389,"x_min":608,"x_max":1383,"o":"m 1383 549 l 1383 444 l 776 444 l 776 -196 l 608 -196 l 608 549 l 1383 549 z "},"┏":{"ha":1389,"x_min":608,"x_max":1383,"o":"m 1383 581 l 1383 413 l 776 413 l 776 -196 l 608 -196 l 608 581 l 1383 581 z "},"┐":{"ha":1389,"x_min":0,"x_max":743,"o":"m 0 549 l 743 549 l 743 -196 l 640 -196 l 640 444 l 0 444 l 0 549 z "},"┑":{"ha":1389,"x_min":0,"x_max":743,"o":"m 0 581 l 743 581 l 743 -196 l 640 -196 l 640 413 l 0 413 l 0 581 z "},"┒":{"ha":1389,"x_min":0,"x_max":776,"o":"m 0 549 l 776 549 l 776 -196 l 608 -196 l 608 444 l 0 444 l 0 549 z "},"┓":{"ha":1389,"x_min":0,"x_max":776,"o":"m 0 581 l 776 581 l 776 -196 l 608 -196 l 608 413 l 0 413 l 0 581 z "},"└":{"ha":1389,"x_min":640,"x_max":1383,"o":"m 640 1188 l 743 1188 l 743 549 l 1383 549 l 1383 444 l 640 444 l 640 1188 z "},"┕":{"ha":1389,"x_min":640,"x_max":1383,"o":"m 640 1188 l 743 1188 l 743 581 l 1383 581 l 1383 413 l 640 413 l 640 1188 z "},"┖":{"ha":1389,"x_min":608,"x_max":1383,"o":"m 608 1188 l 776 1188 l 776 549 l 1383 549 l 1383 444 l 608 444 l 608 1188 z "},"┗":{"ha":1389,"x_min":608,"x_max":1383,"o":"m 608 1188 l 776 1188 l 776 581 l 1383 581 l 1383 413 l 608 413 l 608 1188 z "},"┘":{"ha":1389,"x_min":0,"x_max":743,"o":"m 640 1188 l 743 1188 l 743 444 l 0 444 l 0 549 l 640 549 l 640 1188 z "},"┙":{"ha":1389,"x_min":0,"x_max":743,"o":"m 640 1188 l 743 1188 l 743 413 l 0 413 l 0 581 l 640 581 l 640 1188 z "},"┚":{"ha":1389,"x_min":0,"x_max":776,"o":"m 608 1188 l 776 1188 l 776 444 l 0 444 l 0 549 l 608 549 l 608 1188 z "},"┛":{"ha":1389,"x_min":0,"x_max":776,"o":"m 608 1188 l 776 1188 l 776 413 l 0 413 l 0 581 l 608 581 l 608 1188 z "},"├":{"ha":1389,"x_min":640,"x_max":1383,"o":"m 640 1188 l 743 1188 l 743 549 l 1383 549 l 1383 444 l 743 444 l 743 -196 l 640 -196 l 640 1188 z "},"┝":{"ha":1389,"x_min":640,"x_max":1383,"o":"m 640 1188 l 743 1188 l 743 581 l 1383 581 l 1383 413 l 743 413 l 743 -196 l 640 -196 l 640 1188 z "},"┞":{"ha":1389,"x_min":608,"x_max":1383,"o":"m 608 1188 l 776 1188 l 776 549 l 1383 549 l 1383 444 l 743 444 l 743 -196 l 640 -196 l 640 444 l 608 444 l 608 1188 z "},"┟":{"ha":1389,"x_min":608,"x_max":1383,"o":"m 640 1188 l 743 1188 l 743 549 l 1383 549 l 1383 444 l 776 444 l 776 -196 l 608 -196 l 608 543 l 640 543 l 640 1188 z "},"┠":{"ha":1389,"x_min":608,"x_max":1383,"o":"m 608 1188 l 776 1188 l 776 549 l 1383 549 l 1383 444 l 776 444 l 776 -196 l 608 -196 l 608 1188 z "},"┡":{"ha":1389,"x_min":608,"x_max":1383,"o":"m 608 1188 l 776 1188 l 776 581 l 1383 581 l 1383 413 l 743 413 l 743 -196 l 640 -196 l 640 413 l 608 413 l 608 1188 z "},"┢":{"ha":1389,"x_min":608,"x_max":1383,"o":"m 640 1188 l 743 1188 l 743 581 l 1383 581 l 1383 413 l 776 413 l 776 -196 l 608 -196 l 608 575 l 640 575 l 640 1188 z "},"┣":{"ha":1389,"x_min":608,"x_max":1383,"o":"m 608 1188 l 776 1188 l 776 581 l 1383 581 l 1383 413 l 776 413 l 776 -196 l 608 -196 l 608 1188 z "},"┤":{"ha":1389,"x_min":0,"x_max":743,"o":"m 640 1188 l 743 1188 l 743 -196 l 640 -196 l 640 444 l 0 444 l 0 549 l 640 549 l 640 1188 z "},"┥":{"ha":1389,"x_min":0,"x_max":743,"o":"m 743 1188 l 743 -196 l 640 -196 l 640 413 l 0 413 l 0 581 l 640 581 l 640 1188 l 743 1188 z "},"┦":{"ha":1389,"x_min":0,"x_max":776,"o":"m 608 1188 l 776 1188 l 776 444 l 743 444 l 743 -196 l 640 -196 l 640 444 l 0 444 l 0 549 l 608 549 l 608 1188 z "},"┧":{"ha":1389,"x_min":0,"x_max":776,"o":"m 640 1188 l 743 1188 l 743 549 l 776 549 l 776 -196 l 608 -196 l 608 444 l 0 444 l 0 549 l 640 549 l 640 1188 z "},"┨":{"ha":1389,"x_min":0,"x_max":776,"o":"m 608 1188 l 776 1188 l 776 -196 l 608 -196 l 608 444 l 0 444 l 0 549 l 608 549 l 608 1188 z "},"┩":{"ha":1389,"x_min":0,"x_max":776,"o":"m 608 1188 l 776 1188 l 776 413 l 743 413 l 743 -196 l 640 -196 l 640 413 l 0 413 l 0 581 l 608 581 l 608 1188 z "},"┪":{"ha":1389,"x_min":0,"x_max":776,"o":"m 640 1188 l 743 1188 l 743 575 l 776 575 l 776 -196 l 608 -196 l 608 413 l 0 413 l 0 581 l 640 581 l 640 1188 z "},"┫":{"ha":1389,"x_min":0,"x_max":776,"o":"m 776 1188 l 776 -196 l 608 -196 l 608 413 l 0 413 l 0 581 l 608 581 l 608 1188 l 776 1188 z "},"┬":{"ha":1389,"x_min":0,"x_max":1383,"o":"m 0 549 l 1383 549 l 1383 444 l 743 444 l 743 -196 l 640 -196 l 640 444 l 0 444 l 0 549 z "},"┭":{"ha":1389,"x_min":0,"x_max":1383,"o":"m 0 581 l 743 581 l 743 549 l 1383 549 l 1383 444 l 743 444 l 743 -196 l 640 -196 l 640 413 l 0 413 l 0 581 z "},"┮":{"ha":1389,"x_min":0,"x_max":1383,"o":"m 1383 581 l 1383 413 l 743 413 l 743 -196 l 640 -196 l 640 444 l 0 444 l 0 549 l 640 549 l 640 581 l 1383 581 z "},"┯":{"ha":1389,"x_min":0,"x_max":1383,"o":"m 0 581 l 1383 581 l 1383 413 l 743 413 l 743 -196 l 640 -196 l 640 413 l 0 413 l 0 581 z "},"┰":{"ha":1389,"x_min":0,"x_max":1383,"o":"m 0 549 l 1383 549 l 1383 444 l 776 444 l 776 -196 l 608 -196 l 608 444 l 0 444 l 0 549 z "},"┱":{"ha":1389,"x_min":0,"x_max":1383,"o":"m 0 581 l 776 581 l 776 549 l 1383 549 l 1383 444 l 776 444 l 776 -196 l 608 -196 l 608 413 l 0 413 l 0 581 z "},"┲":{"ha":1389,"x_min":0,"x_max":1383,"o":"m 1383 581 l 1383 413 l 776 413 l 776 -196 l 608 -196 l 608 444 l 0 444 l 0 549 l 608 549 l 608 581 l 1383 581 z "},"┳":{"ha":1389,"x_min":0,"x_max":1383,"o":"m 0 581 l 1383 581 l 1383 413 l 776 413 l 776 -196 l 608 -196 l 608 413 l 0 413 l 0 581 z "},"┴":{"ha":1389,"x_min":0,"x_max":1383,"o":"m 640 1188 l 743 1188 l 743 549 l 1383 549 l 1383 444 l 0 444 l 0 549 l 640 549 l 640 1188 z "},"┵":{"ha":1389,"x_min":0,"x_max":1383,"o":"m 640 1188 l 743 1188 l 743 549 l 1383 549 l 1383 444 l 743 444 l 743 413 l 0 413 l 0 581 l 640 581 l 640 1188 z "},"┶":{"ha":1389,"x_min":0,"x_max":1383,"o":"m 640 1188 l 743 1188 l 743 581 l 1383 581 l 1383 413 l 646 413 l 646 444 l 0 444 l 0 549 l 640 549 l 640 1188 z "},"┷":{"ha":1389,"x_min":0,"x_max":1383,"o":"m 640 1188 l 743 1188 l 743 581 l 1383 581 l 1383 413 l 0 413 l 0 581 l 640 581 l 640 1188 z "},"┸":{"ha":1389,"x_min":0,"x_max":1383,"o":"m 608 1188 l 776 1188 l 776 549 l 1383 549 l 1383 444 l 0 444 l 0 549 l 608 549 l 608 1188 z "},"┹":{"ha":1389,"x_min":0,"x_max":1383,"o":"m 608 1188 l 776 1188 l 776 549 l 1383 549 l 1383 444 l 776 444 l 776 413 l 0 413 l 0 581 l 608 581 l 608 1188 z "},"┺":{"ha":1389,"x_min":0,"x_max":1383,"o":"m 608 1188 l 776 1188 l 776 581 l 1383 581 l 1383 413 l 608 413 l 608 444 l 0 444 l 0 549 l 608 549 l 608 1188 z "},"┻":{"ha":1389,"x_min":0,"x_max":1383,"o":"m 608 1188 l 776 1188 l 776 581 l 1383 581 l 1383 413 l 0 413 l 0 581 l 608 581 l 608 1188 z "},"┼":{"ha":1389,"x_min":0,"x_max":1383,"o":"m 640 1188 l 743 1188 l 743 549 l 1383 549 l 1383 444 l 743 444 l 743 -196 l 640 -196 l 640 444 l 0 444 l 0 549 l 640 549 l 640 1188 z "},"┽":{"ha":1389,"x_min":0,"x_max":1383,"o":"m 640 1188 l 743 1188 l 743 549 l 1383 549 l 1383 444 l 743 444 l 743 -196 l 640 -196 l 640 413 l 0 413 l 0 581 l 640 581 l 640 1188 z "},"┾":{"ha":1389,"x_min":0,"x_max":1383,"o":"m 640 1188 l 743 1188 l 743 581 l 1383 581 l 1383 413 l 743 413 l 743 -196 l 640 -196 l 640 444 l 0 444 l 0 549 l 640 549 l 640 1188 z "},"┿":{"ha":1389,"x_min":0,"x_max":1383,"o":"m 640 1188 l 743 1188 l 743 581 l 1383 581 l 1383 413 l 743 413 l 743 -196 l 640 -196 l 640 413 l 0 413 l 0 581 l 640 581 l 640 1188 z "},"╀":{"ha":1389,"x_min":0,"x_max":1383,"o":"m 608 1188 l 776 1188 l 776 549 l 1383 549 l 1383 444 l 743 444 l 743 -196 l 640 -196 l 640 444 l 0 444 l 0 549 l 608 549 l 608 1188 z "},"╁":{"ha":1389,"x_min":0,"x_max":1383,"o":"m 640 1188 l 743 1188 l 743 549 l 1383 549 l 1383 444 l 776 444 l 776 -196 l 608 -196 l 608 444 l 0 444 l 0 549 l 640 549 l 640 1188 z "},"╂":{"ha":1389,"x_min":0,"x_max":1383,"o":"m 608 1188 l 776 1188 l 776 549 l 1383 549 l 1383 444 l 776 444 l 776 -196 l 608 -196 l 608 444 l 0 444 l 0 549 l 608 549 l 608 1188 z "},"╃":{"ha":1389,"x_min":0,"x_max":1383,"o":"m 608 1188 l 776 1188 l 776 549 l 1383 549 l 1383 444 l 743 444 l 743 -196 l 640 -196 l 640 413 l 0 413 l 0 581 l 608 581 l 608 1188 z "},"╄":{"ha":1389,"x_min":0,"x_max":1383,"o":"m 608 1188 l 776 1188 l 776 581 l 1383 581 l 1383 413 l 743 413 l 743 -196 l 640 -196 l 640 444 l 0 444 l 0 549 l 608 549 l 608 1188 z "},"╅":{"ha":1389,"x_min":0,"x_max":1383,"o":"m 640 1188 l 743 1188 l 743 549 l 1383 549 l 1383 444 l 776 444 l 776 -196 l 608 -196 l 608 413 l 0 413 l 0 581 l 640 581 l 640 1188 z "},"╆":{"ha":1389,"x_min":0,"x_max":1383,"o":"m 640 1188 l 743 1188 l 743 581 l 1383 581 l 1383 413 l 776 413 l 776 -196 l 608 -196 l 608 444 l 0 444 l 0 549 l 640 549 l 640 1188 z "},"╇":{"ha":1389,"x_min":0,"x_max":1383,"o":"m 608 1188 l 776 1188 l 776 581 l 1383 581 l 1383 413 l 743 413 l 743 -196 l 640 -196 l 640 413 l 0 413 l 0 581 l 608 581 l 608 1188 z "},"╈":{"ha":1389,"x_min":0,"x_max":1383,"o":"m 640 1188 l 743 1188 l 743 581 l 1383 581 l 1383 413 l 776 413 l 776 -196 l 608 -196 l 608 413 l 0 413 l 0 581 l 640 581 l 640 1188 z "},"╉":{"ha":1389,"x_min":0,"x_max":1383,"o":"m 608 1188 l 776 1188 l 776 549 l 1383 549 l 1383 444 l 776 444 l 776 -196 l 608 -196 l 608 413 l 0 413 l 0 581 l 608 581 l 608 1188 z "},"╊":{"ha":1389,"x_min":0,"x_max":1383,"o":"m 608 1188 l 776 1188 l 776 581 l 1383 581 l 1383 413 l 776 413 l 776 -196 l 608 -196 l 608 444 l 0 444 l 0 549 l 608 549 l 608 1188 z "},"╋":{"ha":1389,"x_min":0,"x_max":1383,"o":"m 608 1188 l 776 1188 l 776 581 l 1383 581 l 1383 413 l 776 413 l 776 -196 l 608 -196 l 608 413 l 0 413 l 0 581 l 608 581 l 608 1188 z "},"═":{"ha":1389,"x_min":0,"x_max":1383,"o":"m 0 407 l 0 467 l 1383 467 l 1383 407 l 0 407 m 0 526 l 0 586 l 1383 586 l 1383 526 l 0 526 z "},"║":{"ha":1389,"x_min":603,"x_max":781,"o":"m 603 1188 l 663 1188 l 663 -196 l 603 -196 l 603 1188 m 722 1188 l 781 1188 l 781 -196 l 722 -196 l 722 1188 z "},"╒":{"ha":1389,"x_min":663,"x_max":1383,"o":"m 722 467 l 1383 467 l 1383 407 l 722 407 l 722 -196 l 663 -196 l 663 586 l 1383 586 l 1383 526 l 722 526 l 722 467 z "},"╓":{"ha":1389,"x_min":603,"x_max":1383,"o":"m 603 526 l 1383 526 l 1383 467 l 781 467 l 781 -196 l 722 -196 l 722 467 l 663 467 l 663 -196 l 603 -196 l 603 526 z "},"╔":{"ha":1389,"x_min":603,"x_max":1383,"o":"m 603 586 l 1383 586 l 1383 526 l 663 526 l 663 -196 l 603 -196 l 603 586 m 722 467 l 1383 467 l 1383 407 l 781 407 l 781 -196 l 722 -196 l 722 467 z "},"╕":{"ha":1389,"x_min":0,"x_max":722,"o":"m 0 467 l 663 467 l 663 526 l 0 526 l 0 586 l 722 586 l 722 -196 l 663 -196 l 663 407 l 0 407 l 0 467 z "},"╖":{"ha":1389,"x_min":0,"x_max":781,"o":"m 663 467 l 663 -196 l 603 -196 l 603 467 l 0 467 l 0 526 l 781 526 l 781 -196 l 722 -196 l 722 467 l 663 467 z "},"╗":{"ha":1389,"x_min":0,"x_max":781,"o":"m 781 586 l 781 -196 l 722 -196 l 722 526 l 0 526 l 0 586 l 781 586 m 663 472 l 663 -196 l 603 -196 l 603 413 l 0 413 l 0 472 l 663 472 z "},"╘":{"ha":1389,"x_min":663,"x_max":1383,"o":"m 663 407 l 663 1188 l 722 1188 l 722 586 l 1383 586 l 1383 526 l 722 526 l 722 467 l 1383 467 l 1383 407 l 663 407 z "},"╙":{"ha":1389,"x_min":603,"x_max":1383,"o":"m 603 467 l 603 1188 l 663 1188 l 663 526 l 722 526 l 722 1188 l 781 1188 l 781 526 l 1383 526 l 1383 467 l 603 467 z "},"╚":{"ha":1389,"x_min":603,"x_max":1383,"o":"m 603 407 l 603 1188 l 663 1188 l 663 467 l 1383 467 l 1383 407 l 603 407 m 781 586 l 1383 586 l 1383 526 l 722 526 l 722 1188 l 781 1188 l 781 586 z "},"╛":{"ha":1389,"x_min":0,"x_max":722,"o":"m 0 526 l 0 586 l 663 586 l 663 1188 l 722 1188 l 722 407 l 0 407 l 0 467 l 663 467 l 663 526 l 0 526 z "},"╜":{"ha":1389,"x_min":0,"x_max":781,"o":"m 781 467 l 0 467 l 0 526 l 603 526 l 603 1188 l 663 1188 l 663 526 l 722 526 l 722 1188 l 781 1188 l 781 467 z "},"╝":{"ha":1389,"x_min":0,"x_max":781,"o":"m 781 407 l 0 407 l 0 467 l 722 467 l 722 1188 l 781 1188 l 781 407 m 663 526 l 0 526 l 0 586 l 603 586 l 603 1188 l 663 1188 l 663 526 z "},"╞":{"ha":1389,"x_min":663,"x_max":1383,"o":"m 663 1188 l 722 1188 l 722 586 l 1383 586 l 1383 526 l 722 526 l 722 467 l 1383 467 l 1383 407 l 722 407 l 722 -196 l 663 -196 l 663 1188 z "},"╟":{"ha":1389,"x_min":603,"x_max":1383,"o":"m 722 1188 l 781 1188 l 781 526 l 1383 526 l 1383 467 l 781 467 l 781 -196 l 722 -196 l 722 1188 m 603 1188 l 663 1188 l 663 -196 l 603 -196 l 603 1188 z "},"╠":{"ha":1389,"x_min":603,"x_max":1383,"o":"m 603 1188 l 663 1188 l 663 -196 l 603 -196 l 603 1188 m 722 467 l 1383 467 l 1383 407 l 781 407 l 781 -196 l 722 -196 l 722 467 m 722 526 l 722 1188 l 781 1188 l 781 586 l 1383 586 l 1383 526 l 722 526 z "},"╡":{"ha":1389,"x_min":0,"x_max":722,"o":"m 0 407 l 0 467 l 663 467 l 663 526 l 0 526 l 0 586 l 663 586 l 663 1188 l 722 1188 l 722 -196 l 663 -196 l 663 407 l 0 407 z "},"╢":{"ha":1389,"x_min":0,"x_max":781,"o":"m 0 467 l 0 526 l 603 526 l 603 1188 l 663 1188 l 663 -196 l 603 -196 l 603 467 l 0 467 m 722 1188 l 781 1188 l 781 -196 l 722 -196 l 722 1188 z "},"╣":{"ha":1389,"x_min":0,"x_max":781,"o":"m 722 1188 l 781 1188 l 781 -196 l 722 -196 l 722 1188 m 663 526 l 0 526 l 0 586 l 603 586 l 603 1188 l 663 1188 l 663 526 m 663 467 l 663 -196 l 603 -196 l 603 407 l 0 407 l 0 467 l 663 467 z "},"╤":{"ha":1389,"x_min":0,"x_max":1383,"o":"m 0 407 l 0 467 l 1383 467 l 1383 407 l 722 407 l 722 -196 l 663 -196 l 663 407 l 0 407 m 0 526 l 0 586 l 1383 586 l 1383 526 l 0 526 z "},"╥":{"ha":1389,"x_min":0,"x_max":1383,"o":"m 0 467 l 0 526 l 1383 526 l 1383 467 l 781 467 l 781 -196 l 722 -196 l 722 467 l 663 467 l 663 -196 l 603 -196 l 603 467 l 0 467 z "},"╦":{"ha":1389,"x_min":0,"x_max":1383,"o":"m 0 526 l 0 586 l 1383 586 l 1383 526 l 0 526 m 603 407 l 0 407 l 0 467 l 663 467 l 663 -196 l 603 -196 l 603 407 m 781 407 l 781 -196 l 722 -196 l 722 467 l 1383 467 l 1383 407 l 781 407 z "},"╧":{"ha":1389,"x_min":0,"x_max":1383,"o":"m 663 1188 l 722 1188 l 722 586 l 1383 586 l 1383 526 l 0 526 l 0 586 l 663 586 l 663 1188 m 0 407 l 0 467 l 1383 467 l 1383 407 l 0 407 z "},"╨":{"ha":1389,"x_min":0,"x_max":1383,"o":"m 603 1188 l 663 1188 l 663 526 l 722 526 l 722 1188 l 781 1188 l 781 526 l 1383 526 l 1383 467 l 0 467 l 0 526 l 603 526 l 603 1188 z "},"╩":{"ha":1389,"x_min":0,"x_max":1383,"o":"m 0 407 l 0 467 l 1383 467 l 1383 407 l 0 407 m 603 586 l 603 1188 l 663 1188 l 663 526 l 0 526 l 0 586 l 603 586 m 781 586 l 1383 586 l 1383 526 l 722 526 l 722 1188 l 781 1188 l 781 586 z "},"╪":{"ha":1389,"x_min":0,"x_max":1383,"o":"m 0 526 l 0 586 l 663 586 l 663 1188 l 722 1188 l 722 586 l 1383 586 l 1383 526 l 722 526 l 722 467 l 1383 467 l 1383 407 l 722 407 l 722 -196 l 663 -196 l 663 407 l 0 407 l 0 467 l 663 467 l 663 526 l 0 526 z "},"╫":{"ha":1389,"x_min":0,"x_max":1383,"o":"m 722 1188 l 781 1188 l 781 526 l 1383 526 l 1383 467 l 781 467 l 781 -196 l 722 -196 l 722 467 l 663 467 l 663 -196 l 603 -196 l 603 467 l 0 467 l 0 526 l 603 526 l 603 1188 l 663 1188 l 663 526 l 722 526 l 722 1188 z "},"╬":{"ha":1389,"x_min":0,"x_max":1383,"o":"m 603 407 l 0 407 l 0 467 l 663 467 l 663 -196 l 603 -196 l 603 407 m 603 586 l 603 1188 l 663 1188 l 663 526 l 0 526 l 0 586 l 603 586 m 781 407 l 781 -196 l 722 -196 l 722 467 l 1383 467 l 1383 407 l 781 407 m 781 586 l 1383 586 l 1383 526 l 722 526 l 722 1188 l 781 1188 l 781 586 z "},"╭":{"ha":1389,"x_min":657,"x_max":1383,"o":"m 722 -196 l 663 -196 q 706 108 657 -28 q 865 344 754 244 q 1101 488 976 444 q 1383 526 1226 532 l 1383 467 q 1107 431 1215 472 q 903 298 999 390 q 763 89 808 206 q 722 -196 717 -28 z "},"╮":{"ha":1389,"x_min":0,"x_max":722,"o":"m 0 467 l 0 526 q 306 475 168 532 q 545 307 444 418 q 684 82 646 196 q 722 -196 722 -32 l 657 -196 q 613 78 657 -33 q 483 283 569 190 q 282 424 396 375 q 0 467 168 472 z "},"╯":{"ha":1389,"x_min":0,"x_max":722,"o":"m 663 1188 l 722 1188 q 670 865 722 992 q 515 645 618 738 q 279 507 413 553 q 0 467 146 461 l 0 526 q 271 565 163 521 q 466 684 379 608 q 608 876 553 760 q 663 1188 663 992 z "},"╰":{"ha":1389,"x_min":657,"x_max":1383,"o":"m 1383 526 l 1383 467 q 1118 494 1226 467 q 888 622 1010 521 q 711 868 765 722 q 663 1188 657 1014 l 722 1188 q 751 933 717 1063 q 895 694 786 803 q 1121 553 1004 586 q 1383 526 1238 521 z "},"╱":{"ha":1389,"x_min":6,"x_max":1378,"o":"m 43 -190 l 6 -151 l 1340 1183 l 1378 1144 l 43 -190 z "},"╲":{"ha":1389,"x_min":6,"x_max":1378,"o":"m 6 1144 l 49 1183 l 1378 -146 l 1340 -190 l 6 1144 z "},"╳":{"ha":1389,"x_min":6,"x_max":1378,"o":"m 43 1183 l 694 532 l 1335 1183 l 1378 1144 l 732 493 l 1378 -142 l 1340 -190 l 694 450 l 38 -190 l 6 -151 l 657 489 l 6 1144 l 43 1183 z "},"▁":{"ha":1389,"x_min":43,"x_max":1340,"o":"m 43 -151 l 43 11 l 1340 11 l 1340 -151 l 43 -151 z "},"▂":{"ha":1389,"x_min":43,"x_max":1340,"o":"m 43 -151 l 43 174 l 1340 174 l 1340 -151 l 43 -151 z "},"▃":{"ha":1389,"x_min":43,"x_max":1340,"o":"m 43 -151 l 43 336 l 1340 336 l 1340 -151 l 43 -151 z "},"▄":{"ha":1389,"x_min":43,"x_max":1340,"o":"m 43 -151 l 43 499 l 1340 499 l 1340 -151 l 43 -151 z "},"▅":{"ha":1389,"x_min":43,"x_max":1340,"o":"m 43 -151 l 43 663 l 1340 663 l 1340 -151 l 43 -151 z "},"▆":{"ha":1389,"x_min":43,"x_max":1340,"o":"m 43 -151 l 43 825 l 1340 825 l 1340 -151 l 43 -151 z "},"▇":{"ha":1389,"x_min":43,"x_max":1340,"o":"m 43 -151 l 43 988 l 1340 988 l 1340 -151 l 43 -151 z "},"█":{"ha":1389,"x_min":43,"x_max":1340,"o":"m 43 -151 l 43 1144 l 1340 1144 l 1340 -151 l 43 -151 z "},"▉":{"ha":1389,"x_min":43,"x_max":1178,"o":"m 43 -151 l 43 1144 l 1178 1144 l 1178 -151 l 43 -151 z "},"▊":{"ha":1389,"x_min":43,"x_max":1014,"o":"m 43 -151 l 43 1144 l 1014 1144 l 1014 -151 l 43 -151 z "},"▋":{"ha":1389,"x_min":43,"x_max":851,"o":"m 43 -151 l 43 1144 l 851 1144 l 851 -151 l 43 -151 z "},"▌":{"ha":1389,"x_min":43,"x_max":689,"o":"m 43 -151 l 43 1144 l 689 1144 l 689 -151 l 43 -151 z "},"▍":{"ha":1389,"x_min":43,"x_max":526,"o":"m 43 -151 l 43 1144 l 526 1144 l 526 -151 l 43 -151 z "},"▎":{"ha":1389,"x_min":43,"x_max":364,"o":"m 43 -151 l 43 1144 l 364 1144 l 364 -151 l 43 -151 z "},"▏":{"ha":1389,"x_min":43,"x_max":201,"o":"m 43 -151 l 43 1144 l 201 1144 l 201 -151 l 43 -151 z "},"▓":{"ha":1389,"x_min":114,"x_max":1269,"o":"m 1269 1144 l 1269 -151 l 1133 -151 l 1133 -60 l 999 -60 l 999 -151 l 836 -151 l 836 -60 l 700 -60 l 700 -151 l 543 -151 l 543 -60 l 407 -60 l 407 -151 l 250 -151 l 250 -60 l 114 -60 l 114 222 l 250 222 l 250 315 l 114 315 l 114 592 l 250 592 l 250 683 l 114 683 l 114 960 l 250 960 l 250 1053 l 114 1053 l 114 1144 l 1269 1144 m 407 1053 l 407 960 l 543 960 l 543 1053 l 407 1053 m 407 315 l 407 222 l 543 222 l 543 315 l 407 315 m 846 131 l 846 38 l 982 38 l 982 131 l 846 131 m 553 131 l 553 38 l 689 38 l 689 131 l 553 131 m 700 1053 l 700 960 l 836 960 l 836 1053 l 700 1053 m 700 315 l 700 222 l 836 222 l 836 315 l 700 315 m 999 315 l 999 222 l 1133 222 l 1133 315 l 999 315 m 999 1053 l 999 960 l 1133 960 l 1133 1053 l 999 1053 m 261 131 l 261 38 l 396 38 l 396 131 l 261 131 m 407 683 l 407 592 l 543 592 l 543 683 l 407 683 m 553 499 l 553 407 l 689 407 l 689 499 l 553 499 m 846 499 l 846 407 l 982 407 l 982 499 l 846 499 m 553 868 l 553 776 l 689 776 l 689 868 l 553 868 m 700 683 l 700 592 l 836 592 l 836 683 l 700 683 m 846 868 l 846 776 l 982 776 l 982 868 l 846 868 m 999 683 l 999 592 l 1133 592 l 1133 683 l 999 683 m 261 499 l 261 407 l 396 407 l 396 499 l 261 499 m 261 868 l 261 776 l 396 776 l 396 868 l 261 868 z "},"▔":{"ha":1389,"x_min":43,"x_max":1340,"o":"m 43 982 l 43 1144 l 1340 1144 l 1340 982 l 43 982 z "},"▕":{"ha":1389,"x_min":1178,"x_max":1340,"o":"m 1178 -151 l 1178 1144 l 1340 1144 l 1340 -151 l 1178 -151 z "}}}
